<?xml version="1.0" encoding="UTF-8" standalone="no"?>
<!-- Created with Inkscape (http://www.inkscape.org/) -->

<svg
   version="1.1"
   id="svg1"
   width="288.59924"
   height="96.685333"
   viewBox="0 0 288.59924 96.685333"
   xmlns="http://www.w3.org/2000/svg"
   xmlns:svg="http://www.w3.org/2000/svg">
  <defs
     id="defs1" />
  <g
     id="g164"
     transform="translate(-1770.064,-102.76669)">
    <path
       id="path165"
       d="m 996.143,6591.98 c 24.287,-12.15 51.067,-18.47 78.217,-18.47 29.73,0 58.96,7.58 84.95,22.01"
       style="fill:none;stroke:#000000;stroke-width:7.28786;stroke-linecap:butt;stroke-linejoin:miter;stroke-miterlimit:10;stroke-dasharray:none;stroke-opacity:1"
       transform="matrix(0.13333333,0,0,-0.13333333,1672,1056)" />
    <path
       id="path166"
       d="m 2896.33,6748.42 c 0,40.25 -32.63,72.88 -72.88,72.88 -40.25,0 -72.88,-32.63 -72.88,-72.88 0,-40.25 32.63,-72.88 72.88,-72.88"
       style="fill:none;stroke:#000000;stroke-width:7.28786;stroke-linecap:butt;stroke-linejoin:miter;stroke-miterlimit:10;stroke-dasharray:none;stroke-opacity:1"
       transform="matrix(0.13333333,0,0,-0.13333333,1672,1056)" />
    <path
       id="path167"
       d="m 2502.79,6442.33 -43.73,43.73"
       style="fill:none;stroke:#000000;stroke-width:7.28786;stroke-linecap:butt;stroke-linejoin:miter;stroke-miterlimit:10;stroke-dasharray:none;stroke-opacity:1"
       transform="matrix(0.13333333,0,0,-0.13333333,1672,1056)" />
    <path
       id="path168"
       d="m 2459.06,6427.75 v 58.31"
       style="fill:none;stroke:#000000;stroke-width:7.28786;stroke-linecap:butt;stroke-linejoin:miter;stroke-miterlimit:10;stroke-dasharray:none;stroke-opacity:1"
       transform="matrix(0.13333333,0,0,-0.13333333,1672,1056)" />
    <path
       id="path169"
       d="m 2415.33,6442.33 43.73,43.73"
       style="fill:none;stroke:#000000;stroke-width:7.28786;stroke-linecap:butt;stroke-linejoin:miter;stroke-miterlimit:10;stroke-dasharray:none;stroke-opacity:1"
       transform="matrix(0.13333333,0,0,-0.13333333,1672,1056)" />
    <path
       id="path170"
       d="m 2393.46,6726.56 -80.16,21.86"
       style="fill:none;stroke:#000000;stroke-width:7.28786;stroke-linecap:butt;stroke-linejoin:miter;stroke-miterlimit:10;stroke-dasharray:none;stroke-opacity:1"
       transform="matrix(0.13333333,0,0,-0.13333333,1672,1056)" />
    <path
       id="path171"
       d="m 2378.89,6784.86 -65.59,-36.44"
       style="fill:none;stroke:#000000;stroke-width:7.28786;stroke-linecap:butt;stroke-linejoin:miter;stroke-miterlimit:10;stroke-dasharray:none;stroke-opacity:1"
       transform="matrix(0.13333333,0,0,-0.13333333,1672,1056)" />
    <path
       id="path172"
       d="m 2233.13,6726.56 80.17,21.86"
       style="fill:none;stroke:#000000;stroke-width:7.28786;stroke-linecap:butt;stroke-linejoin:miter;stroke-miterlimit:10;stroke-dasharray:none;stroke-opacity:1"
       transform="matrix(0.13333333,0,0,-0.13333333,1672,1056)" />
    <path
       id="path173"
       d="m 2247.71,6784.86 65.59,-36.44"
       style="fill:none;stroke:#000000;stroke-width:7.28786;stroke-linecap:butt;stroke-linejoin:miter;stroke-miterlimit:10;stroke-dasharray:none;stroke-opacity:1"
       transform="matrix(0.13333333,0,0,-0.13333333,1672,1056)" />
    <path
       id="path174"
       d="M 2459.06,6486.06 2313.3,6748.42"
       style="fill:none;stroke:#000000;stroke-width:7.28786;stroke-linecap:butt;stroke-linejoin:miter;stroke-miterlimit:10;stroke-dasharray:none;stroke-opacity:1"
       transform="matrix(0.13333333,0,0,-0.13333333,1672,1056)" />
    <path
       id="path175"
       d="m 1263.85,6442.33 -43.73,43.73"
       style="fill:none;stroke:#000000;stroke-width:7.28786;stroke-linecap:butt;stroke-linejoin:miter;stroke-miterlimit:10;stroke-dasharray:none;stroke-opacity:1"
       transform="matrix(0.13333333,0,0,-0.13333333,1672,1056)" />
    <path
       id="path176"
       d="m 1220.12,6427.75 v 58.31"
       style="fill:none;stroke:#000000;stroke-width:7.28786;stroke-linecap:butt;stroke-linejoin:miter;stroke-miterlimit:10;stroke-dasharray:none;stroke-opacity:1"
       transform="matrix(0.13333333,0,0,-0.13333333,1672,1056)" />
    <path
       id="path177"
       d="m 1176.4,6442.33 43.72,43.73"
       style="fill:none;stroke:#000000;stroke-width:7.28786;stroke-linecap:butt;stroke-linejoin:miter;stroke-miterlimit:10;stroke-dasharray:none;stroke-opacity:1"
       transform="matrix(0.13333333,0,0,-0.13333333,1672,1056)" />
    <path
       id="path178"
       d="m 1154.53,6726.56 -80.17,21.86"
       style="fill:none;stroke:#000000;stroke-width:7.28786;stroke-linecap:butt;stroke-linejoin:miter;stroke-miterlimit:10;stroke-dasharray:none;stroke-opacity:1"
       transform="matrix(0.13333333,0,0,-0.13333333,1672,1056)" />
    <path
       id="path179"
       d="m 1139.96,6784.86 -65.6,-36.44"
       style="fill:none;stroke:#000000;stroke-width:7.28786;stroke-linecap:butt;stroke-linejoin:miter;stroke-miterlimit:10;stroke-dasharray:none;stroke-opacity:1"
       transform="matrix(0.13333333,0,0,-0.13333333,1672,1056)" />
    <path
       id="path180"
       d="m 994.198,6726.56 80.162,21.86"
       style="fill:none;stroke:#000000;stroke-width:7.28786;stroke-linecap:butt;stroke-linejoin:miter;stroke-miterlimit:10;stroke-dasharray:none;stroke-opacity:1"
       transform="matrix(0.13333333,0,0,-0.13333333,1672,1056)" />
    <path
       id="path181"
       d="m 1008.77,6784.86 65.59,-36.44"
       style="fill:none;stroke:#000000;stroke-width:7.28786;stroke-linecap:butt;stroke-linejoin:miter;stroke-miterlimit:10;stroke-dasharray:none;stroke-opacity:1"
       transform="matrix(0.13333333,0,0,-0.13333333,1672,1056)" />
    <path
       id="path182"
       d="m 1220.12,6486.06 -145.76,262.36"
       style="fill:none;stroke:#000000;stroke-width:7.28786;stroke-linecap:butt;stroke-linejoin:miter;stroke-miterlimit:10;stroke-dasharray:none;stroke-opacity:1"
       transform="matrix(0.13333333,0,0,-0.13333333,1672,1056)" />
    <path
       id="path183"
       d="m 928.607,6456.91 145.753,291.51"
       style="fill:none;stroke:#000000;stroke-width:7.28786;stroke-linecap:butt;stroke-linejoin:miter;stroke-miterlimit:10;stroke-dasharray:none;stroke-opacity:1"
       transform="matrix(0.13333333,0,0,-0.13333333,1672,1056)" />
    <path
       id="path184"
       d="m 2677.69,7039.94 43.73,-43.73"
       style="fill:none;stroke:#000000;stroke-width:7.28786;stroke-linecap:butt;stroke-linejoin:miter;stroke-miterlimit:10;stroke-dasharray:none;stroke-opacity:1"
       transform="matrix(0.13333333,0,0,-0.13333333,1672,1056)" />
    <path
       id="path185"
       d="m 2677.69,7039.94 h 65.59"
       style="fill:none;stroke:#000000;stroke-width:7.28786;stroke-linecap:butt;stroke-linejoin:miter;stroke-miterlimit:10;stroke-dasharray:none;stroke-opacity:1"
       transform="matrix(0.13333333,0,0,-0.13333333,1672,1056)" />
    <path
       id="path186"
       d="m 2677.69,7039.94 43.73,43.72"
       style="fill:none;stroke:#000000;stroke-width:7.28786;stroke-linecap:butt;stroke-linejoin:miter;stroke-miterlimit:10;stroke-dasharray:none;stroke-opacity:1"
       transform="matrix(0.13333333,0,0,-0.13333333,1672,1056)" />
    <path
       id="path187"
       d="m 2240.42,7039.94 -43.73,-43.73"
       style="fill:none;stroke:#000000;stroke-width:7.28786;stroke-linecap:butt;stroke-linejoin:miter;stroke-miterlimit:10;stroke-dasharray:none;stroke-opacity:1"
       transform="matrix(0.13333333,0,0,-0.13333333,1672,1056)" />
    <path
       id="path188"
       d="m 2240.42,7039.94 -43.73,43.72"
       style="fill:none;stroke:#000000;stroke-width:7.28786;stroke-linecap:butt;stroke-linejoin:miter;stroke-miterlimit:10;stroke-dasharray:none;stroke-opacity:1"
       transform="matrix(0.13333333,0,0,-0.13333333,1672,1056)" />
    <path
       id="path189"
       d="m 1220.12,7039.94 43.73,-43.73"
       style="fill:none;stroke:#000000;stroke-width:7.28786;stroke-linecap:butt;stroke-linejoin:miter;stroke-miterlimit:10;stroke-dasharray:none;stroke-opacity:1"
       transform="matrix(0.13333333,0,0,-0.13333333,1672,1056)" />
    <path
       id="path190"
       d="m 1220.12,7039.94 h 65.59"
       style="fill:none;stroke:#000000;stroke-width:7.28786;stroke-linecap:butt;stroke-linejoin:miter;stroke-miterlimit:10;stroke-dasharray:none;stroke-opacity:1"
       transform="matrix(0.13333333,0,0,-0.13333333,1672,1056)" />
    <path
       id="path191"
       d="m 1220.12,7039.94 43.73,43.72"
       style="fill:none;stroke:#000000;stroke-width:7.28786;stroke-linecap:butt;stroke-linejoin:miter;stroke-miterlimit:10;stroke-dasharray:none;stroke-opacity:1"
       transform="matrix(0.13333333,0,0,-0.13333333,1672,1056)" />
    <path
       id="path192"
       d="m 782.85,7039.94 -43.727,-43.73"
       style="fill:none;stroke:#000000;stroke-width:7.28786;stroke-linecap:butt;stroke-linejoin:miter;stroke-miterlimit:10;stroke-dasharray:none;stroke-opacity:1"
       transform="matrix(0.13333333,0,0,-0.13333333,1672,1056)" />
    <path
       id="path193"
       d="m 782.85,7039.94 -43.727,43.72"
       style="fill:none;stroke:#000000;stroke-width:7.28786;stroke-linecap:butt;stroke-linejoin:miter;stroke-miterlimit:10;stroke-dasharray:none;stroke-opacity:1"
       transform="matrix(0.13333333,0,0,-0.13333333,1672,1056)" />
    <path
       id="path194"
       d="m 2240.42,7039.94 h 437.27"
       style="fill:none;stroke:#000000;stroke-width:7.28786;stroke-linecap:butt;stroke-linejoin:miter;stroke-miterlimit:10;stroke-dasharray:none;stroke-opacity:1"
       transform="matrix(0.13333333,0,0,-0.13333333,1672,1056)" />
    <path
       id="path195"
       d="m 1001.49,7127.39 218.63,-87.45"
       style="fill:none;stroke:#000000;stroke-width:7.28786;stroke-linecap:butt;stroke-linejoin:miter;stroke-miterlimit:10;stroke-dasharray:none;stroke-opacity:1"
       transform="matrix(0.13333333,0,0,-0.13333333,1672,1056)" />
    <path
       id="path196"
       d="m 782.85,7039.94 218.64,87.45"
       style="fill:none;stroke:#000000;stroke-width:7.28786;stroke-linecap:butt;stroke-linejoin:miter;stroke-miterlimit:10;stroke-dasharray:none;stroke-opacity:1"
       transform="matrix(0.13333333,0,0,-0.13333333,1672,1056)" />
    <path
       id="path197"
       d="m 2867.18,6675.54 -58.3,14.58 c 11.66,-14.58 11.66,-14.58 0,-29.15"
       style="fill:#000000;fill-opacity:1;fill-rule:nonzero;stroke:none"
       transform="matrix(0.13333333,0,0,-0.13333333,1672,1056)" />
    <path
       id="path198"
       d="m 2823.45,6675.54 h -2.91"
       style="fill:none;stroke:#000000;stroke-width:1.45757;stroke-linecap:butt;stroke-linejoin:miter;stroke-miterlimit:10;stroke-dasharray:none;stroke-opacity:1"
       transform="matrix(0.13333333,0,0,-0.13333333,1672,1056)" />
    <path
       id="path199"
       d="m 1948.91,6602.66 -72.88,18.22 c 14.58,-18.22 14.58,-18.22 0,-36.44"
       style="fill:#000000;fill-opacity:1;fill-rule:nonzero;stroke:none"
       transform="matrix(0.13333333,0,0,-0.13333333,1672,1056)" />
    <path
       id="path200"
       d="m 1511.63,6602.66 h 378.98"
       style="fill:none;stroke:#000000;stroke-width:7.28786;stroke-linecap:butt;stroke-linejoin:miter;stroke-miterlimit:10;stroke-dasharray:none;stroke-opacity:1"
       transform="matrix(0.13333333,0,0,-0.13333333,1672,1056)" />
    <path
       id="path201"
       d="M 1.0534375,3.203125e-4 C 1.5104688,-1.4879609 1.6628125,-1.8629609 2.06125,-2.5309297 c 0.2929688,-0.4804687 0.5390625,-0.75 0.6796875,-0.75 0.058594,0 0.09375,0.023437 0.140625,0.1171875 0.070312,0.1523438 0.140625,0.1875 0.3164063,0.1875 0.2578125,0 0.3984375,-0.1523437 0.3984375,-0.421875 0,-0.2695312 -0.1640625,-0.4570312 -0.4101563,-0.4570312 -0.1992187,0 -0.4335937,0.1289062 -0.65625,0.3632812 -0.3632812,0.375 -0.7148437,0.890625 -0.8554687,1.2421875 L 1.5573438,-1.9449922 2.014375,-3.8317109 1.990938,-3.8551479 c -0.6328125,0.1171875 -0.7148437,0.1289062 -1.359375,0.234375 v 0.1523437 c 0.2109375,-0.046875 0.24609375,-0.046875 0.3046875,-0.046875 0.1875,0 0.3046875,0.09375 0.3046875,0.2460938 0,0.1171875 0,0.1171875 -0.140625,0.7148437 L 0.3971875,3.203125e-4 Z M 7.4577344,-0.96061719 c -0.1289063,0.12890625 -0.1875,0.17578125 -0.2460938,0.24609375 -0.2578125,0.26953125 -0.375,0.3515625 -0.4570312,0.3515625 -0.070312,0 -0.1171875,-0.046875 -0.1171875,-0.10546875 0,-0.17578125 0.3632812,-1.67578121 0.7734375,-3.17578121 0.035156,-0.09375 0.035156,-0.1054688 0.058594,-0.1875 l -0.058594,-0.023437 -0.5390625,0.058594 -0.023437,0.023437 -0.09375,0.421875 c -0.070312,-0.3164062 -0.328125,-0.5039062 -0.703125,-0.5039062 -1.1484375,0 -2.4960938,1.6054687 -2.4960938,2.97656246 0,0.62109375 0.328125,0.97265625 0.890625,0.97265625 0.609375,0 0.984375,-0.28125 1.7578125,-1.37109371 -0.1757812,0.67968746 -0.1992187,0.79687496 -0.1992187,1.00781246 0,0.2578125 0.1054687,0.3515625 0.3398437,0.3515625 0.3515625,0 0.5742188,-0.1640625 1.21875,-0.9609375 z M 6.1100781,-3.6676484 c 0.2929688,0.023437 0.4804688,0.234375 0.4804688,0.5390625 0,0.7382812 -0.4335938,1.7695312 -1.03125,2.41406246 -0.2109375,0.234375 -0.515625,0.38671875 -0.7617188,0.38671875 -0.3046875,0 -0.515625,-0.2578125 -0.515625,-0.65625 0,-0.48046871 0.3398438,-1.37109371 0.7148438,-1.92187501 0.3515625,-0.5039062 0.7617187,-0.7851562 1.1132812,-0.7617187 z m 5.2851559,2.71874996 -0.128906,0.22265625 c -0.164062,0.26953125 -0.269531,0.36328125 -0.398437,0.36328125 -0.1875,0 -0.363282,-0.28125 -0.703125,-1.12499996 -0.04687,-0.1171875 -0.1757816,-0.421875 -0.3281254,-0.7617188 1.2890624,-1.1484375 1.5585934,-1.3242187 1.9687504,-1.3476562 v -0.140625 h -1.605469 v 0.140625 h 0.140625 c 0.222656,0 0.339844,0.058594 0.339844,0.1523437 0,0.1757813 -0.433594,0.609375 -1.2421879,1.2304688 -0.1289062,0.09375 -0.234375,0.1757812 -0.375,0.28125 l 1.0429689,-3.9960938 -0.04687,-0.046875 c -0.5156251,0.1171875 -0.8437501,0.1757813 -1.3593751,0.2460938 v 0.140625 c 0.421875,-0.011719 0.5859375,0.046875 0.5976562,0.2109375 -0.023437,0.1523437 -0.082031,0.3867187 -0.1992187,0.7851562 -0.035156,0.1289063 -0.058594,0.2226563 -0.070312,0.2929688 l -0.023437,0.082031 -1.1132813,4.2187500125 h 0.65625 l 0.421875,-1.5703125125 0.375,-0.28125 c 0.1289063,0.3867188 0.3632813,0.91406251 0.515625,1.23046876 0.2812499,0.55078125 0.4453129,0.71484375 0.6914059,0.71484375 0.351563,0 0.574219,-0.2109375 0.972657,-0.94921875 z m 3.392579,0 c -0.632813,0.515625 -0.902344,0.65625 -1.277344,0.65625 -0.492188,0 -0.820313,-0.31640625 -0.820313,-0.79687496 0,-0.1289063 0.02344,-0.2578125 0.08203,-0.5390625 l 0.246093,-0.035156 c 1.3125,-0.1757812 2.238282,-0.84375 2.238282,-1.59375 0,-0.375 -0.257813,-0.5976562 -0.691407,-0.5976562 -1.265625,0 -2.636718,1.4414062 -2.636718,2.7539062 0,0.70312501 0.46875,1.19531251 1.160156,1.19531251 0.621094,0 1.289062,-0.3515625 1.804687,-0.9375 z M 12.983125,-2.2028047 c 0.304688,-0.7734375 0.949219,-1.453125 1.394531,-1.453125 0.1875,0 0.304688,0.140625 0.304688,0.3398438 0,0.2695312 -0.164063,0.5859375 -0.433594,0.8554687 -0.328125,0.3046875 -0.65625,0.4570313 -1.40625,0.6445313 z m 3.952148,3.7382813 c -0.316406,-0.89062504 -0.421875,-1.44140629 -0.421875,-2.27343754 0,-1.05468746 0.246094,-2.30859376 0.65625,-3.28124996 0.28125,-0.6914063 0.5625,-1.1015625 1.125,-1.6992188 l -0.117187,-0.1289062 c -1.136719,1.03125 -1.582031,1.6054687 -1.945313,2.5195312 -0.222656,0.5507813 -0.328125,1.0898438 -0.328125,1.7578125 0,0.66796876 0.105469,1.32421876 0.304688,1.93359376 0.117187,0.375 0.246094,0.64453124 0.5625,1.21875004 z m 1.705079,-5.0625 c 0.09375,0 0.164062,0 0.257812,0 0.339844,0 0.433594,0.140625 0.550781,0.9492187 0.09375,0.5976563 0.1875,1.92187501 0.1875,2.42578126 0,0.24609375 0.02344,0.3046875 0.08203,0.3046875 0.222656,0 1.03125,-0.92578125 1.921875,-2.16796876 0.304687,-0.4335937 0.539062,-0.9960937 0.539062,-1.3242187 0,-0.28125 -0.234375,-0.515625 -0.492187,-0.515625 -0.1875,0 -0.328125,0.1171875 -0.328125,0.2929687 0,0.140625 0.05859,0.2460938 0.210937,0.3867188 0.117188,0.1054687 0.164063,0.1757812 0.164063,0.2695312 0,0.3984375 -0.574219,1.3710938 -1.195313,2.01562501 l -0.28125,0.28125 C 20.198945,-1.8395234 20.15207,-2.2965547 20.034883,-2.9410859 c -0.175781,-0.890625 -0.175781,-0.9140625 -0.257813,-0.9140625 -0.03516,0 -0.105468,0.011719 -0.175781,0.035156 -0.152344,0.046875 -0.632812,0.1289063 -0.960937,0.1875 z M 22.5925,1.5706328 c 1.078125,-0.93749999 1.523437,-1.49999999 1.921875,-2.44921874 0.246094,-0.58593746 0.351562,-1.13671876 0.351562,-1.78124996 0,-0.4921875 -0.07031,-1.0546875 -0.199218,-1.5820313 -0.140625,-0.5976562 -0.28125,-0.9023437 -0.667969,-1.6054687 l -0.164063,0.046875 c 0.292969,0.703125 0.421875,1.4179687 0.421875,2.2851562 0,1.1132813 -0.292968,2.53125001 -0.738281,3.46875001 -0.246094,0.5625 -0.515625,0.92578125 -1.042969,1.48828129 z m 0,0"
       style="fill:#000000;fill-opacity:1;fill-rule:nonzero;stroke:none"
       aria-label="rake(v)"
       transform="matrix(1.3333333,0,0,1.3333333,1886.1267,167.87067)" />
    <path
       id="path202"
       d="m 1160.36,6594.65 -74.96,-4.96 c 19.46,-12.88 19.46,-12.88 11.15,-34.69"
       style="fill:#000000;fill-opacity:1;fill-rule:nonzero;stroke:none"
       transform="matrix(0.13333333,0,0,-0.13333333,1672,1056)" />
    <path
       id="path203"
       d="m 1139.96,6588.09 -35.1,-11.28"
       style="fill:none;stroke:#000000;stroke-width:7.28786;stroke-linecap:butt;stroke-linejoin:miter;stroke-miterlimit:10;stroke-dasharray:none;stroke-opacity:1"
       transform="matrix(0.13333333,0,0,-0.13333333,1672,1056)" />
    <path
       id="path204"
       d="m 1948.91,7010.78 -72.88,18.22 c 14.58,-18.22 14.58,-18.22 0,-36.44"
       style="fill:#000000;fill-opacity:1;fill-rule:nonzero;stroke:none"
       transform="matrix(0.13333333,0,0,-0.13333333,1672,1056)" />
    <path
       id="path205"
       d="m 1511.63,7010.78 h 378.98"
       style="fill:none;stroke:#000000;stroke-width:7.28786;stroke-linecap:butt;stroke-linejoin:miter;stroke-miterlimit:10;stroke-dasharray:none;stroke-opacity:1"
       transform="matrix(0.13333333,0,0,-0.13333333,1672,1056)" />
    <path
       id="path206"
       d="m 3.0572266,-0.92500781 c -0.4804688,0.515625 -0.8203125,0.703125 -1.2539063,0.703125 -0.4921875,0 -0.7851562,-0.375 -0.7851562,-0.99609379 0,-0.7382812 0.3046875,-1.5117187 0.7851562,-2.0390625 0.2578125,-0.2578125 0.609375,-0.4101562 0.9492188,-0.4101562 0.1992187,0 0.328125,0.070312 0.328125,0.1757812 0,0.035156 -0.011719,0.082031 -0.046875,0.1640625 -0.058594,0.1054688 -0.082031,0.1757813 -0.082031,0.2460938 0,0.2109375 0.1289063,0.3398437 0.3398438,0.3398437 0.234375,0 0.421875,-0.1757812 0.421875,-0.4101562 0,-0.3984375 -0.3984375,-0.703125 -0.9140625,-0.703125 -1.3125,0 -2.54296879,1.2773437 -2.54296879,2.6367187 0,0.83203129 0.48046875,1.31250004 1.28906249,1.31250004 0.6445313,0 1.125,-0.26953125 1.6523438,-0.9375 z M 6.7193359,-3.8546953 c -1.3007812,0 -2.6015625,1.359375 -2.6015625,2.7304687 0,0.75000004 0.4921875,1.21875004 1.2890625,1.21875004 0.5742188,0 1.1367188,-0.2578125 1.640625,-0.76171875 0.5742188,-0.56249999 0.9257813,-1.31249999 0.9257813,-1.96874999 0,-0.7148438 -0.5039063,-1.21875 -1.2539063,-1.21875 z m -0.1054687,0.1875 c 0.3867187,0 0.6210937,0.3164062 0.6210937,0.8203125 0,0.6328125 -0.28125,1.5117187 -0.6679687,2.07421874 -0.328125,0.46875 -0.65625,0.69140625 -1.03125,0.69140625 -0.4101563,0 -0.6796875,-0.31640625 -0.6796875,-0.796875 0,-0.65624999 0.2460937,-1.41796879 0.6796875,-2.03906249 0.3398437,-0.4921875 0.703125,-0.75 1.078125,-0.75 z m 7.6640628,2.6484375 c -0.08203,0.10546874 -0.152344,0.18749999 -0.1875,0.22265624 -0.246094,0.31640625 -0.421875,0.46875 -0.550782,0.46875 -0.07031,0 -0.117187,-0.0585938 -0.117187,-0.140625 0,-0.046875 0.03516,-0.1875 0.08203,-0.3984375 l 0.597656,-2.19140624 c 0.01172,-0.035156 0.02344,-0.1992188 0.02344,-0.2460938 0,-0.3164062 -0.210938,-0.5507812 -0.515625,-0.5507812 -0.164063,0 -0.339844,0.058594 -0.550781,0.1875 -0.421875,0.28125 -0.785157,0.703125 -1.382813,1.6640625 0.210938,-0.6679688 0.351563,-1.1601563 0.351563,-1.3242188 0,-0.3046875 -0.210938,-0.5273437 -0.503907,-0.5273437 -0.539062,0 -1.148437,0.5742187 -1.9453121,1.8398437 l 0.5039061,-1.8164062 -0.02344,-0.023437 c -0.4921878,0.1054687 -0.6796878,0.140625 -1.4062503,0.2695312 v 0.140625 h 0.2226562 c 0.2226563,0 0.3398438,0.058594 0.3398438,0.1875 0,0.1054688 -0.1992188,0.9023438 -0.515625,2.0039063 -0.1992188,0.71484374 -0.2226563,0.80859374 -0.3398438,1.2539062375 h 0.65625 C 9.4380859,-1.3937578 9.5669922,-1.7101641 9.8599609,-2.1671953 c 0.4921871,-0.7382813 1.0195311,-1.2304688 1.3125001,-1.2304688 0.117187,0 0.175781,0.082031 0.175781,0.2109375 0,0.082031 -0.28125,1.1367188 -0.832031,3.1875000375 h 0.65625 C 11.524023,-1.3586016 11.699805,-1.8039141 12.145117,-2.4250078 c 0.433594,-0.5859375 0.867188,-0.9726563 1.113281,-0.9726563 0.105469,0 0.175782,0.082031 0.175782,0.1757813 0,0.046875 -0.01172,0.1523437 -0.05859,0.3164062 l -0.503906,2.00390629 c -0.08203,0.328125 -0.117188,0.4921875 -0.117188,0.57421875 0,0.26953125 0.128906,0.41015625 0.351563,0.41015625 0.410156,0 0.796875,-0.29296875 1.253906,-0.9375 l 0.04687,-0.0585938 z m 0.785156,-2.5078125 h 0.199219 c 0,0 0.01172,0 0.02344,-0.011719 0.117188,-0.058594 0.339844,0.1171875 0.339844,0.2460938 0,0.070312 -0.316406,1.3125 -0.621094,2.47265624 -0.234375,0.8671875 -0.445312,1.69921875 -0.503906,1.95703126 -0.09375,0.3984375 -0.210938,0.5039062 -0.585938,0.515625 V 1.793742 H 15.70762 V 1.6648359 c -0.410156,0 -0.5625,-0.082031 -0.5625,-0.2695312 0,-0.1171875 0.152344,-0.79687501 0.328125,-1.44140626 0.210938,0.10546875 0.375,0.140625 0.574219,0.140625 1.277344,0 2.625,-1.46484374 2.625,-2.85937504 0,-0.6796875 -0.386719,-1.0898437 -1.007813,-1.0898437 -0.5625,0 -0.984375,0.28125 -1.488281,0.984375 l 0.246094,-0.8671875 0.02344,-0.082031 c 0,0 0,-0.011719 -0.01172,-0.023437 l -0.02344,-0.011719 c 0,-0.011719 0,-0.011719 0,-0.011719 0,0 -0.02344,0.011719 -0.02344,0.011719 l -1.347657,0.1875 z m 2.273437,0.046875 c 0.386719,0.023437 0.550782,0.2460937 0.550782,0.75 0,0.5742187 -0.257813,1.3359375 -0.632813,1.87499999 -0.363281,0.515625 -0.785156,0.78515625 -1.242187,0.78515625 -0.246094,0 -0.421875,-0.12890625 -0.421875,-0.328125 0,-0.29296875 0.316406,-1.44140624 0.574218,-2.08593754 0.234375,-0.5976562 0.738282,-1.0195312 1.171875,-0.9960937 z M 19.99668,7.734375e-4 C 20.453711,-1.4875078 20.606055,-1.8625078 21.004492,-2.5304766 c 0.292969,-0.4804687 0.539063,-0.75 0.679688,-0.75 0.05859,0 0.09375,0.023437 0.140625,0.1171875 0.07031,0.1523438 0.140625,0.1875 0.316406,0.1875 0.257812,0 0.398437,-0.1523437 0.398437,-0.421875 0,-0.2695312 -0.164062,-0.4570312 -0.410156,-0.4570312 -0.199219,0 -0.433594,0.1289062 -0.65625,0.3632812 -0.363281,0.375 -0.714844,0.890625 -0.855469,1.2421875 l -0.117187,0.3046875 0.457031,-1.8867187 -0.02344,-0.023437 c -0.632813,0.1171875 -0.714844,0.1289062 -1.359375,0.234375 v 0.1523437 c 0.210937,-0.046875 0.246093,-0.046875 0.304687,-0.046875 0.1875,0 0.304688,0.09375 0.304688,0.2460938 0,0.1171875 0,0.1171875 -0.140625,0.7148437 L 19.34043,7.734375e-4 Z M 25.472266,-0.94844531 c -0.632813,0.515625 -0.902344,0.65625 -1.277344,0.65625 -0.492188,0 -0.820313,-0.31640625 -0.820313,-0.79687499 0,-0.1289063 0.02344,-0.2578125 0.08203,-0.5390625 l 0.246093,-0.035156 c 1.3125,-0.1757812 2.238282,-0.84375 2.238282,-1.59375 0,-0.375 -0.257813,-0.5976562 -0.691407,-0.5976562 -1.265625,0 -2.636718,1.4414062 -2.636718,2.7539062 0,0.70312504 0.46875,1.19531254 1.160156,1.19531254 0.621094,0 1.289062,-0.3515625 1.804687,-0.9375 z M 23.667578,-2.2023516 c 0.304688,-0.7734375 0.949219,-1.453125 1.394531,-1.453125 0.1875,0 0.304688,0.140625 0.304688,0.3398438 0,0.2695312 -0.164063,0.5859375 -0.433594,0.8554687 -0.328125,0.3046875 -0.65625,0.4570313 -1.40625,0.6445313 z m 2.876953,0.9257813 -0.175781,1.39453124 h 0.140625 c 0.07031,-0.140625 0.117187,-0.1875 0.210937,-0.1875 0.09375,0 0.246094,0.03515625 0.421875,0.08203125 0.199219,0.05859375 0.339844,0.08203125 0.480469,0.08203125 0.738281,0 1.265625,-0.46875 1.265625,-1.13671874 0,-0.328125 -0.1875,-0.7148438 -0.597656,-1.21875 -0.328125,-0.4101563 -0.46875,-0.6796875 -0.46875,-0.9257813 0,-0.28125 0.175781,-0.46875 0.492187,-0.46875 0.445313,0 0.714844,0.328125 0.796875,1.0078125 h 0.140625 l 0.175782,-1.21875 h -0.117188 c -0.07031,0.1289063 -0.140625,0.1640625 -0.269531,0.1640625 -0.05859,0 -0.140625,-0.023437 -0.316406,-0.070312 -0.210938,-0.058594 -0.339844,-0.082031 -0.480469,-0.082031 -0.644531,0 -1.066406,0.375 -1.066406,0.9609375 0,0.28125 0.1875,0.65625 0.550781,1.125 0.339844,0.4453125 0.492187,0.75 0.492187,1.00781249 0,0.3984375 -0.257812,0.6796875 -0.644531,0.6796875 -0.480469,0 -0.75,-0.36328125 -0.890625,-1.19531249 z m 3.401367,0 -0.175781,1.39453124 h 0.140625 c 0.07031,-0.140625 0.117188,-0.1875 0.210938,-0.1875 0.09375,0 0.246093,0.03515625 0.421875,0.08203125 0.199218,0.05859375 0.339843,0.08203125 0.480468,0.08203125 0.738282,0 1.265625,-0.46875 1.265625,-1.13671874 0,-0.328125 -0.1875,-0.7148438 -0.597656,-1.21875 -0.328125,-0.4101563 -0.46875,-0.6796875 -0.46875,-0.9257813 0,-0.28125 0.175781,-0.46875 0.492188,-0.46875 0.445312,0 0.714843,0.328125 0.796875,1.0078125 h 0.140625 l 0.175781,-1.21875 h -0.117188 c -0.07031,0.1289063 -0.140625,0.1640625 -0.269531,0.1640625 -0.05859,0 -0.140625,-0.023437 -0.316406,-0.070312 -0.210938,-0.058594 -0.339844,-0.082031 -0.480469,-0.082031 -0.644531,0 -1.066406,0.375 -1.066406,0.9609375 0,0.28125 0.1875,0.65625 0.550781,1.125 0.339844,0.4453125 0.492188,0.75 0.492188,1.00781249 0,0.3984375 -0.257813,0.6796875 -0.644532,0.6796875 -0.480468,0 -0.75,-0.36328125 -0.890625,-1.19531249 z m 4.479493,2.8125 c -0.316407,-0.89062501 -0.421875,-1.44140626 -0.421875,-2.27343751 0,-1.05468749 0.246093,-2.30859379 0.65625,-3.28124999 0.28125,-0.6914063 0.5625,-1.1015625 1.125,-1.6992188 l -0.117188,-0.1289062 c -1.136719,1.03125 -1.582031,1.6054687 -1.945312,2.5195312 -0.222657,0.5507813 -0.328125,1.0898438 -0.328125,1.7578125 0,0.66796879 0.105468,1.32421879 0.304687,1.93359379 0.117188,0.375 0.246094,0.64453121 0.5625,1.21875001 z m 1.705078,-5.0625 c 0.09375,0 0.164062,0 0.257812,0 0.339844,0 0.433594,0.140625 0.550781,0.9492187 0.09375,0.5976563 0.1875,1.92187504 0.1875,2.42578129 0,0.24609375 0.02344,0.3046875 0.08203,0.3046875 0.222656,0 1.03125,-0.92578125 1.921875,-2.16796879 0.304687,-0.4335937 0.539062,-0.9960937 0.539062,-1.3242187 0,-0.28125 -0.234375,-0.515625 -0.492187,-0.515625 -0.1875,0 -0.328125,0.1171875 -0.328125,0.2929687 0,0.140625 0.05859,0.2460938 0.210937,0.3867188 0.117188,0.1054687 0.164063,0.1757812 0.164063,0.2695312 0,0.3984375 -0.574219,1.3710938 -1.195313,2.01562504 l -0.28125,0.28125 C 37.689062,-1.8390703 37.642187,-2.2961016 37.525,-2.9406328 c -0.175781,-0.890625 -0.175781,-0.9140625 -0.257813,-0.9140625 -0.03516,0 -0.105468,0.011719 -0.175781,0.035156 -0.152344,0.046875 -0.632812,0.1289063 -0.960937,0.1875 z m 3.955078,5.0976562 c 1.078125,-0.93749996 1.523437,-1.49999996 1.921875,-2.44921871 0.246094,-0.58593749 0.351562,-1.13671879 0.351562,-1.78124999 0,-0.4921875 -0.07031,-1.0546875 -0.199218,-1.5820313 -0.140625,-0.5976562 -0.28125,-0.9023437 -0.667969,-1.6054687 l -0.164063,0.046875 c 0.292969,0.703125 0.421875,1.4179687 0.421875,2.2851562 0,1.1132813 -0.292968,2.53125004 -0.738281,3.46875004 -0.246094,0.5625 -0.515625,0.92578125 -1.042969,1.48828126 z m 0,0"
       style="fill:#000000;fill-opacity:1;fill-rule:nonzero;stroke:none"
       aria-label="compress(v)"
       transform="matrix(1.3333333,0,0,1.3333333,1874.4667,113.456)" />
    <path
       id="path207"
       d="m 2506.43,6442.33 c 0,2.01 -1.63,3.64 -3.64,3.64 -2.02,0 -3.65,-1.63 -3.65,-3.64 0,-2.01 1.63,-3.64 3.65,-3.64 2.01,0 3.64,1.63 3.64,3.64"
       style="fill:#000000;fill-opacity:1;fill-rule:nonzero;stroke:none"
       transform="matrix(0.13333333,0,0,-0.13333333,1672,1056)" />
    <path
       id="path208"
       d="m 2462.7,6427.75 c 0,2.02 -1.63,3.65 -3.64,3.65 -2.01,0 -3.64,-1.63 -3.64,-3.65 0,-2.01 1.63,-3.64 3.64,-3.64 2.01,0 3.64,1.63 3.64,3.64"
       style="fill:#000000;fill-opacity:1;fill-rule:nonzero;stroke:none"
       transform="matrix(0.13333333,0,0,-0.13333333,1672,1056)" />
    <path
       id="path209"
       d="m 2418.98,6442.33 c 0,2.01 -1.64,3.64 -3.65,3.64 -2.01,0 -3.64,-1.63 -3.64,-3.64 0,-2.01 1.63,-3.64 3.64,-3.64 2.01,0 3.65,1.63 3.65,3.64"
       style="fill:#000000;fill-opacity:1;fill-rule:nonzero;stroke:none"
       transform="matrix(0.13333333,0,0,-0.13333333,1672,1056)" />
    <path
       id="path210"
       d="m 2397.11,6726.56 c 0,2.01 -1.63,3.64 -3.65,3.64 -2.01,0 -3.64,-1.63 -3.64,-3.64 0,-2.02 1.63,-3.65 3.64,-3.65 2.02,0 3.65,1.63 3.65,3.65"
       style="fill:#000000;fill-opacity:1;fill-rule:nonzero;stroke:none"
       transform="matrix(0.13333333,0,0,-0.13333333,1672,1056)" />
    <path
       id="path211"
       d="m 2382.54,6784.86 c 0,2.01 -1.64,3.64 -3.65,3.64 -2.01,0 -3.64,-1.63 -3.64,-3.64 0,-2.01 1.63,-3.64 3.64,-3.64 2.01,0 3.65,1.63 3.65,3.64"
       style="fill:#000000;fill-opacity:1;fill-rule:nonzero;stroke:none"
       transform="matrix(0.13333333,0,0,-0.13333333,1672,1056)" />
    <path
       id="path212"
       d="m 2236.78,6726.56 c 0,2.01 -1.63,3.64 -3.65,3.64 -2.01,0 -3.64,-1.63 -3.64,-3.64 0,-2.02 1.63,-3.65 3.64,-3.65 2.02,0 3.65,1.63 3.65,3.65"
       style="fill:#000000;fill-opacity:1;fill-rule:nonzero;stroke:none"
       transform="matrix(0.13333333,0,0,-0.13333333,1672,1056)" />
    <path
       id="path213"
       d="m 2251.35,6784.86 c 0,2.01 -1.63,3.64 -3.64,3.64 -2.01,0 -3.64,-1.63 -3.64,-3.64 0,-2.01 1.63,-3.64 3.64,-3.64 2.01,0 3.64,1.63 3.64,3.64"
       style="fill:#000000;fill-opacity:1;fill-rule:nonzero;stroke:none"
       transform="matrix(0.13333333,0,0,-0.13333333,1672,1056)" />
    <path
       id="path214"
       d="m 2480.92,6486.06 c 0,12.07 -9.79,21.86 -21.86,21.86 -12.08,0 -21.86,-9.79 -21.86,-21.86 0,-12.08 9.78,-21.87 21.86,-21.87 12.07,0 21.86,9.79 21.86,21.87"
       style="fill:#000000;fill-opacity:1;fill-rule:nonzero;stroke:none"
       transform="matrix(0.13333333,0,0,-0.13333333,1672,1056)" />
    <path
       id="path215"
       d="m 0.17500781,-4.4177812 h 0.22265625 c 0.0117188,0 0.0351563,0 0.09375,-0.011719 0.3046875,-0.023437 0.41015625,0.09375 0.4921875,0.5039063 0.12890624,0.6210937 0.25781254,1.78125 0.29296874,2.6484375 l 0.046875,0.96093745 c 0.023437,0.421875 0.046875,0.515625 0.140625,0.515625 0.1171875,0 0.3046875,-0.28125 0.703125,-1.03125 0.046875,-0.1171875 0.2695313,-0.50390625 0.5976563,-1.07812495 l 0.9726562,-1.7109375 0.3164063,3.49218745 c 0.023437,0.29296875 0.046875,0.328125 0.1171875,0.328125 0.09375,0 0.1992187,-0.1171875 0.4921875,-0.46875 0.011719,-0.0117188 0.058594,-0.0703125 0.1054687,-0.12890625 1.4882813,-1.78125 2.3203125,-3.1523437 2.3203125,-3.8554687 0,-0.328125 -0.2460937,-0.5625 -0.5742187,-0.5625 -0.2578125,0 -0.421875,0.140625 -0.421875,0.3632812 0,0.140625 0.046875,0.234375 0.2226562,0.3984375 0.1757813,0.1640625 0.2460938,0.2695313 0.2460938,0.3984375 0,0.46875 -0.375,1.0664063 -1.8046875,2.84765625 L 4.4054766,-4.6521562 c 0,-0.1289063 -0.023437,-0.1640625 -0.082031,-0.1640625 -0.058594,0 -0.09375,0.023437 -0.1523437,0.1171875 L 2.0734453,-1.382625 C 2.0382891,-2.1443437 1.9211016,-3.2927812 1.8039141,-4.0545 1.6867266,-4.7341875 1.6632891,-4.8162187 1.5343828,-4.8162187 c -0.070312,0 -0.1875,0.023437 -0.328125,0.070312 -0.1289062,0.046875 -0.38671874,0.09375 -0.74999999,0.140625 -0.046875,0 -0.15234375,0.023437 -0.28125,0.046875 z m 0,0"
       style="fill:#000000;fill-opacity:1;fill-rule:nonzero;stroke:none"
       aria-label="w"
       transform="matrix(1.3333333,0,0,1.3333333,2002.044,189.156)" />
    <path
       id="path216"
       d="m 2335.17,6748.42 c 0,12.07 -9.79,21.86 -21.87,21.86 -12.07,0 -21.86,-9.79 -21.86,-21.86 0,-12.07 9.79,-21.86 21.86,-21.86 12.08,0 21.87,9.79 21.87,21.86"
       style="fill:#000000;fill-opacity:1;fill-rule:nonzero;stroke:none"
       transform="matrix(0.13333333,0,0,-0.13333333,1672,1056)" />
    <path
       id="path217"
       d="m 4.3952266,-1.2196563 c -0.082031,0.1054688 -0.140625,0.1640625 -0.234375,0.30468755 -0.2578125,0.328125 -0.3867188,0.43359375 -0.5039063,0.43359375 -0.1640625,0 -0.2695312,-0.140625 -0.3398437,-0.4453125 -0.023437,-0.09375 -0.035156,-0.1523438 -0.046875,-0.1875 C 3.0006953,-2.21575 2.8717891,-2.7196563 2.8717891,-2.8837188 c 0.4804687,-0.84375 0.8789062,-1.3242187 1.078125,-1.3242187 0.058594,0 0.1523437,0.035156 0.2578125,0.082031 0.1289062,0.082031 0.2109375,0.1054688 0.2929687,0.1054688 0.234375,0 0.3867188,-0.1640625 0.3867188,-0.3984375 0,-0.234375 -0.1875,-0.3984375 -0.4453125,-0.3984375 -0.4804688,0 -0.9023438,0.3867187 -1.6523438,1.5585937 L 2.6725703,-3.856375 c -0.1523437,-0.75 -0.28125,-0.9609375 -0.5742187,-0.9609375 -0.234375,0 -0.609375,0.09375 -1.27734379,0.3164062 l -0.1171875,0.035156 0.0351563,0.1640625 C 1.1608516,-4.3954375 1.2546016,-4.418875 1.3600703,-4.418875 c 0.2695313,0 0.3398438,0.09375 0.4921875,0.75 l 0.3164063,1.3476562 -0.9023438,1.2773438 c -0.2109375,0.328125 -0.43359374,0.52734375 -0.55078124,0.52734375 -0.0703125,0 -0.17578125,-0.0351563 -0.29296875,-0.09375 -0.140625,-0.0820313 -0.2578125,-0.1171875 -0.33984375,-0.1171875 -0.2109375,0 -0.375,0.1640625 -0.375,0.38671875 0,0.28125 0.2109375,0.45703125 0.5390625,0.45703125 0.33984375,0 0.48046875,-0.09375 1.01953124,-0.76171875 C 1.5592891,-0.997 1.7936641,-1.2899688 2.2506953,-1.9227813 l 0.328125,1.31250005 c 0.140625,0.55078125 0.28125,0.7265625 0.6328125,0.7265625 0.421875,0 0.703125,-0.2578125 1.3359375,-1.24218755 z m 0,0"
       style="fill:#000000;fill-opacity:1;fill-rule:nonzero;stroke:none"
       aria-label="x"
       transform="matrix(1.3333333,0,0,1.3333333,1977.1827,151.32933)" />
    <path
       id="path218"
       d="m 1267.49,6442.33 c 0,2.01 -1.63,3.64 -3.64,3.64 -2.01,0 -3.64,-1.63 -3.64,-3.64 0,-2.01 1.63,-3.64 3.64,-3.64 2.01,0 3.64,1.63 3.64,3.64"
       style="fill:#000000;fill-opacity:1;fill-rule:nonzero;stroke:none"
       transform="matrix(0.13333333,0,0,-0.13333333,1672,1056)" />
    <path
       id="path219"
       d="m 1223.77,6427.75 c 0,2.02 -1.63,3.65 -3.65,3.65 -2.01,0 -3.64,-1.63 -3.64,-3.65 0,-2.01 1.63,-3.64 3.64,-3.64 2.02,0 3.65,1.63 3.65,3.64"
       style="fill:#000000;fill-opacity:1;fill-rule:nonzero;stroke:none"
       transform="matrix(0.13333333,0,0,-0.13333333,1672,1056)" />
    <path
       id="path220"
       d="m 1180.04,6442.33 c 0,2.01 -1.63,3.64 -3.64,3.64 -2.02,0 -3.65,-1.63 -3.65,-3.64 0,-2.01 1.63,-3.64 3.65,-3.64 2.01,0 3.64,1.63 3.64,3.64"
       style="fill:#000000;fill-opacity:1;fill-rule:nonzero;stroke:none"
       transform="matrix(0.13333333,0,0,-0.13333333,1672,1056)" />
    <path
       id="path221"
       d="m 1158.18,6726.56 c 0,2.01 -1.64,3.64 -3.65,3.64 -2.01,0 -3.64,-1.63 -3.64,-3.64 0,-2.02 1.63,-3.65 3.64,-3.65 2.01,0 3.65,1.63 3.65,3.65"
       style="fill:#000000;fill-opacity:1;fill-rule:nonzero;stroke:none"
       transform="matrix(0.13333333,0,0,-0.13333333,1672,1056)" />
    <path
       id="path222"
       d="m 1143.6,6784.86 c 0,2.01 -1.63,3.64 -3.64,3.64 -2.02,0 -3.65,-1.63 -3.65,-3.64 0,-2.01 1.63,-3.64 3.65,-3.64 2.01,0 3.64,1.63 3.64,3.64"
       style="fill:#000000;fill-opacity:1;fill-rule:nonzero;stroke:none"
       transform="matrix(0.13333333,0,0,-0.13333333,1672,1056)" />
    <path
       id="path223"
       d="m 997.842,6726.56 c 0,2.01 -1.631,3.64 -3.644,3.64 -2.012,0 -3.644,-1.63 -3.644,-3.64 0,-2.02 1.632,-3.65 3.644,-3.65 2.013,0 3.644,1.63 3.644,3.65"
       style="fill:#000000;fill-opacity:1;fill-rule:nonzero;stroke:none"
       transform="matrix(0.13333333,0,0,-0.13333333,1672,1056)" />
    <path
       id="path224"
       d="m 1012.42,6784.86 c 0,2.01 -1.63,3.64 -3.65,3.64 -2.01,0 -3.64,-1.63 -3.64,-3.64 0,-2.01 1.63,-3.64 3.64,-3.64 2.02,0 3.65,1.63 3.65,3.64"
       style="fill:#000000;fill-opacity:1;fill-rule:nonzero;stroke:none"
       transform="matrix(0.13333333,0,0,-0.13333333,1672,1056)" />
    <path
       id="path225"
       d="m 1241.99,6486.06 c 0,12.07 -9.79,21.86 -21.87,21.86 -12.07,0 -21.86,-9.79 -21.86,-21.86 0,-12.08 9.79,-21.87 21.86,-21.87 12.08,0 21.87,9.79 21.87,21.87"
       style="fill:#000000;fill-opacity:1;fill-rule:nonzero;stroke:none"
       transform="matrix(0.13333333,0,0,-0.13333333,1672,1056)" />
    <path
       id="path226"
       d="m 0.17445313,-4.4177812 h 0.22265625 c 0.0117188,0 0.0351563,0 0.09375,-0.011719 0.3046875,-0.023437 0.41015625,0.09375 0.4921875,0.5039063 0.12890622,0.6210937 0.25781252,1.78125 0.29296872,2.6484375 l 0.046875,0.96093745 c 0.023437,0.421875 0.046875,0.515625 0.140625,0.515625 0.1171875,0 0.3046875,-0.28125 0.703125,-1.03125 0.046875,-0.1171875 0.2695313,-0.50390625 0.5976563,-1.07812495 l 0.9726562,-1.7109375 0.3164063,3.49218745 c 0.023437,0.29296875 0.046875,0.328125 0.1171875,0.328125 0.09375,0 0.1992187,-0.1171875 0.4921875,-0.46875 0.011719,-0.0117188 0.058594,-0.0703125 0.1054687,-0.12890625 1.4882813,-1.78125 2.3203125,-3.1523437 2.3203125,-3.8554687 0,-0.328125 -0.2460937,-0.5625 -0.5742187,-0.5625 -0.2578125,0 -0.421875,0.140625 -0.421875,0.3632812 0,0.140625 0.046875,0.234375 0.2226562,0.3984375 0.1757813,0.1640625 0.2460938,0.2695313 0.2460938,0.3984375 0,0.46875 -0.375,1.0664063 -1.8046875,2.84765625 L 4.4049219,-4.6521562 c 0,-0.1289063 -0.023437,-0.1640625 -0.082031,-0.1640625 -0.058594,0 -0.09375,0.023437 -0.1523437,0.1171875 L 2.0728906,-1.382625 C 2.0377344,-2.1443437 1.9205469,-3.2927812 1.8033594,-4.0545 1.6861719,-4.7341875 1.6627344,-4.8162187 1.5338281,-4.8162187 c -0.070312,0 -0.1875,0.023437 -0.328125,0.070312 -0.1289062,0.046875 -0.38671872,0.09375 -0.74999997,0.140625 -0.046875,0 -0.15234375,0.023437 -0.28125,0.046875 z m 0,0"
       style="fill:#000000;fill-opacity:1;fill-rule:nonzero;stroke:none"
       aria-label="w"
       transform="matrix(1.3333333,0,0,1.3333333,1836.8533,189.156)" />
    <path
       id="path227"
       d="m 1096.23,6748.42 c 0,12.07 -9.79,21.86 -21.87,21.86 -12.07,0 -21.86,-9.79 -21.86,-21.86 0,-12.07 9.79,-21.86 21.86,-21.86 12.08,0 21.87,9.79 21.87,21.86"
       style="fill:#000000;fill-opacity:1;fill-rule:nonzero;stroke:none"
       transform="matrix(0.13333333,0,0,-0.13333333,1672,1056)" />
    <path
       id="path228"
       d="m 4.3956719,-1.2196563 c -0.082031,0.1054688 -0.140625,0.1640625 -0.234375,0.30468755 -0.2578125,0.328125 -0.3867188,0.43359375 -0.5039063,0.43359375 -0.1640625,0 -0.2695312,-0.140625 -0.3398437,-0.4453125 -0.023437,-0.09375 -0.035156,-0.1523438 -0.046875,-0.1875 C 3.0011406,-2.21575 2.8722344,-2.7196563 2.8722344,-2.8837188 c 0.4804687,-0.84375 0.8789062,-1.3242187 1.078125,-1.3242187 0.058594,0 0.1523437,0.035156 0.2578125,0.082031 0.1289062,0.082031 0.2109375,0.1054688 0.2929687,0.1054688 0.234375,0 0.3867188,-0.1640625 0.3867188,-0.3984375 0,-0.234375 -0.1875,-0.3984375 -0.4453125,-0.3984375 -0.4804688,0 -0.9023438,0.3867187 -1.6523438,1.5585937 L 2.6730156,-3.856375 c -0.1523437,-0.75 -0.28125,-0.9609375 -0.5742187,-0.9609375 -0.234375,0 -0.609375,0.09375 -1.27734377,0.3164062 l -0.1171875,0.035156 0.0351563,0.1640625 C 1.1612969,-4.3954375 1.2550469,-4.418875 1.3605156,-4.418875 c 0.2695313,0 0.3398438,0.09375 0.4921875,0.75 l 0.3164063,1.3476562 -0.9023438,1.2773438 c -0.2109375,0.328125 -0.43359372,0.52734375 -0.55078122,0.52734375 -0.0703125,0 -0.17578125,-0.0351563 -0.29296875,-0.09375 -0.140625,-0.0820313 -0.2578125,-0.1171875 -0.33984375,-0.1171875 -0.2109375,0 -0.375,0.1640625 -0.375,0.38671875 0,0.28125 0.2109375,0.45703125 0.5390625,0.45703125 0.33984375,0 0.48046875,-0.09375 1.01953122,-0.76171875 C 1.5597344,-0.997 1.7941094,-1.2899688 2.2511406,-1.9227813 l 0.328125,1.31250005 c 0.140625,0.55078125 0.28125,0.7265625 0.6328125,0.7265625 0.421875,0 0.703125,-0.2578125 1.3359375,-1.24218755 z m 0,0"
       style="fill:#000000;fill-opacity:1;fill-rule:nonzero;stroke:none"
       aria-label="x"
       transform="matrix(1.3333333,0,0,1.3333333,1811.9907,151.32933)" />
    <path
       id="path229"
       d="m 950.471,6456.91 c 0,12.07 -9.789,21.86 -21.864,21.86 -12.075,0 -21.863,-9.79 -21.863,-21.86 0,-12.08 9.788,-21.87 21.863,-21.87 12.075,0 21.864,9.79 21.864,21.87"
       style="fill:#000000;fill-opacity:1;fill-rule:nonzero;stroke:none"
       transform="matrix(0.13333333,0,0,-0.13333333,1672,1056)" />
    <path
       id="path230"
       d="m 0.2357875,-4.4070234 c 0.1171875,-0.011719 0.19921875,-0.011719 0.328125,-0.011719 0.421875,0 0.5273438,0.1875 0.6796875,1.1953125 0.1171875,0.75 0.2460938,2.40234376 0.2460938,3.03515626 0,0.3046875 0.023437,0.38671875 0.09375,0.38671875 0.28125,0 1.2890625,-1.16015625 2.4140625,-2.71875001 0.375,-0.5390625 0.65625,-1.2539062 0.65625,-1.6523437 0,-0.3515625 -0.28125,-0.6445313 -0.609375,-0.6445313 -0.234375,0 -0.3984375,0.140625 -0.3984375,0.3632813 0,0.1757812 0.058594,0.3046875 0.2578125,0.4804687 0.140625,0.140625 0.1992187,0.2226563 0.1992187,0.328125 0,0.5039063 -0.7265625,1.7226563 -1.5,2.53125 L 2.2631313,-0.76249219 C 2.1928188,-2.3093672 2.1225063,-2.8718672 1.9818813,-3.6804609 1.759225,-4.8054609 1.759225,-4.8171797 1.665475,-4.8171797 c -0.058594,0 -0.1289062,0 -0.2226562,0.035156 -0.1992188,0.058594 -0.79687505,0.1640625 -1.2070313,0.234375 z m 0,0"
       style="fill:#000000;fill-opacity:1;fill-rule:nonzero;stroke:none"
       aria-label="v"
       transform="matrix(1.3333333,0,0,1.3333333,1785.8419,193.044)" />
    <path
       id="path231"
       d="m 2725.07,6996.21 c 0,2.01 -1.64,3.64 -3.65,3.64 -2.01,0 -3.64,-1.63 -3.64,-3.64 0,-2.01 1.63,-3.65 3.64,-3.65 2.01,0 3.65,1.64 3.65,3.65"
       style="fill:#000000;fill-opacity:1;fill-rule:nonzero;stroke:none"
       transform="matrix(0.13333333,0,0,-0.13333333,1672,1056)" />
    <path
       id="path232"
       d="m 2746.93,7039.94 c 0,2.01 -1.63,3.64 -3.65,3.64 -2.01,0 -3.64,-1.63 -3.64,-3.64 0,-2.02 1.63,-3.65 3.64,-3.65 2.02,0 3.65,1.63 3.65,3.65"
       style="fill:#000000;fill-opacity:1;fill-rule:nonzero;stroke:none"
       transform="matrix(0.13333333,0,0,-0.13333333,1672,1056)" />
    <path
       id="path233"
       d="m 2725.07,7083.66 c 0,2.01 -1.64,3.65 -3.65,3.65 -2.01,0 -3.64,-1.64 -3.64,-3.65 0,-2.01 1.63,-3.64 3.64,-3.64 2.01,0 3.65,1.63 3.65,3.64"
       style="fill:#000000;fill-opacity:1;fill-rule:nonzero;stroke:none"
       transform="matrix(0.13333333,0,0,-0.13333333,1672,1056)" />
    <path
       id="path234"
       d="m 2200.34,6996.21 c 0,2.01 -1.63,3.64 -3.65,3.64 -2.01,0 -3.64,-1.63 -3.64,-3.64 0,-2.01 1.63,-3.65 3.64,-3.65 2.02,0 3.65,1.64 3.65,3.65"
       style="fill:#000000;fill-opacity:1;fill-rule:nonzero;stroke:none"
       transform="matrix(0.13333333,0,0,-0.13333333,1672,1056)" />
    <path
       id="path235"
       d="m 2200.34,7083.66 c 0,2.01 -1.63,3.65 -3.65,3.65 -2.01,0 -3.64,-1.64 -3.64,-3.65 0,-2.01 1.63,-3.64 3.64,-3.64 2.02,0 3.65,1.63 3.65,3.64"
       style="fill:#000000;fill-opacity:1;fill-rule:nonzero;stroke:none"
       transform="matrix(0.13333333,0,0,-0.13333333,1672,1056)" />
    <path
       id="path236"
       d="m 2699.56,7039.94 c 0,12.07 -9.79,21.86 -21.87,21.86 -12.07,0 -21.86,-9.79 -21.86,-21.86 0,-12.08 9.79,-21.87 21.86,-21.87 12.08,0 21.87,9.79 21.87,21.87"
       style="fill:#000000;fill-opacity:1;fill-rule:nonzero;stroke:none"
       transform="matrix(0.13333333,0,0,-0.13333333,1672,1056)" />
    <path
       id="path237"
       d="m 0.17625,-4.4165078 h 0.22265625 c 0.0117188,0 0.0351563,0 0.09375,-0.011719 0.3046875,-0.023437 0.41015625,0.09375 0.4921875,0.5039063 0.12890625,0.6210937 0.25781245,1.78125 0.29296875,2.6484375 l 0.046875,0.96093749 c 0.023437,0.421875 0.046875,0.515625 0.140625,0.515625 0.1171875,0 0.3046875,-0.28125 0.703125,-1.03125 0.046875,-0.1171875 0.2695312,-0.50390629 0.5976562,-1.07812499 L 3.73875,-3.6196328 4.0551562,-0.12744531 c 0.023437,0.29296875 0.046875,0.328125 0.1171875,0.328125 0.09375,0 0.1992188,-0.1171875 0.4921875,-0.46875 C 4.67625,-0.27978906 4.723125,-0.33838281 4.77,-0.39697656 6.2582812,-2.1782266 7.0903125,-3.5493203 7.0903125,-4.2524453 c 0,-0.328125 -0.2460938,-0.5625 -0.5742188,-0.5625 -0.2578125,0 -0.421875,0.140625 -0.421875,0.3632812 0,0.140625 0.046875,0.234375 0.2226563,0.3984375 0.1757812,0.1640625 0.2460937,0.2695313 0.2460937,0.3984375 0,0.46875 -0.375,1.0664063 -1.8046875,2.84765629 L 4.4067187,-4.6508828 c 0,-0.1289063 -0.023437,-0.1640625 -0.082031,-0.1640625 -0.058594,0 -0.09375,0.023437 -0.1523438,0.1171875 L 2.0746875,-1.3813516 C 2.0395312,-2.1430703 1.9223437,-3.2915078 1.8051562,-4.0532266 1.6879687,-4.7329141 1.6645312,-4.8149453 1.535625,-4.8149453 c -0.070312,0 -0.1875,0.023437 -0.328125,0.070312 -0.1289063,0.046875 -0.38671875,0.09375 -0.75,0.140625 -0.046875,0 -0.15234375,0.023437 -0.28125,0.046875 z m 0,0"
       style="fill:#000000;fill-opacity:1;fill-rule:nonzero;stroke:none"
       aria-label="w"
       transform="matrix(1.3333333,0,0,1.3333333,2018.14,128.36133)" />
    <path
       id="path238"
       d="m 2262.28,7039.94 c 0,12.07 -9.78,21.86 -21.86,21.86 -12.07,0 -21.86,-9.79 -21.86,-21.86 0,-12.08 9.79,-21.87 21.86,-21.87 12.08,0 21.86,9.79 21.86,21.87"
       style="fill:#000000;fill-opacity:1;fill-rule:nonzero;stroke:none"
       transform="matrix(0.13333333,0,0,-0.13333333,1672,1056)" />
    <path
       id="path239"
       d="m 5.0390469,-1.2758828 c -0.5625,0.70312499 -0.7265625,0.86718749 -0.9023438,0.86718749 -0.082031,0 -0.1289062,-0.0703125 -0.1289062,-0.1875 0,-0.0703125 0,-0.0703125 0.2109375,-0.85546879 L 5.0859219,-4.7211953 H 4.2773281 c -0.6210937,1.6992187 -0.703125,1.8632812 -1.2070312,2.671875 -0.65625,1.03125 -1.1953125,1.59374999 -1.5351563,1.59374999 -0.140625,0 -0.234375,-0.1171875 -0.234375,-0.28125 0,-0.0351563 0,-0.0585938 0.011719,-0.09375 l 0.9960937,-3.97265629 -0.035156,-0.011719 c -0.6210938,0.140625 -1.0195313,0.2109375 -1.64062503,0.2929687 v 0.1523438 c 0.42187503,0 0.43359373,0.011719 0.53906253,0.058594 0.058594,0.023437 0.1171875,0.1289063 0.1171875,0.1992188 0,0.09375 -0.058594,0.3632812 -0.1523438,0.7382812 l -0.39843748,1.546875 c -0.19921875,0.7734375 -0.28125,1.14843754 -0.28125,1.34765629 0,0.3984375 0.19921875,0.59765625 0.58593748,0.59765625 0.7734375,0 1.3476563,-0.5859375 2.6132813,-2.69531254 -0.3164063,1.171875 -0.4921875,1.92187504 -0.4921875,2.15625004 0,0.328125 0.1875,0.515625 0.515625,0.515625 0.515625,0 0.7734375,-0.2109375 1.5117187,-1.27734374 z m 0,0"
       style="fill:#000000;fill-opacity:1;fill-rule:nonzero;stroke:none"
       aria-label="u"
       transform="matrix(1.3333333,0,0,1.3333333,1973.4453,128.36133)" />
    <path
       id="path240"
       d="m 1267.49,6996.21 c 0,2.01 -1.63,3.64 -3.64,3.64 -2.01,0 -3.64,-1.63 -3.64,-3.64 0,-2.01 1.63,-3.65 3.64,-3.65 2.01,0 3.64,1.64 3.64,3.65"
       style="fill:#000000;fill-opacity:1;fill-rule:nonzero;stroke:none"
       transform="matrix(0.13333333,0,0,-0.13333333,1672,1056)" />
    <path
       id="path241"
       d="m 1289.36,7039.94 c 0,2.01 -1.63,3.64 -3.65,3.64 -2.01,0 -3.64,-1.63 -3.64,-3.64 0,-2.02 1.63,-3.65 3.64,-3.65 2.02,0 3.65,1.63 3.65,3.65"
       style="fill:#000000;fill-opacity:1;fill-rule:nonzero;stroke:none"
       transform="matrix(0.13333333,0,0,-0.13333333,1672,1056)" />
    <path
       id="path242"
       d="m 1267.49,7083.66 c 0,2.01 -1.63,3.65 -3.64,3.65 -2.01,0 -3.64,-1.64 -3.64,-3.65 0,-2.01 1.63,-3.64 3.64,-3.64 2.01,0 3.64,1.63 3.64,3.64"
       style="fill:#000000;fill-opacity:1;fill-rule:nonzero;stroke:none"
       transform="matrix(0.13333333,0,0,-0.13333333,1672,1056)" />
    <path
       id="path243"
       d="m 742.767,6996.21 c 0,2.01 -1.632,3.64 -3.644,3.64 -2.012,0 -3.644,-1.63 -3.644,-3.64 0,-2.01 1.632,-3.65 3.644,-3.65 2.012,0 3.644,1.64 3.644,3.65"
       style="fill:#000000;fill-opacity:1;fill-rule:nonzero;stroke:none"
       transform="matrix(0.13333333,0,0,-0.13333333,1672,1056)" />
    <path
       id="path244"
       d="m 742.767,7083.66 c 0,2.01 -1.632,3.65 -3.644,3.65 -2.012,0 -3.644,-1.64 -3.644,-3.65 0,-2.01 1.632,-3.64 3.644,-3.64 2.012,0 3.644,1.63 3.644,3.64"
       style="fill:#000000;fill-opacity:1;fill-rule:nonzero;stroke:none"
       transform="matrix(0.13333333,0,0,-0.13333333,1672,1056)" />
    <path
       id="path245"
       d="m 1241.99,7039.94 c 0,12.07 -9.79,21.86 -21.87,21.86 -12.07,0 -21.86,-9.79 -21.86,-21.86 0,-12.08 9.79,-21.87 21.86,-21.87 12.08,0 21.87,9.79 21.87,21.87"
       style="fill:#000000;fill-opacity:1;fill-rule:nonzero;stroke:none"
       transform="matrix(0.13333333,0,0,-0.13333333,1672,1056)" />
    <path
       id="path246"
       d="m 0.1754375,-4.4165078 h 0.22265625 c 0.0117188,0 0.0351563,0 0.09375,-0.011719 0.3046875,-0.023437 0.41015625,0.09375 0.4921875,0.5039063 C 1.1129375,-3.3032268 1.2418438,-2.1430705 1.277,-1.275883 l 0.046875,0.96093749 c 0.023437,0.421875 0.046875,0.515625 0.140625,0.515625 0.1171875,0 0.3046875,-0.28125 0.703125,-1.03125 C 2.2145,-0.94775781 2.4371563,-1.3344766 2.7652813,-1.9086953 l 0.9726562,-1.7109375 0.3164063,3.49218749 c 0.023437,0.29296875 0.046875,0.328125 0.1171875,0.328125 0.09375,0 0.1992187,-0.1171875 0.4921875,-0.46875 0.011719,-0.0117188 0.058594,-0.0703125 0.1054687,-0.12890625 C 6.2574688,-2.1782266 7.0895,-3.5493203 7.0895,-4.2524453 c 0,-0.328125 -0.2460937,-0.5625 -0.5742187,-0.5625 -0.2578125,0 -0.421875,0.140625 -0.421875,0.3632812 0,0.140625 0.046875,0.234375 0.2226562,0.3984375 0.1757813,0.1640625 0.2460938,0.2695313 0.2460938,0.3984375 0,0.46875 -0.375,1.0664063 -1.8046875,2.84765629 L 4.4059063,-4.6508828 c 0,-0.1289063 -0.023437,-0.1640625 -0.082031,-0.1640625 -0.058594,0 -0.09375,0.023437 -0.1523437,0.1171875 L 2.073875,-1.3813516 C 2.0387188,-2.1430703 1.9215313,-3.2915078 1.8043438,-4.0532266 1.6871563,-4.7329141 1.6637188,-4.8149453 1.5348125,-4.8149453 c -0.070312,0 -0.1875,0.023437 -0.328125,0.070312 -0.1289062,0.046875 -0.38671875,0.09375 -0.75,0.140625 -0.046875,0 -0.15234375,0.023437 -0.28125,0.046875 z m 0,0"
       style="fill:#000000;fill-opacity:1;fill-rule:nonzero;stroke:none"
       aria-label="w"
       transform="matrix(1.3333333,0,0,1.3333333,1823.7973,128.36133)" />
    <path
       id="path247"
       d="m 1023.35,7127.39 c 0,12.07 -9.79,21.86 -21.86,21.86 -12.079,0 -21.868,-9.79 -21.868,-21.86 0,-12.08 9.789,-21.86 21.868,-21.86 12.07,0 21.86,9.78 21.86,21.86"
       style="fill:#000000;fill-opacity:1;fill-rule:nonzero;stroke:none"
       transform="matrix(0.13333333,0,0,-0.13333333,1672,1056)" />
    <path
       id="path248"
       d="m 0.23414063,-4.4069609 c 0.1171875,-0.011719 0.19921875,-0.011719 0.328125,-0.011719 0.421875,0 0.52734377,0.1875 0.67968747,1.1953125 0.1171875,0.75 0.2460938,2.40234376 0.2460938,3.03515626 0,0.3046875 0.023437,0.38671875 0.09375,0.38671875 0.28125,0 1.2890625,-1.16015625 2.4140625,-2.71875001 0.375,-0.5390625 0.65625,-1.2539062 0.65625,-1.6523437 0,-0.3515625 -0.28125,-0.6445313 -0.609375,-0.6445313 -0.234375,0 -0.3984375,0.140625 -0.3984375,0.3632813 0,0.1757812 0.058594,0.3046875 0.2578125,0.4804687 0.140625,0.140625 0.1992187,0.2226563 0.1992187,0.328125 0,0.5039063 -0.7265625,1.7226563 -1.5,2.53125 l -0.3398437,0.35156251 c -0.070312,-1.54687501 -0.140625,-2.10937501 -0.28125,-2.91796871 -0.2226563,-1.125 -0.2226563,-1.1367188 -0.3164063,-1.1367188 -0.058594,0 -0.1289062,0 -0.2226562,0.035156 -0.1992188,0.058594 -0.79687502,0.1640625 -1.20703127,0.234375 z m 0,0"
       style="fill:#000000;fill-opacity:1;fill-rule:nonzero;stroke:none"
       aria-label="v"
       transform="matrix(1.3333333,0,0,1.3333333,1802.43,119.26267)" />
    <path
       id="path249"
       d="m 804.714,7039.94 c 0,12.07 -9.789,21.86 -21.864,21.86 -12.075,0 -21.863,-9.79 -21.863,-21.86 0,-12.08 9.788,-21.87 21.863,-21.87 12.075,0 21.864,9.79 21.864,21.87"
       style="fill:#000000;fill-opacity:1;fill-rule:nonzero;stroke:none"
       transform="matrix(0.13333333,0,0,-0.13333333,1672,1056)" />
  </g>
</svg>
