<?xml version="1.0" encoding="UTF-8" standalone="no"?>
<!-- Created with Inkscape (http://www.inkscape.org/) -->

<svg
   version="1.1"
   id="svg1"
   width="374.53333"
   height="258.79999"
   viewBox="0 0 374.53333 258.79999"
   xmlns="http://www.w3.org/2000/svg"
   xmlns:svg="http://www.w3.org/2000/svg">
  <defs
     id="defs1" />
  <g
     id="g1"
     transform="translate(-247.06667,-629.46667)">
    <path
       id="path291"
       d="m 3883.35,2764.53 -561.58,357.36"
       style="fill:none;stroke:#000000;stroke-width:8.16846;stroke-linecap:butt;stroke-linejoin:miter;stroke-miterlimit:10;stroke-dasharray:none;stroke-opacity:1"
       transform="matrix(0.13333333,0,0,-0.13333333,0,1056)" />
    <path
       id="path292"
       d="m 2760.19,2764.53 561.58,357.36"
       style="fill:none;stroke:#000000;stroke-width:8.16846;stroke-linecap:butt;stroke-linejoin:miter;stroke-miterlimit:10;stroke-dasharray:none;stroke-opacity:1"
       transform="matrix(0.13333333,0,0,-0.13333333,0,1056)" />
    <path
       id="path293"
       d="m 4202.43,2407.15 -319.08,357.38"
       style="fill:none;stroke:#000000;stroke-width:8.16846;stroke-linecap:butt;stroke-linejoin:miter;stroke-miterlimit:10;stroke-dasharray:none;stroke-opacity:1"
       transform="matrix(0.13333333,0,0,-0.13333333,0,1056)" />
    <path
       id="path294"
       d="m 3564.26,2407.15 319.09,357.38"
       style="fill:none;stroke:#000000;stroke-width:8.16846;stroke-linecap:butt;stroke-linejoin:miter;stroke-miterlimit:10;stroke-dasharray:none;stroke-opacity:1"
       transform="matrix(0.13333333,0,0,-0.13333333,0,1056)" />
    <path
       id="path295"
       d="m 4483.22,2049.79 -280.79,357.36"
       style="fill:none;stroke:#000000;stroke-width:8.16846;stroke-linecap:butt;stroke-linejoin:miter;stroke-miterlimit:10;stroke-dasharray:none;stroke-opacity:1"
       transform="matrix(0.13333333,0,0,-0.13333333,0,1056)" />
    <path
       id="path296"
       d="m 3921.64,2049.79 280.79,357.36"
       style="fill:none;stroke:#000000;stroke-width:8.16846;stroke-linecap:butt;stroke-linejoin:miter;stroke-miterlimit:10;stroke-dasharray:none;stroke-opacity:1"
       transform="matrix(0.13333333,0,0,-0.13333333,0,1056)" />
    <path
       id="path297"
       d="m 4585.32,1692.42 -102.1,357.37"
       style="fill:none;stroke:#000000;stroke-width:8.16846;stroke-linecap:butt;stroke-linejoin:miter;stroke-miterlimit:10;stroke-dasharray:none;stroke-opacity:1"
       transform="matrix(0.13333333,0,0,-0.13333333,0,1056)" />
    <path
       id="path298"
       d="m 4381.11,1692.42 102.11,357.37"
       style="fill:none;stroke:#000000;stroke-width:8.16846;stroke-linecap:butt;stroke-linejoin:miter;stroke-miterlimit:10;stroke-dasharray:none;stroke-opacity:1"
       transform="matrix(0.13333333,0,0,-0.13333333,0,1056)" />
    <path
       id="path299"
       d="m 4074.79,1692.42 -153.15,357.37"
       style="fill:none;stroke:#000000;stroke-width:8.16846;stroke-linecap:butt;stroke-linejoin:miter;stroke-miterlimit:10;stroke-dasharray:none;stroke-opacity:1"
       transform="matrix(0.13333333,0,0,-0.13333333,0,1056)" />
    <path
       id="path300"
       d="m 3768.48,1692.42 153.16,357.37"
       style="fill:none;stroke:#000000;stroke-width:8.16846;stroke-linecap:butt;stroke-linejoin:miter;stroke-miterlimit:10;stroke-dasharray:none;stroke-opacity:1"
       transform="matrix(0.13333333,0,0,-0.13333333,0,1056)" />
    <path
       id="path301"
       d="m 4176.9,1335.05 -102.11,357.37"
       style="fill:none;stroke:#000000;stroke-width:8.16846;stroke-linecap:butt;stroke-linejoin:miter;stroke-miterlimit:10;stroke-dasharray:none;stroke-opacity:1"
       transform="matrix(0.13333333,0,0,-0.13333333,0,1056)" />
    <path
       id="path302"
       d="m 3972.69,1335.05 102.1,357.37"
       style="fill:none;stroke:#000000;stroke-width:8.16846;stroke-linecap:butt;stroke-linejoin:miter;stroke-miterlimit:10;stroke-dasharray:none;stroke-opacity:1"
       transform="matrix(0.13333333,0,0,-0.13333333,0,1056)" />
    <path
       id="path303"
       d="m 3104.79,2407.15 -344.6,357.38"
       style="fill:none;stroke:#000000;stroke-width:8.16846;stroke-linecap:butt;stroke-linejoin:miter;stroke-miterlimit:10;stroke-dasharray:none;stroke-opacity:1"
       transform="matrix(0.13333333,0,0,-0.13333333,0,1056)" />
    <path
       id="path304"
       d="m 2415.58,2407.15 344.61,357.38"
       style="fill:none;stroke:#000000;stroke-width:8.16846;stroke-linecap:butt;stroke-linejoin:miter;stroke-miterlimit:10;stroke-dasharray:none;stroke-opacity:1"
       transform="matrix(0.13333333,0,0,-0.13333333,0,1056)" />
    <path
       id="path305"
       d="m 3257.95,2049.79 -153.16,357.36"
       style="fill:none;stroke:#000000;stroke-width:8.16846;stroke-linecap:butt;stroke-linejoin:miter;stroke-miterlimit:10;stroke-dasharray:none;stroke-opacity:1"
       transform="matrix(0.13333333,0,0,-0.13333333,0,1056)" />
    <path
       id="path306"
       d="m 2951.64,2049.79 153.15,357.36"
       style="fill:none;stroke:#000000;stroke-width:8.16846;stroke-linecap:butt;stroke-linejoin:miter;stroke-miterlimit:10;stroke-dasharray:none;stroke-opacity:1"
       transform="matrix(0.13333333,0,0,-0.13333333,0,1056)" />
    <path
       id="path307"
       d="m 3360.06,1692.42 -102.11,357.37"
       style="fill:none;stroke:#000000;stroke-width:8.16846;stroke-linecap:butt;stroke-linejoin:miter;stroke-miterlimit:10;stroke-dasharray:none;stroke-opacity:1"
       transform="matrix(0.13333333,0,0,-0.13333333,0,1056)" />
    <path
       id="path308"
       d="m 3155.84,1692.42 102.11,357.37"
       style="fill:none;stroke:#000000;stroke-width:8.16846;stroke-linecap:butt;stroke-linejoin:miter;stroke-miterlimit:10;stroke-dasharray:none;stroke-opacity:1"
       transform="matrix(0.13333333,0,0,-0.13333333,0,1056)" />
    <path
       id="path309"
       d="m 2645.32,2049.79 -229.74,357.36"
       style="fill:none;stroke:#000000;stroke-width:8.16846;stroke-linecap:butt;stroke-linejoin:miter;stroke-miterlimit:10;stroke-dasharray:none;stroke-opacity:1"
       transform="matrix(0.13333333,0,0,-0.13333333,0,1056)" />
    <path
       id="path310"
       d="m 2185.84,2049.79 229.74,357.36"
       style="fill:none;stroke:#000000;stroke-width:8.16846;stroke-linecap:butt;stroke-linejoin:miter;stroke-miterlimit:10;stroke-dasharray:none;stroke-opacity:1"
       transform="matrix(0.13333333,0,0,-0.13333333,0,1056)" />
    <path
       id="path311"
       d="m 2747.42,1692.42 -102.1,357.37"
       style="fill:none;stroke:#000000;stroke-width:8.16846;stroke-linecap:butt;stroke-linejoin:miter;stroke-miterlimit:10;stroke-dasharray:none;stroke-opacity:1"
       transform="matrix(0.13333333,0,0,-0.13333333,0,1056)" />
    <path
       id="path312"
       d="m 2543.21,1692.42 102.11,357.37"
       style="fill:none;stroke:#000000;stroke-width:8.16846;stroke-linecap:butt;stroke-linejoin:miter;stroke-miterlimit:10;stroke-dasharray:none;stroke-opacity:1"
       transform="matrix(0.13333333,0,0,-0.13333333,0,1056)" />
    <path
       id="path313"
       d="m 2339,1692.42 -153.16,357.37"
       style="fill:none;stroke:#000000;stroke-width:8.16846;stroke-linecap:butt;stroke-linejoin:miter;stroke-miterlimit:10;stroke-dasharray:none;stroke-opacity:1"
       transform="matrix(0.13333333,0,0,-0.13333333,0,1056)" />
    <path
       id="path314"
       d="m 2032.68,1692.42 153.16,357.37"
       style="fill:none;stroke:#000000;stroke-width:8.16846;stroke-linecap:butt;stroke-linejoin:miter;stroke-miterlimit:10;stroke-dasharray:none;stroke-opacity:1"
       transform="matrix(0.13333333,0,0,-0.13333333,0,1056)" />
    <path
       id="path315"
       d="m 2134.79,1335.05 -102.11,357.37"
       style="fill:none;stroke:#000000;stroke-width:8.16846;stroke-linecap:butt;stroke-linejoin:miter;stroke-miterlimit:10;stroke-dasharray:none;stroke-opacity:1"
       transform="matrix(0.13333333,0,0,-0.13333333,0,1056)" />
    <path
       id="path316"
       d="m 1930.58,1335.05 102.1,357.37"
       style="fill:none;stroke:#000000;stroke-width:8.16846;stroke-linecap:butt;stroke-linejoin:miter;stroke-miterlimit:10;stroke-dasharray:none;stroke-opacity:1"
       transform="matrix(0.13333333,0,0,-0.13333333,0,1056)" />
    <path
       id="path317"
       d="m 3245,3045 h 154 v 154 h -154 z"
       style="fill:#000000;fill-opacity:1;fill-rule:nonzero;stroke:none"
       transform="matrix(0.13333333,0,0,-0.13333333,0,1056)" />
    <path
       id="path318"
       d="m 3252,3052 h 139 v 139 h -139 z"
       style="fill:#cccccc;fill-opacity:1;fill-rule:nonzero;stroke:none"
       transform="matrix(0.13333333,0,0,-0.13333333,0,1056)" />
    <path
       id="path319"
       d="m 3.6555078,-1.1134141 c -0.7382812,0.59765629 -1.0546875,0.76171879 -1.4882812,0.76171879 -0.5859375,0 -0.9609375,-0.36328125 -0.9609375,-0.91406249 0,-0.1523438 0.023437,-0.3046875 0.09375,-0.6328125 l 0.2929687,-0.035156 c 1.5351563,-0.2226562 2.6132813,-0.9960937 2.6132813,-1.875 0,-0.421875 -0.3046875,-0.6914062 -0.8203125,-0.6914062 -1.4648438,0 -3.07031254,1.6875 -3.07031254,3.2109375 0,0.83203124 0.55078125,1.40624999 1.34765624,1.40624999 0.7265625,0 1.5117188,-0.421875 2.109375,-1.1015625 z m -2.109375,-1.453125 c 0.3515625,-0.9140625 1.1015625,-1.6992187 1.6289063,-1.6992187 0.2109375,0 0.3515625,0.1640625 0.3515625,0.3984375 0,0.3164062 -0.1875,0.6796875 -0.5039063,0.984375 -0.375,0.3632812 -0.7734375,0.5507812 -1.640625,0.7617187 z m 7.6875,1.3710938 -0.2226562,0.26953124 c -0.2929688,0.375 -0.4804688,0.5390625 -0.6210938,0.5390625 -0.082031,0 -0.1640625,-0.0820313 -0.1640625,-0.1640625 0,-0.0703125 0,-0.0703125 0.140625,-0.64453124 l 0.5859375,-2.0976563 c 0.046875,-0.2226562 0.09375,-0.4453125 0.09375,-0.5859375 0,-0.3632812 -0.28125,-0.6210937 -0.6796875,-0.6210937 -0.6445312,0 -1.2890625,0.609375 -2.34375,2.25 l 0.6914063,-2.2265625 -0.035156,-0.023437 c -0.5507812,0.1054687 -0.7617187,0.1523437 -1.6523437,0.3164062 v 0.1640625 c 0.515625,0.011719 0.65625,0.070312 0.65625,0.2695313 0,0.070312 -0.011719,0.1289062 -0.023437,0.1757812 L 4.6750391,-1.328125e-4 H 5.4484766 C 5.9172266,-1.6173203 6.0109766,-1.8399766 6.4680078,-2.5313828 c 0.609375,-0.9375 1.125,-1.453125 1.5117188,-1.453125 0.1523437,0 0.234375,0.1171875 0.234375,0.3046875 0,0.1171875 -0.058594,0.4570312 -0.140625,0.7734375 l -0.4453125,1.6757812 c -0.1289063,0.52734379 -0.1640625,0.66796879 -0.1640625,0.77343754 0,0.38671875 0.140625,0.55078125 0.4804687,0.55078125 0.4570313,0 0.7265625,-0.2109375 1.4296875,-1.16015629 z m 0,0"
       style="fill:#000000;fill-opacity:1;fill-rule:nonzero;stroke:none"
       aria-label="en"
       transform="matrix(1.3333333,0,0,1.3333333,436.65333,644.28533)" />
    <path
       id="path320"
       d="m 3959.93,2764.53 c 0,42.29 -34.29,76.58 -76.58,76.58 -42.3,0 -76.58,-34.29 -76.58,-76.58 0,-42.3 34.28,-76.58 76.58,-76.58 42.29,0 76.58,34.28 76.58,76.58"
       style="fill:#000000;fill-opacity:1;fill-rule:nonzero;stroke:none"
       transform="matrix(0.13333333,0,0,-0.13333333,0,1056)" />
    <path
       id="path321"
       d="m 3952.27,2764.53 c 0,38.06 -30.86,68.92 -68.92,68.92 -38.07,0 -68.92,-30.86 -68.92,-68.92 0,-38.07 30.85,-68.93 68.92,-68.93 38.06,0 68.92,30.86 68.92,68.93"
       style="fill:#cccccc;fill-opacity:1;fill-rule:nonzero;stroke:none"
       transform="matrix(0.13333333,0,0,-0.13333333,0,1056)" />
    <path
       id="path322"
       d="m 2.2608359,-1.1599609 c -0.2460937,0.32812496 -0.3164062,0.41015621 -0.4101562,0.51562496 -0.1757813,0.17578125 -0.328125,0.28125 -0.421875,0.28125 -0.082031,0 -0.1640625,-0.0820313 -0.1640625,-0.15234375 0,-0.10546875 0.035156,-0.2578125 0.1054687,-0.45703125 0,-0.0234375 0.023437,-0.09375 0.046875,-0.17578126 v -0.023437 l 0.011719,-0.023437 0.9023437,-3.28125 -0.035156,-0.023437 c -1.03125,0.1875 -1.2304688,0.2226563 -1.62890626,0.2578125 v 0.1640625 c 0.53906246,0 0.63281246,0.035156 0.63281246,0.2460938 0,0.070312 -0.023437,0.234375 -0.082031,0.4453125 l -0.49218751,1.8046875 c -0.1640625,0.59765621 -0.22265625,0.91406246 -0.22265625,1.11328121 0,0.375 0.1640625,0.5859375 0.46875,0.5859375 0.46874996,0 0.84374996,-0.31640625 1.42968746,-1.17187501 z m -0.082031,-5.5195313 c -0.2695313,0 -0.4804688,0.234375 -0.4804688,0.5507813 0,0.3164062 0.1992188,0.5390625 0.4921875,0.5390625 0.2695313,0 0.5039063,-0.234375 0.5039063,-0.5273438 0,-0.2929687 -0.234375,-0.5625 -0.515625,-0.5625 z m 5.3583984,5.484375 -0.2226562,0.26953126 c -0.2929688,0.375 -0.4804688,0.5390625 -0.6210938,0.5390625 -0.082031,0 -0.1640625,-0.0820313 -0.1640625,-0.1640625 0,-0.0703125 0,-0.0703125 0.140625,-0.64453126 l 0.5859375,-2.0976562 c 0.046875,-0.2226563 0.09375,-0.4453125 0.09375,-0.5859375 0,-0.3632813 -0.28125,-0.6210938 -0.6796875,-0.6210938 -0.6445312,0 -1.2890625,0.609375 -2.34375,2.25 l 0.6914063,-2.2265625 -0.035156,-0.023437 c -0.5507812,0.1054688 -0.7617187,0.1523438 -1.6523437,0.3164063 v 0.1640625 c 0.515625,0.011719 0.65625,0.070312 0.65625,0.2695312 0,0.070312 -0.011719,0.1289063 -0.023437,0.1757813 L 2.9786094,1.953125e-4 H 3.7520469 C 4.2207969,-1.6169922 4.3145469,-1.8396484 4.7715781,-2.5310547 c 0.609375,-0.9375 1.125,-1.453125 1.5117188,-1.453125 0.1523437,0 0.234375,0.1171875 0.234375,0.3046875 0,0.1171875 -0.058594,0.4570313 -0.140625,0.7734375 l -0.4453125,1.6757813 c -0.1289063,0.52734371 -0.1640625,0.66796871 -0.1640625,0.77343746 0,0.38671875 0.140625,0.55078125 0.4804687,0.55078125 0.4570313,0 0.7265625,-0.2109375 1.4296875,-1.16015621 z m 0,0"
       style="fill:#000000;fill-opacity:1;fill-rule:nonzero;stroke:none"
       aria-label="in"
       transform="matrix(1.3333333,0,0,1.3333333,512.66133,691.93333)" />
    <path
       id="path323"
       d="m 4125,2330 h 155 v 154 h -155 z"
       style="fill:#000000;fill-opacity:1;fill-rule:nonzero;stroke:none"
       transform="matrix(0.13333333,0,0,-0.13333333,0,1056)" />
    <path
       id="path324"
       d="m 4133,2338 h 139 v 139 h -139 z"
       style="fill:#cccccc;fill-opacity:1;fill-rule:nonzero;stroke:none"
       transform="matrix(0.13333333,0,0,-0.13333333,0,1056)" />
    <path
       id="path325"
       d="m 2.2610625,-1.1587031 c -0.2460937,0.32812497 -0.3164062,0.41015622 -0.4101562,0.51562497 -0.1757813,0.17578125 -0.328125,0.28125 -0.421875,0.28125 -0.082031,0 -0.1640625,-0.0820313 -0.1640625,-0.15234375 0,-0.10546875 0.035156,-0.2578125 0.1054687,-0.45703125 0,-0.0234375 0.023437,-0.09375 0.046875,-0.17578127 v -0.023437 l 0.011719,-0.023437 0.9023437,-3.28125 -0.035156,-0.023437 c -1.03125,0.1875 -1.2304688,0.2226563 -1.6289063,0.2578125 v 0.1640625 c 0.5390625,0 0.6328125,0.035156 0.6328125,0.2460938 0,0.070312 -0.023437,0.234375 -0.082031,0.4453125 l -0.49218815,1.804686 C 0.56184375,-0.98292188 0.50325,-0.66651563 0.50325,-0.46729688 c 0,0.375 0.1640625,0.5859375 0.46875,0.5859375 0.46875,0 0.84375,-0.31640625 1.4296875,-1.17187502 z m -0.082031,-5.5195313 c -0.2695313,0 -0.4804688,0.234375 -0.4804688,0.5507813 0,0.3164062 0.1992188,0.5390625 0.4921875,0.5390625 0.2695313,0 0.5039063,-0.234375 0.5039063,-0.5273438 0,-0.2929687 -0.234375,-0.5625 -0.515625,-0.5625 z m 5.3583984,5.484375 -0.2226563,0.26953127 c -0.2929687,0.375 -0.4804687,0.5390625 -0.6210937,0.5390625 -0.082031,0 -0.1640625,-0.0820313 -0.1640625,-0.1640625 0,-0.0703125 0,-0.0703125 0.140625,-0.64453127 l 0.5859375,-2.0976562 c 0.046875,-0.2226563 0.09375,-0.4453125 0.09375,-0.5859375 0,-0.3632813 -0.28125,-0.6210938 -0.6796875,-0.6210938 -0.6445313,0 -1.2890625,0.609375 -2.34375,2.25 l 0.6914062,-2.2265625 -0.035156,-0.023437 c -0.5507813,0.1054688 -0.7617188,0.1523438 -1.6523438,0.3164063 v 0.1640625 c 0.515625,0.011719 0.65625,0.070313 0.65625,0.2695312 0,0.070312 -0.011719,0.1289063 -0.023437,0.1757813 l -0.984375,3.57421872 h 0.7734375 c 0.46875,-1.61718752 0.5625,-1.83984372 1.0195313,-2.53125002 0.609375,-0.9375 1.125,-1.453125 1.5117187,-1.453125 0.1523438,0 0.234375,0.1171875 0.234375,0.3046875 0,0.1171875 -0.058594,0.4570313 -0.140625,0.7734375 l -0.4453125,1.6757813 c -0.1289062,0.52734372 -0.1640625,0.66796872 -0.1640625,0.77343747 0,0.38671875 0.140625,0.55078125 0.4804688,0.55078125 0.4570312,0 0.7265625,-0.2109375 1.4296875,-1.16015622 z m 0,0"
       style="fill:#000000;fill-opacity:1;fill-rule:nonzero;stroke:none"
       aria-label="in"
       transform="matrix(1.3333333,0,0,1.3333333,555.204,739.584)" />
    <path
       id="path326"
       d="m 4559.79,2049.79 c 0,42.29 -34.28,76.58 -76.57,76.58 -42.3,0 -76.58,-34.29 -76.58,-76.58 0,-42.3 34.28,-76.58 76.58,-76.58 42.29,0 76.57,34.28 76.57,76.58"
       style="fill:#000000;fill-opacity:1;fill-rule:nonzero;stroke:none"
       transform="matrix(0.13333333,0,0,-0.13333333,0,1056)" />
    <path
       id="path327"
       d="m 4552.14,2049.79 c 0,38.06 -30.86,68.92 -68.92,68.92 -38.07,0 -68.93,-30.86 -68.93,-68.92 0,-38.07 30.86,-68.92 68.93,-68.92 38.06,0 68.92,30.85 68.92,68.92"
       style="fill:#cccccc;fill-opacity:1;fill-rule:nonzero;stroke:none"
       transform="matrix(0.13333333,0,0,-0.13333333,0,1056)" />
    <path
       id="path328"
       d="m 7.0310703,-1.1964609 c -0.1054687,0.1289062 -0.1875,0.22265621 -0.2109375,0.26953121 -0.2929687,0.36328125 -0.5039062,0.5390625 -0.65625,0.5390625 -0.082031,0 -0.1289062,-0.0585938 -0.1289062,-0.1640625 0,-0.046875 0.035156,-0.2109375 0.09375,-0.45703121 l 0.703125,-2.5664063 c 0.011719,-0.035156 0.023437,-0.2226562 0.023437,-0.28125 0,-0.375 -0.2460938,-0.6445312 -0.5976563,-0.6445312 -0.1992187,0 -0.3984375,0.070312 -0.6445312,0.2226562 -0.5039063,0.328125 -0.9140625,0.8203125 -1.6171875,1.9453125 0.2460937,-0.7851562 0.3984375,-1.359375 0.3984375,-1.5585937 0,-0.3515625 -0.234375,-0.609375 -0.5742188,-0.609375 -0.6210937,0 -1.3359375,0.6679687 -2.2734375,2.15625 l 0.5859375,-2.1328125 -0.035156,-0.023437 c -0.5625,0.1171875 -0.7851563,0.1640625 -1.62890629,0.3164062 v 0.1640625 h 0.2578125 c 0.2578125,0 0.39843749,0.070312 0.39843749,0.2226563 0,0.1171875 -0.23437499,1.0429687 -0.60937499,2.3320312 -0.234375,0.84375001 -0.2578125,0.94921876 -0.3984375,1.46484376 h 0.7734375 C 1.3826328,-1.6183359 1.5349766,-2.0050547 1.8748203,-2.5323984 c 0.5742188,-0.8671875 1.1835938,-1.4414063 1.5351563,-1.4414063 0.1289062,0 0.1992187,0.09375 0.1992187,0.2578125 0,0.09375 -0.328125,1.3242188 -0.9609375,3.71484376 h 0.7617188 c 0.4101562,-1.59374996 0.609375,-2.09765626 1.1367187,-2.82421876 0.4921875,-0.6914062 1.0078125,-1.1484375 1.3007813,-1.1484375 0.1171875,0 0.2109375,0.1054688 0.2109375,0.2109375 0,0.058594 -0.023437,0.1757813 -0.082031,0.3632813 l -0.5859375,2.34375 c -0.09375,0.38671871 -0.1289062,0.57421871 -0.1289062,0.67968746 0,0.3046875 0.140625,0.46875 0.3984375,0.46875 0.4804687,0 0.9375,-0.33984375 1.4765625,-1.08984375 l 0.046875,-0.0703125 z m 5.0390627,0 -0.222656,0.26953121 c -0.292969,0.375 -0.480469,0.5390625 -0.621094,0.5390625 -0.08203,0 -0.164063,-0.0820313 -0.164063,-0.1640625 0,-0.0703125 0,-0.0703125 0.140625,-0.64453121 l 0.585938,-2.0976563 c 0.04687,-0.2226562 0.09375,-0.4453125 0.09375,-0.5859375 0,-0.3632812 -0.28125,-0.6210937 -0.679688,-0.6210937 -0.644531,0 -1.2890622,0.609375 -2.3437497,2.25 l 0.6914063,-2.2265625 -0.035156,-0.023437 c -0.5507812,0.1054687 -0.7617187,0.1523437 -1.6523437,0.3164062 v 0.1640625 c 0.515625,0.011719 0.65625,0.070312 0.65625,0.2695313 0,0.070312 -0.011719,0.1289062 -0.023437,0.1757812 l -0.984375,3.57421876 h 0.7734375 c 0.46875,-1.61718746 0.5625,-1.83984376 1.0195312,-2.53124996 0.609375,-0.9375 1.1250004,-1.453125 1.5117194,-1.453125 0.152343,0 0.234375,0.1171875 0.234375,0.3046875 0,0.1171875 -0.05859,0.4570312 -0.140625,0.7734375 l -0.445313,1.6757812 c -0.128906,0.52734376 -0.164062,0.66796876 -0.164062,0.77343751 0,0.38671875 0.140625,0.55078125 0.480468,0.55078125 0.457032,0 0.726563,-0.2109375 1.429688,-1.16015626 z m 0,0"
       style="fill:#000000;fill-opacity:1;fill-rule:nonzero;stroke:none"
       aria-label="mn"
       transform="matrix(1.3333333,0,0,1.3333333,589.62133,787.232)" />
    <path
       id="path329"
       d="m 4508,1615 h 154 v 154 h -154 z"
       style="fill:#000000;fill-opacity:1;fill-rule:nonzero;stroke:none"
       transform="matrix(0.13333333,0,0,-0.13333333,0,1056)" />
    <path
       id="path330"
       d="m 4516,1623 h 139 v 139 h -139 z"
       style="fill:#cccccc;fill-opacity:1;fill-rule:nonzero;stroke:none"
       transform="matrix(0.13333333,0,0,-0.13333333,0,1056)" />
    <path
       id="path331"
       d="m 7.0310313,-1.1942031 c -0.1054688,0.1289062 -0.1875,0.22265622 -0.2109375,0.26953122 -0.2929688,0.36328125 -0.5039063,0.5390625 -0.65625,0.5390625 -0.082031,0 -0.1289063,-0.0585938 -0.1289063,-0.1640625 0,-0.046875 0.035156,-0.2109375 0.09375,-0.45703122 l 0.703125,-2.5664063 c 0.011719,-0.035156 0.023437,-0.2226562 0.023437,-0.28125 0,-0.375 -0.2460937,-0.6445312 -0.5976562,-0.6445312 -0.1992188,0 -0.3984375,0.070312 -0.6445313,0.2226562 -0.5039062,0.328125 -0.9140625,0.8203125 -1.6171875,1.9453125 0.2460938,-0.7851562 0.3984375,-1.359375 0.3984375,-1.5585937 0,-0.3515625 -0.234375,-0.609375 -0.5742187,-0.609375 -0.6210938,0 -1.3359375,0.6679687 -2.2734375,2.15625 l 0.5859375,-2.1328125 -0.035156,-0.023437 c -0.5625,0.1171875 -0.7851562,0.1640625 -1.62890625,0.3164062 v 0.1640625 h 0.2578125 c 0.2578125,0 0.39843755,0.070312 0.39843755,0.2226563 0,0.1171875 -0.23437505,1.0429687 -0.60937505,2.3320312 -0.234375,0.84375002 -0.2578125,0.94921877 -0.3984375,1.46484377 h 0.7734375 C 1.3825938,-1.6160781 1.5349375,-2.0027969 1.8747813,-2.5301406 2.449,-3.3973281 3.058375,-3.9715469 3.4099375,-3.9715469 c 0.1289063,0 0.1992188,0.09375 0.1992188,0.2578125 0,0.09375 -0.328125,1.3242188 -0.9609375,3.71484377 h 0.7617187 c 0.4101563,-1.59374997 0.609375,-2.09765627 1.1367188,-2.82421877 0.4921875,-0.6914062 1.0078125,-1.1484375 1.3007812,-1.1484375 0.1171875,0 0.2109375,0.1054688 0.2109375,0.2109375 0,0.058594 -0.023437,0.1757813 -0.082031,0.3632813 l -0.5859375,2.34375 C 5.2966563,-0.66685938 5.2615,-0.47935938 5.2615,-0.37389063 c 0,0.3046875 0.140625,0.46875 0.3984375,0.46875 0.4804688,0 0.9375,-0.33984375 1.4765625,-1.08984375 l 0.046875,-0.0703125 z m 5.0390627,0 -0.222656,0.26953122 c -0.292969,0.375 -0.480469,0.5390625 -0.621094,0.5390625 -0.08203,0 -0.164063,-0.0820313 -0.164063,-0.1640625 0,-0.0703125 0,-0.0703125 0.140625,-0.64453122 l 0.585938,-2.0976563 c 0.04687,-0.2226562 0.09375,-0.4453125 0.09375,-0.5859375 0,-0.3632812 -0.28125,-0.6210937 -0.679688,-0.6210937 -0.644531,0 -1.2890622,0.609375 -2.3437497,2.25 l 0.6914062,-2.2265625 -0.035156,-0.023437 c -0.5507815,0.1054682 -0.761719,0.1523432 -1.652344,0.3164057 v 0.1640625 c 0.515625,0.011719 0.65625,0.070312 0.65625,0.2695313 0,0.070312 -0.011719,0.1289062 -0.023437,0.1757812 L 7.5115,0.00110937 h 0.7734375 c 0.46875,-1.61718747 0.5625,-1.83984377 1.0195313,-2.53124997 0.609375,-0.9375 1.1250002,-1.453125 1.5117192,-1.453125 0.152343,0 0.234375,0.1171875 0.234375,0.3046875 0,0.1171875 -0.05859,0.4570312 -0.140625,0.7734375 l -0.445313,1.6757812 c -0.128906,0.52734377 -0.164062,0.66796877 -0.164062,0.77343752 0,0.38671875 0.140625,0.55078125 0.480468,0.55078125 0.457032,0 0.726563,-0.2109375 1.429688,-1.16015627 z m 0,0"
       style="fill:#000000;fill-opacity:1;fill-rule:nonzero;stroke:none"
       aria-label="mn"
       transform="matrix(1.3333333,0,0,1.3333333,603.23467,834.88133)" />
    <path
       id="path332"
       d="m 4304,1615 h 154 v 154 h -154 z"
       style="fill:#000000;fill-opacity:1;fill-rule:nonzero;stroke:none"
       transform="matrix(0.13333333,0,0,-0.13333333,0,1056)" />
    <path
       id="path333"
       d="m 4312,1623 h 139 v 139 h -139 z"
       style="fill:#cccccc;fill-opacity:1;fill-rule:nonzero;stroke:none"
       transform="matrix(0.13333333,0,0,-0.13333333,0,1056)" />
    <path
       id="path334"
       d="m 2.3326641,-1.2527969 c -0.09375,0.1054688 -0.1875,0.2226563 -0.28125,0.33984377 -0.328125,0.43359375 -0.515625,0.5859375 -0.703125,0.5859375 -0.1054688,0 -0.1523438,-0.0703125 -0.1523438,-0.1875 0,-0.0703125 0.035156,-0.1875 0.082031,-0.3984375 0.011719,-0.0234375 0.023437,-0.0703125 0.023437,-0.09375 l 1.546875,-5.9179688 -0.046875,-0.046875 c -0.609375,0.1289063 -0.9960938,0.2109375 -1.59375,0.28125 v 0.1640625 c 0.4921875,0 0.6914062,0.070312 0.6914062,0.234375 0,0.023437 -0.011719,0.082031 -0.035156,0.1757813 l -1.40625004,5.39062488 c -0.0234375,0.1171875 -0.046875,0.2109375 -0.046875,0.26953125 0,0.36328125 0.17578125,0.57421875 0.50390625,0.57421875 0.52734379,0 0.87890629,-0.3046875 1.54687499,-1.27734368 z m 7.5380859,0.058594 c -0.1054687,0.1289062 -0.1875,0.22265622 -0.2109375,0.26953122 -0.2929687,0.36328125 -0.5039062,0.5390625 -0.65625,0.5390625 -0.082031,0 -0.1289062,-0.0585938 -0.1289062,-0.1640625 0,-0.046875 0.035156,-0.2109375 0.09375,-0.45703122 l 0.703125,-2.5664063 c 0.011719,-0.035156 0.023437,-0.2226562 0.023437,-0.28125 0,-0.375 -0.2460938,-0.6445312 -0.5976563,-0.6445312 -0.1992187,0 -0.3984375,0.070312 -0.6445312,0.2226562 -0.5039063,0.328125 -0.9140625,0.8203125 -1.6171875,1.9453125 0.2460937,-0.7851562 0.3984375,-1.359375 0.3984375,-1.5585937 0,-0.3515625 -0.234375,-0.609375 -0.5742188,-0.609375 -0.6210937,0 -1.3359375,0.6679687 -2.2734375,2.15625 L 4.972312,-4.4754529 4.937156,-4.4988899 C 4.3746563,-4.3817031 4.152,-4.3348281 3.30825,-4.1824844 v 0.1640625 h 0.2578125 c 0.2578125,0 0.3984375,0.070312 0.3984375,0.2226563 0,0.1171875 -0.234375,1.0429687 -0.609375,2.3320312 C 3.12075,-0.61998438 3.0973125,-0.51451563 2.9566875,0.00110937 H 3.730125 C 4.2223125,-1.6160781 4.3746563,-2.0027969 4.7145,-2.5301406 c 0.5742188,-0.8671875 1.1835938,-1.4414063 1.5351563,-1.4414063 0.1289062,0 0.1992187,0.09375 0.1992187,0.2578125 0,0.09375 -0.328125,1.3242188 -0.9609375,3.71484377 H 6.2496563 C 6.6598125,-1.5926406 6.8590313,-2.0965469 7.386375,-2.8231094 c 0.4921875,-0.6914062 1.0078125,-1.1484375 1.3007813,-1.1484375 0.1171875,0 0.2109375,0.1054688 0.2109375,0.2109375 0,0.058594 -0.023437,0.1757813 -0.082031,0.3632813 l -0.5859375,2.34375 c -0.09375,0.38671872 -0.1289062,0.57421872 -0.1289062,0.67968747 0,0.3046875 0.140625,0.46875 0.3984375,0.46875 0.4804687,0 0.9375,-0.33984375 1.4765625,-1.08984375 l 0.046875,-0.0703125 z m 0,0"
       style="fill:#000000;fill-opacity:1;fill-rule:nonzero;stroke:none"
       aria-label="lm"
       transform="matrix(1.3333333,0,0,1.3333333,577.464,834.88133)" />
    <path
       id="path335"
       d="m 3998.21,2049.79 c 0,42.29 -34.28,76.58 -76.57,76.58 -42.3,0 -76.58,-34.29 -76.58,-76.58 0,-42.3 34.28,-76.58 76.58,-76.58 42.29,0 76.57,34.28 76.57,76.58"
       style="fill:#000000;fill-opacity:1;fill-rule:nonzero;stroke:none"
       transform="matrix(0.13333333,0,0,-0.13333333,0,1056)" />
    <path
       id="path336"
       d="m 3990.56,2049.79 c 0,38.06 -30.86,68.92 -68.92,68.92 -38.07,0 -68.93,-30.86 -68.93,-68.92 0,-38.07 30.86,-68.92 68.93,-68.92 38.06,0 68.92,30.85 68.92,68.92"
       style="fill:#cccccc;fill-opacity:1;fill-rule:nonzero;stroke:none"
       transform="matrix(0.13333333,0,0,-0.13333333,0,1056)" />
    <path
       id="path337"
       d="m 2.2611328,-1.1613047 c -0.2460937,0.32812501 -0.3164062,0.41015626 -0.4101562,0.51562501 -0.1757813,0.17578125 -0.328125,0.28125 -0.421875,0.28125 -0.082031,0 -0.1640625,-0.0820313 -0.1640625,-0.15234375 0,-0.10546875 0.035156,-0.2578125 0.1054687,-0.45703125 0,-0.0234375 0.023437,-0.09375 0.046875,-0.17578121 v -0.023437 l 0.011719,-0.023437 0.9023437,-3.28125 -0.035156,-0.023437 c -1.03125,0.1875 -1.2304688,0.2226562 -1.62890629,0.2578125 v 0.1640625 c 0.53906249,0 0.63281249,0.035156 0.63281249,0.2460937 0,0.070312 -0.023437,0.234375 -0.082031,0.4453125 l -0.49218754,1.8046875 c -0.1640625,0.59765626 -0.22265625,0.91406251 -0.22265625,1.11328126 0,0.375 0.1640625,0.5859375 0.46875,0.5859375 0.46874999,0 0.84374999,-0.31640625 1.42968749,-1.17187496 z m -0.082031,-5.5195312 c -0.2695313,0 -0.4804688,0.234375 -0.4804688,0.5507812 0,0.3164063 0.1992188,0.5390625 0.4921875,0.5390625 0.2695313,0 0.5039063,-0.234375 0.5039063,-0.5273437 0,-0.2929688 -0.234375,-0.5625 -0.515625,-0.5625 z m 7.6904296,5.484375 c -0.1054687,0.1289062 -0.1875,0.22265621 -0.2109375,0.26953121 -0.2929687,0.36328125 -0.5039062,0.5390625 -0.65625,0.5390625 -0.082031,0 -0.1289062,-0.0585938 -0.1289062,-0.1640625 0,-0.046875 0.035156,-0.2109375 0.09375,-0.45703121 l 0.703125,-2.5664063 c 0.011719,-0.035156 0.023437,-0.2226562 0.023437,-0.28125 0,-0.375 -0.2460938,-0.6445312 -0.5976563,-0.6445312 -0.1992187,0 -0.3984375,0.070312 -0.6445312,0.2226562 -0.5039063,0.328125 -0.9140625,0.8203125 -1.6171875,1.9453125 0.2460937,-0.7851562 0.3984375,-1.359375 0.3984375,-1.5585937 0,-0.3515625 -0.234375,-0.609375 -0.5742188,-0.609375 -0.6210937,0 -1.3359375,0.6679687 -2.2734375,2.15625 l 0.5859375,-2.1328125 -0.035156,-0.023437 c -0.5625,0.1171875 -0.7851563,0.1640625 -1.6289063,0.3164062 v 0.1640625 h 0.2578125 c 0.2578125,0 0.3984375,0.070312 0.3984375,0.2226563 0,0.1171875 -0.234375,1.0429687 -0.609375,2.3320312 -0.234375,0.84375001 -0.2578125,0.94921876 -0.3984375,1.46484376 H 3.7289062 C 4.2210937,-1.6183359 4.3734375,-2.0050547 4.7132812,-2.5323984 5.2875,-3.3995859 5.896875,-3.9738047 6.2484375,-3.9738047 c 0.1289062,0 0.1992187,0.09375 0.1992187,0.2578125 0,0.09375 -0.328125,1.3242188 -0.9609375,3.71484376 h 0.7617188 c 0.4101562,-1.59374996 0.609375,-2.09765626 1.1367187,-2.82421876 0.4921875,-0.6914062 1.0078125,-1.1484375 1.3007813,-1.1484375 0.1171875,0 0.2109375,0.1054688 0.2109375,0.2109375 0,0.058594 -0.023437,0.1757813 -0.082031,0.3632813 l -0.5859375,2.34375 C 8.1351562,-0.66911719 8.1,-0.48161719 8.1,-0.37614844 c 0,0.3046875 0.140625,0.46875 0.3984375,0.46875 0.4804687,0 0.9375,-0.33984375 1.4765625,-1.08984375 l 0.046875,-0.0703125 z m 0,0"
       style="fill:#000000;fill-opacity:1;fill-rule:nonzero;stroke:none"
       aria-label="im"
       transform="matrix(1.3333333,0,0,1.3333333,516.2,787.232)" />
    <path
       id="path338"
       d="m 3998,1615 h 154 v 154 h -154 z"
       style="fill:#000000;fill-opacity:1;fill-rule:nonzero;stroke:none"
       transform="matrix(0.13333333,0,0,-0.13333333,0,1056)" />
    <path
       id="path339"
       d="m 4005,1623 h 139 v 139 h -139 z"
       style="fill:#cccccc;fill-opacity:1;fill-rule:nonzero;stroke:none"
       transform="matrix(0.13333333,0,0,-0.13333333,0,1056)" />
    <path
       id="path340"
       d="m 2.2615391,-1.1590469 c -0.2460938,0.32812502 -0.3164063,0.41015627 -0.4101563,0.51562502 -0.1757812,0.17578125 -0.328125,0.28125 -0.421875,0.28125 -0.082031,0 -0.1640625,-0.0820313 -0.1640625,-0.15234375 0,-0.10546875 0.035156,-0.2578125 0.1054688,-0.45703125 0,-0.0234375 0.023437,-0.09375 0.046875,-0.17578122 v -0.023437 l 0.011719,-0.023437 0.9023438,-3.28125 -0.035156,-0.023437 c -1.03125,0.1875 -1.2304687,0.2226562 -1.62890624,0.2578125 v 0.1640625 c 0.53906254,0 0.63281254,0.035156 0.63281254,0.2460937 0,0.070312 -0.023437,0.234375 -0.082031,0.4453125 l -0.49218749,1.8046875 c -0.1640625,0.59765627 -0.22265625,0.91406252 -0.22265625,1.11328127 0,0.375 0.1640625,0.5859375 0.46875,0.5859375 0.46875004,0 0.84375004,-0.31640625 1.42968754,-1.17187497 z m -0.082031,-5.5195312 c -0.2695312,0 -0.4804687,0.234375 -0.4804687,0.5507812 0,0.3164063 0.1992187,0.5390625 0.4921875,0.5390625 0.2695312,0 0.5039062,-0.234375 0.5039062,-0.5273437 0,-0.2929688 -0.234375,-0.5625 -0.515625,-0.5625 z m 7.6904297,5.484375 c -0.1054687,0.1289062 -0.1875,0.22265622 -0.2109375,0.26953122 -0.2929687,0.36328125 -0.5039062,0.5390625 -0.65625,0.5390625 -0.082031,0 -0.1289062,-0.0585938 -0.1289062,-0.1640625 0,-0.046875 0.035156,-0.2109375 0.09375,-0.45703122 l 0.703125,-2.5664063 c 0.011719,-0.035156 0.023437,-0.2226562 0.023437,-0.28125 0,-0.375 -0.2460938,-0.6445312 -0.5976563,-0.6445312 -0.1992187,0 -0.3984375,0.070312 -0.6445312,0.2226562 -0.5039063,0.328125 -0.9140625,0.8203125 -1.6171875,1.9453125 0.2460937,-0.7851562 0.3984375,-1.359375 0.3984375,-1.5585937 0,-0.3515625 -0.234375,-0.609375 -0.5742188,-0.609375 -0.6210937,0 -1.3359375,0.6679687 -2.2734375,2.15625 L 4.9715,-4.4754531 4.9363438,-4.4988906 c -0.5625,0.1171875 -0.7851563,0.1640625 -1.6289063,0.3164062 v 0.1640625 H 3.56525 c 0.2578125,0 0.3984375,0.070312 0.3984375,0.2226563 0,0.1171875 -0.234375,1.0429687 -0.609375,2.3320312 C 3.1199375,-0.61998438 3.0965,-0.51451563 2.955875,0.00110937 H 3.7293125 C 4.2215,-1.6160781 4.3738438,-2.0027969 4.7136875,-2.5301406 c 0.5742188,-0.8671875 1.1835938,-1.4414063 1.5351563,-1.4414063 0.1289062,0 0.1992187,0.09375 0.1992187,0.2578125 0,0.09375 -0.328125,1.3242188 -0.9609375,3.71484377 H 6.2488438 C 6.659,-1.5926406 6.8582188,-2.0965469 7.3855625,-2.8231094 7.87775,-3.5145156 8.393375,-3.9715469 8.6863438,-3.9715469 c 0.1171875,0 0.2109375,0.1054688 0.2109375,0.2109375 0,0.058594 -0.023437,0.1757813 -0.082031,0.3632813 l -0.5859375,2.34375 c -0.09375,0.38671872 -0.1289062,0.57421872 -0.1289062,0.67968747 0,0.3046875 0.140625,0.46875 0.3984375,0.46875 0.4804687,0 0.9375,-0.33984375 1.4765625,-1.08984375 l 0.046875,-0.0703125 z m 0,0"
       style="fill:#000000;fill-opacity:1;fill-rule:nonzero;stroke:none"
       aria-label="im"
       transform="matrix(1.3333333,0,0,1.3333333,536.62133,834.88133)" />
    <path
       id="path341"
       d="m 4100,1258 h 154 v 154 h -154 z"
       style="fill:#000000;fill-opacity:1;fill-rule:nonzero;stroke:none"
       transform="matrix(0.13333333,0,0,-0.13333333,0,1056)" />
    <path
       id="path342"
       d="m 4107,1266 h 139 v 138 h -139 z"
       style="fill:#cccccc;fill-opacity:1;fill-rule:nonzero;stroke:none"
       transform="matrix(0.13333333,0,0,-0.13333333,0,1056)" />
    <path
       id="path343"
       d="m 4.2305703,-1.1128438 -0.1523437,0.2695313 c -0.1875,0.31640625 -0.3164063,0.421875 -0.46875,0.421875 -0.2109375,0 -0.421875,-0.328125 -0.8203125,-1.3125 -0.058594,-0.1289063 -0.2109375,-0.5039063 -0.375,-0.9023438 1.5,-1.3359375 1.8164062,-1.5351562 2.296875,-1.5703125 v -0.1640625 h -1.875 v 0.1640625 h 0.1640625 c 0.2578125,0 0.3984375,0.070312 0.3984375,0.1875 0,0.1992188 -0.515625,0.703125 -1.4648438,1.4296875 -0.140625,0.1054688 -0.2578125,0.2109375 -0.4335937,0.3398438 l 1.2304687,-4.6757813 -0.058594,-0.046875 c -0.5976563,0.1289063 -0.984375,0.2109375 -1.59375,0.28125 v 0.1640625 c 0.4921875,-0.011719 0.6914062,0.058594 0.703125,0.2460938 -0.023437,0.1757812 -0.09375,0.4570312 -0.234375,0.9257812 -0.035156,0.140625 -0.070312,0.2460938 -0.082031,0.328125 l -0.023437,0.09375 -1.30078124,4.9335938 h 0.7734375 l 0.48046874,-1.8398438 0.4335938,-0.328125 c 0.1640625,0.4570313 0.421875,1.078125 0.609375,1.4414063 0.328125,0.64453125 0.515625,0.84375 0.8085937,0.84375 0.4101563,0 0.6679688,-0.2578125 1.1367188,-1.11328125 z m 7.3330077,-0.082031 c -0.105469,0.1289062 -0.1875,0.22265625 -0.210937,0.26953125 -0.292969,0.36328125 -0.503907,0.5390625 -0.65625,0.5390625 -0.08203,0 -0.128907,-0.0585938 -0.128907,-0.1640625 0,-0.046875 0.03516,-0.2109375 0.09375,-0.45703125 l 0.703125,-2.5664063 c 0.01172,-0.035156 0.02344,-0.2226562 0.02344,-0.28125 0,-0.375 -0.246094,-0.6445312 -0.597656,-0.6445312 -0.199219,0 -0.398438,0.070312 -0.644532,0.2226562 -0.5039059,0.328125 -0.9140621,0.8203125 -1.6171871,1.9453125 0.2460937,-0.7851562 0.3984375,-1.359375 0.3984375,-1.5585937 0,-0.3515625 -0.234375,-0.609375 -0.5742188,-0.609375 -0.6210937,0 -1.3359375,0.6679687 -2.2734375,2.15625 L 6.6651406,-4.476125 6.6299844,-4.4995625 C 6.0674844,-4.382375 5.8448281,-4.3355 5.0010781,-4.1831563 v 0.1640625 h 0.2578125 c 0.2578125,0 0.3984375,0.070313 0.3984375,0.2226563 0,0.1171875 -0.234375,1.0429687 -0.609375,2.3320312 -0.234375,0.84375005 -0.2578125,0.9492188 -0.3984375,1.4648438 H 5.4229531 C 5.9151406,-1.61675 6.0674844,-2.0034688 6.4073281,-2.5308125 6.9815469,-3.398 7.5909219,-3.9722188 7.9424844,-3.9722188 c 0.1289062,0 0.1992187,0.09375 0.1992187,0.2578125 0,0.09375 -0.328125,1.3242188 -0.9609375,3.7148438 h 0.7617188 c 0.4101562,-1.59375 0.609375,-2.0976563 1.1367187,-2.8242188 0.4921875,-0.6914062 1.0078129,-1.1484375 1.3007809,-1.1484375 0.117188,0 0.210938,0.1054688 0.210938,0.2109375 0,0.058594 -0.02344,0.1757813 -0.08203,0.3632813 l -0.5859379,2.34375 c -0.09375,0.38671875 -0.1289062,0.57421875 -0.1289062,0.6796875 0,0.3046875 0.140625,0.46875 0.3984371,0.46875 0.480469,0 0.9375,-0.33984375 1.476563,-1.08984375 l 0.04687,-0.0703126 z m 0,0"
       style="fill:#000000;fill-opacity:1;fill-rule:nonzero;stroke:none"
       aria-label="km"
       transform="matrix(1.3333333,0,0,1.3333333,549.10533,882.53067)" />
    <path
       id="path344"
       d="m 3896,1258 h 154 v 154 h -154 z"
       style="fill:#000000;fill-opacity:1;fill-rule:nonzero;stroke:none"
       transform="matrix(0.13333333,0,0,-0.13333333,0,1056)" />
    <path
       id="path345"
       d="m 3903,1266 h 139 v 138 h -139 z"
       style="fill:#cccccc;fill-opacity:1;fill-rule:nonzero;stroke:none"
       transform="matrix(0.13333333,0,0,-0.13333333,0,1056)" />
    <path
       id="path346"
       d="m 2.2608359,-1.1597188 c -0.2460937,0.32812505 -0.3164062,0.4101563 -0.4101562,0.51562505 -0.1757813,0.17578125 -0.328125,0.28125 -0.421875,0.28125 -0.082031,0 -0.1640625,-0.0820313 -0.1640625,-0.15234375 0,-0.10546875 0.035156,-0.2578125 0.1054687,-0.45703125 0,-0.0234375 0.023437,-0.0937501 0.046875,-0.17578125 v -0.023437 l 0.011719,-0.023437 0.9023437,-3.28125 -0.035156,-0.023437 c -1.03125,0.1875 -1.2304688,0.2226562 -1.62890626,0.2578125 v 0.1640625 c 0.53906246,0 0.63281246,0.035156 0.63281246,0.2460937 0,0.070312 -0.023437,0.234375 -0.082031,0.4453125 l -0.49218751,1.8046875 c -0.1640625,0.5976563 -0.22265625,0.91406255 -0.22265625,1.1132813 0,0.375 0.1640625,0.5859375 0.46875,0.5859375 0.46874996,0 0.84374996,-0.31640625 1.42968746,-1.171875 z M 2.1788047,-6.67925 c -0.2695313,0 -0.4804688,0.234375 -0.4804688,0.5507812 0,0.3164063 0.1992188,0.5390625 0.4921875,0.5390625 0.2695313,0 0.5039063,-0.234375 0.5039063,-0.5273437 0,-0.2929688 -0.234375,-0.5625 -0.515625,-0.5625 z m 4.8896484,5.5664062 -0.1523437,0.2695313 c -0.1875,0.31640625 -0.3164063,0.421875 -0.46875,0.421875 -0.2109375,0 -0.421875,-0.328125 -0.8203125,-1.3125 -0.058594,-0.1289063 -0.2109375,-0.5039063 -0.375,-0.9023438 1.5,-1.3359375 1.8164062,-1.5351562 2.296875,-1.5703125 v -0.1640625 h -1.875 v 0.1640625 h 0.1640625 c 0.2578125,0 0.3984375,0.070312 0.3984375,0.1875 0,0.1992188 -0.515625,0.703125 -1.4648438,1.4296875 -0.140625,0.1054688 -0.2578125,0.2109375 -0.4335937,0.3398438 l 1.2304687,-4.6757813 -0.058594,-0.046875 c -0.5976563,0.1289063 -0.984375,0.2109375 -1.59375,0.28125 v 0.1640625 c 0.4921875,-0.011719 0.6914062,0.058594 0.703125,0.2460938 -0.023437,0.1757812 -0.09375,0.4570312 -0.234375,0.9257812 -0.035156,0.140625 -0.070312,0.2460938 -0.082031,0.328125 l -0.023437,0.09375 -1.3007812,4.9335938 h 0.7734375 l 0.4804687,-1.8398438 0.4335938,-0.328125 c 0.1640625,0.4570313 0.421875,1.078125 0.609375,1.4414063 0.328125,0.64453125 0.515625,0.84375 0.8085937,0.84375 0.4101563,0 0.6679688,-0.2578125 1.1367188,-1.11328125 z m 0,0"
       style="fill:#000000;fill-opacity:1;fill-rule:nonzero;stroke:none"
       aria-label="ik"
       transform="matrix(1.3333333,0,0,1.3333333,524.66133,882.53067)" />
    <path
       id="path347"
       d="m 3691,1615 h 155 v 154 h -155 z"
       style="fill:#000000;fill-opacity:1;fill-rule:nonzero;stroke:none"
       transform="matrix(0.13333333,0,0,-0.13333333,0,1056)" />
    <path
       id="path348"
       d="m 3699,1623 h 139 v 139 h -139 z"
       style="fill:#cccccc;fill-opacity:1;fill-rule:nonzero;stroke:none"
       transform="matrix(0.13333333,0,0,-0.13333333,0,1056)" />
    <path
       id="path349"
       d="m 7.0322734,-1.1942031 c -0.1054687,0.1289062 -0.1875,0.22265622 -0.2109375,0.26953122 -0.2929687,0.36328125 -0.5039062,0.5390625 -0.65625,0.5390625 -0.082031,0 -0.1289062,-0.0585938 -0.1289062,-0.1640625 0,-0.046875 0.035156,-0.2109375 0.09375,-0.45703122 l 0.703125,-2.5664063 c 0.011719,-0.035156 0.023437,-0.2226562 0.023437,-0.28125 0,-0.375 -0.2460938,-0.6445312 -0.5976563,-0.6445312 -0.1992187,0 -0.3984375,0.070312 -0.6445312,0.2226562 -0.5039063,0.328125 -0.9140625,0.8203125 -1.6171875,1.9453125 0.2460937,-0.7851562 0.3984375,-1.359375 0.3984375,-1.5585937 0,-0.3515625 -0.234375,-0.609375 -0.5742188,-0.609375 -0.6210937,0 -1.3359375,0.6679687 -2.2734375,2.15625 l 0.5859375,-2.1328125 -0.035156,-0.023437 c -0.5625,0.1171875 -0.7851563,0.1640625 -1.62890626,0.3164062 v 0.1640625 h 0.2578125 c 0.2578125,0 0.39843746,0.070312 0.39843746,0.2226563 0,0.1171875 -0.23437496,1.0429687 -0.60937496,2.3320312 -0.234375,0.84375002 -0.2578125,0.94921877 -0.3984375,1.46484377 h 0.7734375 C 1.3838359,-1.6160781 1.5361797,-2.0027969 1.8760234,-2.5301406 c 0.5742188,-0.8671875 1.1835938,-1.4414063 1.5351563,-1.4414063 0.1289062,0 0.1992187,0.09375 0.1992187,0.2578125 0,0.09375 -0.328125,1.3242188 -0.9609375,3.71484377 h 0.7617188 c 0.4101562,-1.59374997 0.609375,-2.09765627 1.1367187,-2.82421877 0.4921875,-0.6914062 1.0078125,-1.1484375 1.3007813,-1.1484375 0.1171875,0 0.2109375,0.1054688 0.2109375,0.2109375 0,0.058594 -0.023437,0.1757813 -0.082031,0.3632813 l -0.5859375,2.34375 c -0.09375,0.38671872 -0.1289062,0.57421872 -0.1289062,0.67968747 0,0.3046875 0.140625,0.46875 0.3984375,0.46875 0.4804687,0 0.9375,-0.33984375 1.4765625,-1.08984375 l 0.046875,-0.0703125 z m 3.6562496,-3.3046875 c -1.5351558,0 -3.0351558,1.5820312 -3.0351558,3.1875 0,0.87890622 0.5625,1.42968747 1.5,1.42968747 0.6679687,0 1.3242188,-0.31640625 1.9101558,-0.890625 0.679688,-0.66796877 1.089844,-1.53515627 1.089844,-2.29687497 0,-0.84375 -0.597656,-1.4296875 -1.464844,-1.4296875 z m -0.117187,0.2109375 c 0.433594,0 0.714844,0.375 0.714844,0.9609375 0,0.75 -0.328125,1.7695312 -0.785157,2.42578122 -0.375,0.55078125 -0.7617183,0.796875 -1.1953121,0.796875 -0.4804687,0 -0.796875,-0.36328125 -0.796875,-0.92578122 0,-0.75 0.2929688,-1.6523438 0.796875,-2.3789063 0.3984375,-0.5742187 0.8203121,-0.8789062 1.2656251,-0.8789062 z m 0,0"
       style="fill:#000000;fill-opacity:1;fill-rule:nonzero;stroke:none"
       aria-label="mo"
       transform="matrix(1.3333333,0,0,1.3333333,494.33067,834.88133)" />
    <path
       id="path350"
       d="m 3487,2330 h 154 v 154 h -154 z"
       style="fill:#000000;fill-opacity:1;fill-rule:nonzero;stroke:none"
       transform="matrix(0.13333333,0,0,-0.13333333,0,1056)" />
    <path
       id="path351"
       d="m 3495,2338 h 139 v 139 h -139 z"
       style="fill:#cccccc;fill-opacity:1;fill-rule:nonzero;stroke:none"
       transform="matrix(0.13333333,0,0,-0.13333333,0,1056)" />
    <path
       id="path352"
       d="m 4.7464609,-1.1938594 c -0.5507812,0.69140627 -0.6679687,0.80859377 -0.8320312,0.80859377 -0.09375,0 -0.1640625,-0.09375 -0.1640625,-0.1875 0,-0.09375 0.1640625,-0.73828127 0.328125,-1.27734377 0.3046875,-0.9609375 0.4921875,-1.7226562 0.4921875,-1.96875 0,-0.4101562 -0.2695313,-0.6796875 -0.6679688,-0.6796875 -0.6679687,0 -1.3945312,0.6679688 -2.34375,2.15625 l 1.2304688,-4.5820312 -0.058594,-0.046875 c -0.5859375,0.1289062 -0.984375,0.2109375 -1.59375,0.28125 v 0.1523437 h 0.2578125 c 0.011719,0 0.023437,0 0.035156,-0.011719 0.140625,-0.058594 0.3867187,0.1054687 0.3867187,0.2578125 0,0.140625 -0.046875,0.3984375 -0.140625,0.6914062 -0.011719,0.011719 -0.046875,0.1523438 -0.1054687,0.375 L 0.19958594,0.00145312 H 0.96130469 C 1.3714609,-1.5688594 1.5003672,-1.9204219 1.9105234,-2.5415156 c 0.5273438,-0.8085938 1.21875,-1.4414063 1.5820313,-1.4414063 0.1523437,0 0.28125,0.1289063 0.28125,0.2578125 0,0.046875 -0.023437,0.1757813 -0.070312,0.3398438 l -0.5625,2.109375 c -0.1289063,0.50390622 -0.1992188,0.82031247 -0.1992188,0.93749997 0,0.26953125 0.1757813,0.43359375 0.4453125,0.43359375 0.5273438,0 0.8789063,-0.28125 1.4882813,-1.16015622 z m 2.6191407,0.035156 c -0.2460938,0.32812497 -0.3164063,0.41015622 -0.4101563,0.51562497 -0.1757812,0.17578125 -0.328125,0.28125 -0.421875,0.28125 -0.082031,0 -0.1640625,-0.0820313 -0.1640625,-0.15234375 0,-0.10546875 0.035156,-0.2578125 0.1054688,-0.45703125 0,-0.0234375 0.023437,-0.09375 0.046875,-0.17578127 v -0.023437 l 0.011719,-0.023437 0.9023438,-3.28125 -0.035156,-0.023437 c -1.03125,0.1875 -1.2304687,0.2226563 -1.6289062,0.2578125 v 0.1640625 c 0.5390625,0 0.6328125,0.035156 0.6328125,0.2460938 0,0.070312 -0.023437,0.234375 -0.082031,0.4453125 L 5.8304462,-1.5805769 C 5.6663837,-0.98292068 5.60779,-0.66651443 5.60779,-0.46729568 c 0,0.375 0.1640625,0.5859375 0.46875,0.5859375 0.46875,0 0.84375,-0.31640625 1.4296875,-1.17187502 z m -0.082031,-5.5195313 c -0.2695312,0 -0.4804687,0.234375 -0.4804687,0.5507813 0,0.3164062 0.1992187,0.5390625 0.4921875,0.5390625 0.2695312,0 0.5039062,-0.234375 0.5039062,-0.5273438 0,-0.2929687 -0.234375,-0.5625 -0.515625,-0.5625 z m 0,0"
       style="fill:#000000;fill-opacity:1;fill-rule:nonzero;stroke:none"
       aria-label="hi"
       transform="matrix(1.3333333,0,0,1.3333333,470.03467,739.584)" />
    <path
       id="path353"
       d="m 2683,2687 h 154 v 155 h -154 z"
       style="fill:#000000;fill-opacity:1;fill-rule:nonzero;stroke:none"
       transform="matrix(0.13333333,0,0,-0.13333333,0,1056)" />
    <path
       id="path354"
       d="m 2691,2695 h 139 v 139 h -139 z"
       style="fill:#cccccc;fill-opacity:1;fill-rule:nonzero;stroke:none"
       transform="matrix(0.13333333,0,0,-0.13333333,0,1056)" />
    <path
       id="path355"
       d="m 3.6575234,-1.1130859 c -0.7382812,0.59765621 -1.0546875,0.76171871 -1.4882812,0.76171871 -0.5859375,0 -0.9609375,-0.36328125 -0.9609375,-0.91406251 0,-0.1523437 0.023437,-0.3046875 0.09375,-0.6328125 l 0.2929687,-0.035156 c 1.5351563,-0.2226563 2.6132813,-0.9960938 2.6132813,-1.875 0,-0.421875 -0.3046875,-0.6914063 -0.8203125,-0.6914063 -1.4648438,0 -3.07031251,1.6875 -3.07031251,3.2109375 0,0.83203126 0.55078125,1.40625001 1.34765621,1.40625001 0.7265625,0 1.5117188,-0.421875 2.109375,-1.1015625 z m -2.109375,-1.453125 c 0.3515625,-0.9140625 1.1015625,-1.6992188 1.6289063,-1.6992188 0.2109375,0 0.3515625,0.1640625 0.3515625,0.3984375 0,0.3164063 -0.1875,0.6796875 -0.5039063,0.984375 -0.375,0.3632813 -0.7734375,0.5507813 -1.640625,0.7617188 z m 5.2470704,1.40625 c -0.2460938,0.32812496 -0.3164063,0.41015621 -0.4101563,0.51562496 -0.1757812,0.17578125 -0.328125,0.28125 -0.421875,0.28125 -0.082031,0 -0.1640625,-0.0820313 -0.1640625,-0.15234375 0,-0.10546875 0.035156,-0.2578125 0.1054688,-0.45703125 0,-0.0234375 0.023437,-0.09375 0.046875,-0.17578126 v -0.023437 l 0.011719,-0.023437 0.9023438,-3.28125 -0.035156,-0.023437 c -1.03125,0.1875 -1.2304687,0.2226563 -1.6289062,0.2578125 v 0.1640625 c 0.5390625,0 0.6328125,0.035156 0.6328125,0.2460938 0,0.070312 -0.023437,0.234375 -0.082031,0.4453125 l -0.4921884,1.804686 C 5.096,-0.98417969 5.0374063,-0.66777344 5.0374063,-0.46855469 c 0,0.375 0.1640625,0.5859375 0.46875,0.5859375 0.46875,0 0.84375,-0.31640625 1.4296875,-1.17187501 z m -0.082031,-5.5195313 c -0.2695312,0 -0.4804687,0.234375 -0.4804687,0.5507813 0,0.3164062 0.1992187,0.5390625 0.4921875,0.5390625 0.2695312,0 0.5039062,-0.234375 0.5039062,-0.5273438 0,-0.2929687 -0.234375,-0.5625 -0.515625,-0.5625 z m 0,0"
       style="fill:#000000;fill-opacity:1;fill-rule:nonzero;stroke:none"
       aria-label="ei"
       transform="matrix(1.3333333,0,0,1.3333333,363.20533,691.93333)" />
    <path
       id="path356"
       d="m 3181.37,2407.15 c 0,42.3 -34.29,76.58 -76.58,76.58 -42.29,0 -76.58,-34.28 -76.58,-76.58 0,-42.29 34.29,-76.58 76.58,-76.58 42.29,0 76.58,34.29 76.58,76.58"
       style="fill:#000000;fill-opacity:1;fill-rule:nonzero;stroke:none"
       transform="matrix(0.13333333,0,0,-0.13333333,0,1056)" />
    <path
       id="path357"
       d="m 3173.71,2407.15 c 0,38.07 -30.86,68.92 -68.92,68.92 -38.06,0 -68.92,-30.85 -68.92,-68.92 0,-38.06 30.86,-68.92 68.92,-68.92 38.06,0 68.92,30.86 68.92,68.92"
       style="fill:#cccccc;fill-opacity:1;fill-rule:nonzero;stroke:none"
       transform="matrix(0.13333333,0,0,-0.13333333,0,1056)" />
    <path
       id="path358"
       d="M 4.8155547,-4.1352656 H 4.1944609 c -0.035156,0 -0.082031,-0.011719 -0.1640625,-0.082031 -0.2695312,-0.1757812 -0.609375,-0.28125 -0.9960937,-0.28125 -1.1367188,0 -2.05078126,0.7851563 -2.05078126,1.7460938 0,0.5273437 0.22265626,0.8320312 0.79687496,1.1015625 -0.5976562,0.4101562 -0.78515621,0.609375 -0.78515621,0.85546872 0,0.12890625 0.0820312,0.2578125 0.28125001,0.3984375 -1.00781251,0.66796875 -1.19531251,0.8671875 -1.19531251,1.3359375 0,0.70312498 0.66796875,1.16015628 1.69921871,1.16015628 1.2890625,0 2.1445313,-0.5976563 2.1445313,-1.48828128 0,-0.64453125 -0.4804688,-1.08984375 -1.453125,-1.34765625 C 2.0147734,-0.84229688 1.7569609,-1.0063594 1.7569609,-1.1587031 c 0,-0.1523438 0.234375,-0.421875 0.3632813,-0.421875 0.023437,0 0.046875,0 0.070312,0.011719 0.082031,0.023437 0.2226562,0.023437 0.3164062,0.023437 0.9375,0 1.8867188,-0.8203125 1.8867188,-1.6171875 0,-0.1640625 -0.023437,-0.3632812 -0.082031,-0.5742187 h 0.5039063 z m -3.3046875,3.85546872 c 0.011719,0 0.035156,0 0.046875,0.0117188 0.035156,0.0117188 0.140625,0.046875 0.3046875,0.09375 1.078125,0.33984375 1.453125,0.62109375 1.453125,1.08984375 0,0.55078123 -0.5859375,0.96093743 -1.3828125,0.96093743 -0.8085938,0 -1.28906251,-0.3867187 -1.28906251,-1.04296868 0,-0.234375 0.0585938,-0.41015625 0.22265625,-0.609375 0.12890625,-0.1757813 0.56249996,-0.5039063 0.64453126,-0.5039063 z M 3.0225859,-4.2758906 c 0.375,0 0.5742188,0.2460937 0.5742188,0.7265625 0,0.3515625 -0.1289063,0.8085937 -0.3164063,1.1484375 -0.234375,0.421875 -0.5507812,0.6445312 -0.890625,0.6445312 -0.3867187,0 -0.609375,-0.28125 -0.609375,-0.7617187 0,-0.9375 0.5742188,-1.7578125 1.2421875,-1.7578125 z m 4.3447266,3.1171875 c -0.2460937,0.32812497 -0.3164062,0.41015622 -0.4101562,0.51562497 -0.1757813,0.17578125 -0.328125,0.28125 -0.421875,0.28125 -0.082031,0 -0.1640625,-0.0820313 -0.1640625,-0.15234375 0,-0.10546875 0.035156,-0.2578125 0.1054687,-0.45703125 0,-0.0234375 0.023437,-0.09375 0.046875,-0.17578127 v -0.023437 l 0.011719,-0.023437 0.9023437,-3.28125 -0.035156,-0.023437 c -1.03125,0.1875 -1.2304688,0.2226563 -1.6289063,0.2578125 v 0.1640625 c 0.5390625,0 0.6328125,0.035156 0.6328125,0.2460938 0,0.070312 -0.023437,0.234375 -0.082031,0.4453125 l -0.4921881,1.804686 C 5.6680938,-0.98292188 5.6095,-0.66651563 5.6095,-0.46729688 c 0,0.375 0.1640625,0.5859375 0.46875,0.5859375 0.46875,0 0.84375,-0.31640625 1.4296875,-1.17187502 z m -0.082031,-5.5195313 c -0.2695313,0 -0.4804688,0.234375 -0.4804688,0.5507813 0,0.3164062 0.1992188,0.5390625 0.4921875,0.5390625 0.2695313,0 0.5039063,-0.234375 0.5039063,-0.5273438 0,-0.2929687 -0.234375,-0.5625 -0.515625,-0.5625 z m 0,0"
       style="fill:#000000;fill-opacity:1;fill-rule:nonzero;stroke:none"
       aria-label="gi"
       transform="matrix(1.3333333,0,0,1.3333333,408.77067,739.584)" />
    <path
       id="path359"
       d="m 3334.53,2049.79 c 0,42.29 -34.29,76.58 -76.58,76.58 -42.29,0 -76.58,-34.29 -76.58,-76.58 0,-42.3 34.29,-76.58 76.58,-76.58 42.29,0 76.58,34.28 76.58,76.58"
       style="fill:#000000;fill-opacity:1;fill-rule:nonzero;stroke:none"
       transform="matrix(0.13333333,0,0,-0.13333333,0,1056)" />
    <path
       id="path360"
       d="m 3326.87,2049.79 c 0,38.06 -30.86,68.92 -68.92,68.92 -38.06,0 -68.92,-30.86 -68.92,-68.92 0,-38.07 30.86,-68.92 68.92,-68.92 38.06,0 68.92,30.85 68.92,68.92"
       style="fill:#cccccc;fill-opacity:1;fill-rule:nonzero;stroke:none"
       transform="matrix(0.13333333,0,0,-0.13333333,0,1056)" />
    <path
       id="path361"
       d="M 4.8159609,-4.1378672 H 4.1948672 c -0.035156,0 -0.082031,-0.011719 -0.1640625,-0.082031 -0.2695313,-0.1757813 -0.609375,-0.28125 -0.9960938,-0.28125 -1.1367187,0 -2.05078121,0.7851562 -2.05078121,1.7460937 0,0.5273438 0.22265621,0.8320313 0.79687501,1.1015625 -0.5976563,0.4101563 -0.78515626,0.609375 -0.78515626,0.85546876 0,0.12890625 0.0820313,0.2578125 0.28124996,0.3984375 -1.00781246,0.66796875 -1.19531246,0.8671875 -1.19531246,1.3359375 0,0.70312504 0.66796875,1.16015624 1.69921876,1.16015624 1.2890625,0 2.1445312,-0.5976562 2.1445312,-1.48828124 0,-0.64453125 -0.4804687,-1.08984375 -1.453125,-1.34765625 C 2.0151797,-0.84489844 1.7573672,-1.0089609 1.7573672,-1.1613047 c 0,-0.1523437 0.234375,-0.421875 0.3632812,-0.421875 0.023437,0 0.046875,0 0.070312,0.011719 0.082031,0.023437 0.2226563,0.023437 0.3164063,0.023437 0.9375,0 1.8867187,-0.8203125 1.8867187,-1.6171875 0,-0.1640625 -0.023437,-0.3632813 -0.082031,-0.5742188 h 0.5039062 z m -3.3046875,3.85546876 c 0.011719,0 0.035156,0 0.046875,0.0117188 0.035156,0.0117188 0.140625,0.046875 0.3046875,0.09375 1.078125,0.33984375 1.453125,0.62109375 1.453125,1.08984375 0,0.55078119 -0.5859375,0.96093759 -1.3828125,0.96093759 -0.8085937,0 -1.28906246,-0.3867188 -1.28906246,-1.04296884 0,-0.234375 0.0585938,-0.41015625 0.22265625,-0.609375 0.12890625,-0.1757813 0.56250001,-0.5039063 0.64453121,-0.5039063 z M 3.0229922,-4.2784922 c 0.375,0 0.5742187,0.2460938 0.5742187,0.7265625 0,0.3515625 -0.1289062,0.8085938 -0.3164062,1.1484375 -0.234375,0.421875 -0.5507813,0.6445313 -0.890625,0.6445313 -0.3867188,0 -0.609375,-0.28125 -0.609375,-0.7617188 0,-0.9375 0.5742187,-1.7578125 1.2421875,-1.7578125 z m 4.3447265,3.1171875 c -0.2460937,0.32812501 -0.3164062,0.41015626 -0.4101562,0.51562501 -0.1757813,0.17578125 -0.328125,0.28125 -0.421875,0.28125 -0.082031,0 -0.1640625,-0.0820313 -0.1640625,-0.15234375 0,-0.10546875 0.035156,-0.2578125 0.1054687,-0.45703125 0,-0.0234375 0.023437,-0.09375 0.046875,-0.17578121 v -0.023437 l 0.011719,-0.023437 0.9023437,-3.28125 -0.035156,-0.023437 c -1.03125,0.1875 -1.2304688,0.2226562 -1.6289063,0.2578125 v 0.1640625 c 0.5390625,0 0.6328125,0.035156 0.6328125,0.2460937 0,0.070312 -0.023437,0.234375 -0.082031,0.4453125 l -0.4921881,1.804686 C 5.6685,-0.98552344 5.6099062,-0.66911719 5.6099062,-0.46989844 c 0,0.375 0.1640625,0.5859375 0.46875,0.5859375 0.46875,0 0.84375,-0.31640625 1.4296875,-1.17187496 z m -0.082031,-5.5195312 c -0.2695313,0 -0.4804688,0.234375 -0.4804688,0.5507812 0,0.3164063 0.1992188,0.5390625 0.4921875,0.5390625 0.2695313,0 0.5039063,-0.234375 0.5039063,-0.5273437 0,-0.2929688 -0.234375,-0.5625 -0.515625,-0.5625 z m 0,0"
       style="fill:#000000;fill-opacity:1;fill-rule:nonzero;stroke:none"
       aria-label="gi"
       transform="matrix(1.3333333,0,0,1.3333333,429.192,787.232)" />
    <path
       id="path362"
       d="m 3283,1615 h 154 v 154 h -154 z"
       style="fill:#000000;fill-opacity:1;fill-rule:nonzero;stroke:none"
       transform="matrix(0.13333333,0,0,-0.13333333,0,1056)" />
    <path
       id="path363"
       d="m 3291,1623 h 138 v 139 h -138 z"
       style="fill:#cccccc;fill-opacity:1;fill-rule:nonzero;stroke:none"
       transform="matrix(0.13333333,0,0,-0.13333333,0,1056)" />
    <path
       id="path364"
       d="M 4.8178516,-4.1356094 H 4.1967578 c -0.035156,0 -0.082031,-0.011719 -0.1640625,-0.082031 -0.2695312,-0.1757813 -0.609375,-0.28125 -0.9960937,-0.28125 -1.1367188,0 -2.05078129,0.7851562 -2.05078129,1.7460937 0,0.5273438 0.22265629,0.8320313 0.79687499,1.1015625 -0.5976562,0.4101563 -0.78515624,0.609375 -0.78515624,0.85546877 0,0.12890625 0.0820312,0.2578125 0.28125004,0.3984375 -1.00781254,0.66796875 -1.19531254,0.8671875 -1.19531254,1.3359375 0,0.70312503 0.66796875,1.16015623 1.69921874,1.16015623 1.2890625,0 2.1445313,-0.5976562 2.1445313,-1.48828123 0,-0.64453125 -0.4804688,-1.08984375 -1.453125,-1.34765625 C 2.0170703,-0.84264063 1.7592578,-1.0067031 1.7592578,-1.1590469 c 0,-0.1523437 0.234375,-0.421875 0.3632813,-0.421875 0.023437,0 0.046875,0 0.070312,0.011719 0.082031,0.023437 0.2226562,0.023437 0.3164062,0.023437 0.9375,0 1.8867188,-0.8203125 1.8867188,-1.6171875 0,-0.1640625 -0.023437,-0.3632813 -0.082031,-0.5742188 h 0.5039063 z m -3.3046875,3.85546877 c 0.011719,0 0.035156,0 0.046875,0.0117188 0.035156,0.0117188 0.140625,0.046875 0.3046875,0.09375 1.078125,0.33984375 1.453125,0.62109375 1.453125,1.08984375 0,0.55078118 -0.5859375,0.96093748 -1.3828125,0.96093748 -0.8085938,0 -1.28906254,-0.3867188 -1.28906254,-1.04296873 0,-0.234375 0.0585938,-0.41015625 0.22265625,-0.609375 0.12890625,-0.1757813 0.56249999,-0.5039063 0.64453129,-0.5039063 z M 3.0248828,-4.2762344 c 0.375,0 0.5742188,0.2460938 0.5742188,0.7265625 0,0.3515625 -0.1289063,0.8085938 -0.3164063,1.1484375 -0.234375,0.421875 -0.5507812,0.6445313 -0.890625,0.6445313 -0.3867187,0 -0.609375,-0.28125 -0.609375,-0.7617188 0,-0.9375 0.5742188,-1.7578125 1.2421875,-1.7578125 z m 4.3417969,3.1171875 c -0.2460938,0.32812502 -0.3164063,0.41015627 -0.4101563,0.51562502 -0.1757812,0.17578125 -0.328125,0.28125 -0.421875,0.28125 -0.082031,0 -0.1640625,-0.0820313 -0.1640625,-0.15234375 0,-0.10546875 0.035156,-0.2578125 0.1054688,-0.45703125 0,-0.0234375 0.023437,-0.09375 0.046875,-0.17578122 v -0.023437 l 0.011719,-0.023437 0.9023438,-3.28125 -0.035156,-0.023437 c -1.03125,0.1875 -1.2304687,0.2226562 -1.6289062,0.2578125 v 0.1640625 c 0.5390625,0 0.6328125,0.035156 0.6328125,0.2460937 0,0.070312 -0.023437,0.234375 -0.082031,0.4453125 l -0.4921875,1.8046875 c -0.1640625,0.59765627 -0.2226562,0.91406252 -0.2226562,1.11328127 0,0.375 0.1640625,0.5859375 0.46875,0.5859375 0.46875,0 0.84375,-0.31640625 1.4296875,-1.17187497 z m -0.082031,-5.5195312 c -0.2695312,0 -0.4804687,0.234375 -0.4804687,0.5507812 0,0.3164063 0.1992187,0.5390625 0.4921875,0.5390625 0.2695312,0 0.5039062,-0.234375 0.5039062,-0.5273437 0,-0.2929688 -0.234375,-0.5625 -0.515625,-0.5625 z m 0,0"
       style="fill:#000000;fill-opacity:1;fill-rule:nonzero;stroke:none"
       aria-label="gi"
       transform="matrix(1.3333333,0,0,1.3333333,442.80667,834.88133)" />
    <path
       id="path365"
       d="m 3079,1615 h 154 v 154 h -154 z"
       style="fill:#000000;fill-opacity:1;fill-rule:nonzero;stroke:none"
       transform="matrix(0.13333333,0,0,-0.13333333,0,1056)" />
    <path
       id="path366"
       d="m 3086,1623 h 139 v 139 h -139 z"
       style="fill:#cccccc;fill-opacity:1;fill-rule:nonzero;stroke:none"
       transform="matrix(0.13333333,0,0,-0.13333333,0,1056)" />
    <path
       id="path367"
       d="m 2.2630703,-1.1590469 c -0.2460937,0.32812502 -0.3164062,0.41015627 -0.4101562,0.51562502 -0.1757813,0.17578125 -0.328125,0.28125 -0.421875,0.28125 -0.082031,0 -0.1640625,-0.0820313 -0.1640625,-0.15234375 0,-0.10546875 0.035156,-0.2578125 0.1054687,-0.45703125 0,-0.0234375 0.023437,-0.09375 0.046875,-0.17578122 v -0.023437 l 0.011719,-0.023437 0.9023437,-3.28125 -0.035156,-0.023437 c -1.03125,0.1875 -1.2304688,0.2226562 -1.62890629,0.2578125 v 0.1640625 c 0.53906249,0 0.63281249,0.035156 0.63281249,0.2460937 0,0.070312 -0.023437,0.234375 -0.082031,0.4453125 l -0.49218754,1.8046875 c -0.1640625,0.59765627 -0.22265625,0.91406252 -0.22265625,1.11328127 0,0.375 0.1640625,0.5859375 0.46875,0.5859375 0.46874999,0 0.84374999,-0.31640625 1.42968749,-1.17187497 z m -0.082031,-5.5195312 c -0.2695313,0 -0.4804688,0.234375 -0.4804688,0.5507812 0,0.3164063 0.1992188,0.5390625 0.4921875,0.5390625 0.2695313,0 0.5039063,-0.234375 0.5039063,-0.5273437 0,-0.2929688 -0.234375,-0.5625 -0.515625,-0.5625 z m 3.1640625,2.203125 -0.023437,-0.023437 c -0.9140625,0.1640625 -1.4179688,0.2460937 -1.734375,0.2578125 v 0.1640625 H 3.856821 l 0.070312,-0.011719 c 0.082031,-0.011719 0.2929688,0.046875 0.3398438,0.09375 0.035156,0.035156 0.070312,0.1289063 0.070312,0.234375 0,0.09375 -0.046875,0.375 -0.1640625,0.8085938 L 3.4349453,0.03626562 C 3.0951016,1.4307969 2.8607266,1.8761094 2.4505703,1.8761094 c -0.1289062,0 -0.1875,-0.035156 -0.1875,-0.1054688 0,-0.046875 0.011719,-0.070312 0.058594,-0.1171875 0.058594,-0.082031 0.082031,-0.1289062 0.082031,-0.2109375 0,-0.2109375 -0.1875,-0.375 -0.421875,-0.375 -0.234375,0 -0.4101562,0.1757813 -0.4101562,0.421875 0,0.3632813 0.3398437,0.6210938 0.8085937,0.6210938 0.890625,0 1.5,-0.7734375 1.9101563,-2.39062503 z M 5.145883,-6.6785781 c -0.28125,0 -0.4804687,0.234375 -0.4804687,0.5507812 0,0.3164063 0.1875,0.5390625 0.4921875,0.5390625 0.2578125,0 0.4921875,-0.234375 0.4921875,-0.5273437 0,-0.2929688 -0.234375,-0.5625 -0.5039063,-0.5625 z m 0,0"
       style="fill:#000000;fill-opacity:1;fill-rule:nonzero;stroke:none"
       aria-label="ij"
       transform="matrix(1.3333333,0,0,1.3333333,416.97867,834.88133)" />
    <path
       id="path368"
       d="m 2875,1973 h 154 v 154 h -154 z"
       style="fill:#000000;fill-opacity:1;fill-rule:nonzero;stroke:none"
       transform="matrix(0.13333333,0,0,-0.13333333,0,1056)" />
    <path
       id="path369"
       d="m 2882,1980 h 139 v 139 h -139 z"
       style="fill:#cccccc;fill-opacity:1;fill-rule:nonzero;stroke:none"
       transform="matrix(0.13333333,0,0,-0.13333333,0,1056)" />
    <path
       id="path370"
       d="M 0.35054688,-4.0441172 H 1.2763281 L 0.37398438,0.24494531 c -0.22265625,1.08984379 -0.5625,1.65234379 -0.984375,1.65234379 -0.12890625,0 -0.2109375,-0.070312 -0.2109375,-0.1640625 0,-0.035156 0.0117188,-0.058594 0.046875,-0.1171875 0.0351563,-0.058594 0.046875,-0.09375 0.046875,-0.1523438 0,-0.2226562 -0.1875,-0.3984375 -0.39843748,-0.3984375 -0.2109375,0 -0.375,0.1875 -0.375,0.421875 0,0.3515625 0.3515625,0.6210938 0.80859373,0.6210938 0.90234375,0 1.6171875,-1.0078125 2.03906247,-2.88281254 L 2.0849219,-4.0441172 h 1.1132812 l 0.058594,-0.328125 H 2.1552344 c 0.2929687,-1.6054687 0.6679687,-2.3203125 1.2421875,-2.3203125 0.1289062,0 0.2226562,0.046875 0.2226562,0.1171875 0,0.035156 -0.011719,0.046875 -0.035156,0.1054688 -0.046875,0.09375 -0.070312,0.140625 -0.070312,0.2109375 0,0.2460937 0.1640625,0.4101562 0.3867187,0.4101562 0.234375,0 0.421875,-0.1875 0.421875,-0.4101562 0,-0.375 -0.375,-0.6679688 -0.8789062,-0.6679688 -0.4921875,0 -0.890625,0.234375 -1.265625,0.7148438 -0.3046875,0.3984375 -0.5039063,0.8671875 -0.8085938,1.8398437 H 0.43257813 Z m 7.30371092,-0.09375 H 7.0331641 c -0.035156,0 -0.082031,-0.011719 -0.1640625,-0.082031 -0.2695313,-0.1757813 -0.609375,-0.28125 -0.9960938,-0.28125 -1.1367187,0 -2.0507812,0.7851562 -2.0507812,1.7460937 0,0.5273438 0.2226562,0.8320313 0.796875,1.1015625 -0.5976563,0.4101563 -0.7851563,0.609375 -0.7851563,0.85546876 0,0.12890625 0.082031,0.2578125 0.28125,0.3984375 -1.0078125,0.66796875 -1.1953125,0.8671875 -1.1953125,1.3359375 0,0.70312504 0.6679688,1.16015624 1.6992188,1.16015624 1.2890625,0 2.1445312,-0.5976562 2.1445312,-1.48828124 0,-0.64453125 -0.4804687,-1.08984375 -1.453125,-1.34765625 C 4.8534766,-0.84489844 4.5956641,-1.0089609 4.5956641,-1.1613047 c 0,-0.1523437 0.234375,-0.421875 0.3632812,-0.421875 0.023437,0 0.046875,0 0.070312,0.011719 0.082031,0.023437 0.2226563,0.023437 0.3164063,0.023437 0.9375,0 1.8867187,-0.8203125 1.8867187,-1.6171875 0,-0.1640625 -0.023437,-0.3632813 -0.082031,-0.5742188 h 0.5039062 z m -3.3046875,3.85546876 c 0.011719,0 0.035156,0 0.046875,0.0117188 0.035156,0.0117188 0.140625,0.046875 0.3046875,0.09375 1.078125,0.33984375 1.453125,0.62109375 1.453125,1.08984375 0,0.55078119 -0.5859375,0.96093759 -1.3828125,0.96093759 -0.8085937,0 -1.2890625,-0.3867188 -1.2890625,-1.04296884 0,-0.234375 0.058594,-0.41015625 0.2226563,-0.609375 0.1289062,-0.17578125 0.5625,-0.50390625 0.6445312,-0.5039063 z M 5.8612891,-4.2784922 c 0.375,0 0.5742187,0.2460938 0.5742187,0.7265625 0,0.3515625 -0.1289062,0.8085938 -0.3164062,1.1484375 -0.234375,0.421875 -0.5507813,0.6445313 -0.890625,0.6445313 -0.3867188,0 -0.609375,-0.28125 -0.609375,-0.7617188 0,-0.9375 0.5742187,-1.7578125 1.2421875,-1.7578125 z m 0,0"
       style="fill:#000000;fill-opacity:1;fill-rule:nonzero;stroke:none"
       aria-label="fg"
       transform="matrix(1.3333333,0,0,1.3333333,388.44667,787.232)" />
    <path
       id="path371"
       d="m 2492.16,2407.15 c 0,42.3 -34.29,76.58 -76.58,76.58 -42.29,0 -76.58,-34.28 -76.58,-76.58 0,-42.29 34.29,-76.58 76.58,-76.58 42.29,0 76.58,34.29 76.58,76.58"
       style="fill:#000000;fill-opacity:1;fill-rule:nonzero;stroke:none"
       transform="matrix(0.13333333,0,0,-0.13333333,0,1056)" />
    <path
       id="path372"
       d="m 2484.5,2407.15 c 0,38.07 -30.86,68.92 -68.92,68.92 -38.07,0 -68.92,-30.85 -68.92,-68.92 0,-38.06 30.85,-68.92 68.92,-68.92 38.06,0 68.92,30.86 68.92,68.92"
       style="fill:#cccccc;fill-opacity:1;fill-rule:nonzero;stroke:none"
       transform="matrix(0.13333333,0,0,-0.13333333,0,1056)" />
    <path
       id="path373"
       d="m 3.6551328,-1.1118281 c -0.7382812,0.59765622 -1.0546875,0.76171872 -1.4882812,0.76171872 -0.5859375,0 -0.9609375,-0.36328125 -0.9609375,-0.91406252 0,-0.1523437 0.023437,-0.3046875 0.09375,-0.6328125 l 0.2929687,-0.035156 c 1.5351563,-0.2226563 2.6132813,-0.9960938 2.6132813,-1.875 0,-0.421875 -0.3046875,-0.6914063 -0.8203125,-0.6914063 -1.4648438,0 -3.07031254,1.6875 -3.07031254,3.2109375 0,0.83203127 0.55078125,1.40625002 1.34765624,1.40625002 0.7265625,0 1.5117188,-0.421875 2.109375,-1.1015625 z m -2.109375,-1.453125 c 0.3515625,-0.9140625 1.1015625,-1.6992188 1.6289063,-1.6992188 0.2109375,0 0.3515625,0.1640625 0.3515625,0.3984375 0,0.3164063 -0.1875,0.6796875 -0.5039063,0.984375 -0.375,0.3632813 -0.7734375,0.5507813 -1.640625,0.7617188 z M 9.3504453,-4.1352656 H 8.7293516 c -0.035156,0 -0.082031,-0.011719 -0.1640625,-0.082031 -0.2695313,-0.1757812 -0.609375,-0.28125 -0.9960938,-0.28125 -1.1367187,0 -2.0507812,0.7851563 -2.0507812,1.7460938 0,0.5273437 0.2226562,0.8320312 0.796875,1.1015625 -0.5976563,0.4101562 -0.7851563,0.609375 -0.7851563,0.85546872 0,0.12890625 0.082031,0.2578125 0.28125,0.3984375 -1.0078125,0.66796875 -1.1953125,0.8671875 -1.1953125,1.3359375 0,0.70312498 0.6679688,1.16015628 1.6992188,1.16015628 1.2890625,0 2.1445312,-0.5976563 2.1445312,-1.48828128 0,-0.64453125 -0.4804687,-1.08984375 -1.453125,-1.34765625 C 6.5496641,-0.84229688 6.2918516,-1.0063594 6.2918516,-1.1587031 c 0,-0.1523438 0.234375,-0.421875 0.3632812,-0.421875 0.023437,0 0.046875,0 0.070312,0.011719 0.082031,0.023437 0.2226563,0.023437 0.3164063,0.023437 0.9375,0 1.8867187,-0.8203125 1.8867187,-1.6171875 0,-0.1640625 -0.023437,-0.3632812 -0.082031,-0.5742187 H 9.350445 Z m -3.3046875,3.85546872 c 0.011719,0 0.035156,0 0.046875,0.0117188 0.035156,0.0117188 0.140625,0.046875 0.3046875,0.09375 1.078125,0.33984375 1.453125,0.62109375 1.453125,1.08984375 0,0.55078123 -0.5859375,0.96093743 -1.3828125,0.96093743 -0.8085937,0 -1.2890625,-0.3867187 -1.2890625,-1.04296868 0,-0.234375 0.058594,-0.41015625 0.2226563,-0.609375 0.1289062,-0.17578125 0.5625,-0.50390625 0.6445312,-0.5039063 z M 7.5574766,-4.2758906 c 0.375,0 0.5742187,0.2460937 0.5742187,0.7265625 0,0.3515625 -0.1289062,0.8085937 -0.3164062,1.1484375 -0.234375,0.421875 -0.5507813,0.6445312 -0.890625,0.6445312 -0.3867188,0 -0.609375,-0.28125 -0.609375,-0.7617187 0,-0.9375 0.5742187,-1.7578125 1.2421875,-1.7578125 z m 0,0"
       style="fill:#000000;fill-opacity:1;fill-rule:nonzero;stroke:none"
       aria-label="eg"
       transform="matrix(1.3333333,0,0,1.3333333,315.84133,739.584)" />
    <path
       id="path374"
       d="m 2721.9,2049.79 c 0,42.29 -34.29,76.58 -76.58,76.58 -42.3,0 -76.58,-34.29 -76.58,-76.58 0,-42.3 34.28,-76.58 76.58,-76.58 42.29,0 76.58,34.28 76.58,76.58"
       style="fill:#000000;fill-opacity:1;fill-rule:nonzero;stroke:none"
       transform="matrix(0.13333333,0,0,-0.13333333,0,1056)" />
    <path
       id="path375"
       d="m 2714.24,2049.79 c 0,38.06 -30.86,68.92 -68.92,68.92 -38.07,0 -68.93,-30.86 -68.93,-68.92 0,-38.07 30.86,-68.92 68.93,-68.92 38.06,0 68.92,30.85 68.92,68.92"
       style="fill:#cccccc;fill-opacity:1;fill-rule:nonzero;stroke:none"
       transform="matrix(0.13333333,0,0,-0.13333333,0,1056)" />
    <path
       id="path376"
       d="m 3.6557422,-1.1144297 c -0.7382813,0.59765626 -1.0546875,0.76171876 -1.4882813,0.76171876 -0.5859375,0 -0.9609375,-0.36328125 -0.9609375,-0.91406246 0,-0.1523438 0.023437,-0.3046875 0.09375,-0.6328125 l 0.2929688,-0.035156 c 1.5351562,-0.2226562 2.6132812,-0.9960937 2.6132812,-1.875 0,-0.421875 -0.3046875,-0.6914062 -0.8203125,-0.6914062 -1.4648437,0 -3.07031246,1.6875 -3.07031246,3.2109375 0,0.83203121 0.55078125,1.40624996 1.34765626,1.40624996 0.7265625,0 1.5117187,-0.421875 2.109375,-1.1015625 z m -2.109375,-1.453125 c 0.3515625,-0.9140625 1.1015625,-1.6992187 1.6289062,-1.6992187 0.2109375,0 0.3515625,0.1640625 0.3515625,0.3984375 0,0.3164062 -0.1875,0.6796875 -0.5039062,0.984375 -0.375,0.3632812 -0.7734375,0.5507812 -1.640625,0.7617187 z M 9.3510547,-4.1378672 H 8.7299609 c -0.035156,0 -0.082031,-0.011719 -0.1640625,-0.082031 -0.2695312,-0.1757813 -0.609375,-0.28125 -0.9960937,-0.28125 -1.1367188,0 -2.0507813,0.7851562 -2.0507813,1.7460937 0,0.5273438 0.2226563,0.8320313 0.796875,1.1015625 -0.5976562,0.4101563 -0.7851562,0.609375 -0.7851562,0.85546876 0,0.12890625 0.082031,0.2578125 0.28125,0.3984375 -1.0078125,0.66796875 -1.1953125,0.8671875 -1.1953125,1.3359375 0,0.70312504 0.6679687,1.16015624 1.6992187,1.16015624 1.2890625,0 2.1445313,-0.5976562 2.1445313,-1.48828124 0,-0.64453125 -0.4804688,-1.08984375 -1.453125,-1.34765625 C 6.5502734,-0.84489844 6.2924609,-1.0089609 6.2924609,-1.1613047 c 0,-0.1523437 0.234375,-0.421875 0.3632813,-0.421875 0.023437,0 0.046875,0 0.070312,0.011719 0.082031,0.023437 0.2226562,0.023437 0.3164062,0.023437 0.9375,0 1.8867188,-0.8203125 1.8867188,-1.6171875 0,-0.1640625 -0.023437,-0.3632813 -0.082031,-0.5742188 h 0.5039063 z m -3.3046875,3.85546876 c 0.011719,0 0.035156,0 0.046875,0.0117188 0.035156,0.0117188 0.140625,0.046875 0.3046875,0.09375 1.078125,0.33984375 1.453125,0.62109375 1.453125,1.08984375 0,0.55078119 -0.5859375,0.96093759 -1.3828125,0.96093759 -0.8085938,0 -1.2890625,-0.3867188 -1.2890625,-1.04296884 0,-0.234375 0.058594,-0.41015625 0.2226562,-0.609375 0.1289063,-0.17578125 0.5625,-0.50390625 0.6445313,-0.5039063 z M 7.5580859,-4.2784922 c 0.375,0 0.5742188,0.2460938 0.5742188,0.7265625 0,0.3515625 -0.1289063,0.8085938 -0.3164063,1.1484375 -0.234375,0.421875 -0.5507812,0.6445313 -0.890625,0.6445313 -0.3867187,0 -0.609375,-0.28125 -0.609375,-0.7617188 0,-0.9375 0.5742188,-1.7578125 1.2421875,-1.7578125 z m 0,0"
       style="fill:#000000;fill-opacity:1;fill-rule:nonzero;stroke:none"
       aria-label="eg"
       transform="matrix(1.3333333,0,0,1.3333333,346.47333,787.232)" />
    <path
       id="path377"
       d="m 2670,1615 h 155 v 154 h -155 z"
       style="fill:#000000;fill-opacity:1;fill-rule:nonzero;stroke:none"
       transform="matrix(0.13333333,0,0,-0.13333333,0,1056)" />
    <path
       id="path378"
       d="m 2678,1623 h 139 v 139 h -139 z"
       style="fill:#cccccc;fill-opacity:1;fill-rule:nonzero;stroke:none"
       transform="matrix(0.13333333,0,0,-0.13333333,0,1056)" />
    <path
       id="path379"
       d="m 3.6576328,-1.1121719 c -0.7382812,0.59765627 -1.0546875,0.76171877 -1.4882812,0.76171877 -0.5859375,0 -0.9609375,-0.36328125 -0.9609375,-0.91406247 0,-0.1523438 0.023437,-0.3046875 0.09375,-0.6328125 l 0.2929687,-0.035156 c 1.5351563,-0.2226562 2.6132813,-0.9960937 2.6132813,-1.875 0,-0.421875 -0.3046875,-0.6914062 -0.8203125,-0.6914062 -1.4648438,0 -3.07031254,1.6875 -3.07031254,3.2109375 0,0.83203122 0.55078125,1.40624997 1.34765624,1.40624997 0.7265625,0 1.5117188,-0.421875 2.109375,-1.1015625 z m -2.109375,-1.453125 c 0.3515625,-0.9140625 1.1015625,-1.6992187 1.6289063,-1.6992187 0.2109375,0 0.3515625,0.1640625 0.3515625,0.3984375 0,0.3164062 -0.1875,0.6796875 -0.5039063,0.984375 -0.375,0.3632812 -0.7734375,0.5507812 -1.640625,0.7617187 z M 9.3500156,-4.1356094 H 8.7289219 c -0.035156,0 -0.082031,-0.011719 -0.1640625,-0.082031 -0.2695313,-0.1757813 -0.609375,-0.28125 -0.9960938,-0.28125 -1.1367187,0 -2.0507812,0.7851562 -2.0507812,1.7460937 0,0.5273438 0.2226562,0.8320313 0.796875,1.1015625 -0.5976563,0.4101563 -0.7851563,0.609375 -0.7851563,0.85546877 0,0.12890625 0.082031,0.2578125 0.28125,0.3984375 -1.0078125,0.66796875 -1.1953125,0.8671875 -1.1953125,1.3359375 0,0.70312503 0.6679688,1.16015623 1.6992188,1.16015623 1.2890625,0 2.1445312,-0.5976562 2.1445312,-1.48828123 0,-0.64453125 -0.4804687,-1.08984375 -1.453125,-1.34765625 C 6.5492344,-0.84264063 6.2914219,-1.0067031 6.2914219,-1.1590469 c 0,-0.1523437 0.234375,-0.421875 0.3632812,-0.421875 0.023437,0 0.046875,0 0.070312,0.011719 0.082031,0.023437 0.2226563,0.023437 0.3164063,0.023437 0.9375,0 1.8867187,-0.8203125 1.8867187,-1.6171875 0,-0.1640625 -0.023437,-0.3632813 -0.082031,-0.5742188 h 0.5039062 z m -3.3046875,3.85546877 c 0.011719,0 0.035156,0 0.046875,0.0117188 0.035156,0.0117188 0.140625,0.046875 0.3046875,0.09375 1.078125,0.33984375 1.453125,0.62109375 1.453125,1.08984375 0,0.55078118 -0.5859375,0.96093748 -1.3828125,0.96093748 -0.8085937,0 -1.2890625,-0.3867188 -1.2890625,-1.04296873 0,-0.234375 0.058594,-0.41015625 0.2226563,-0.609375 0.1289062,-0.17578125 0.5625,-0.50390625 0.6445312,-0.5039063 z M 7.5570469,-4.2762344 c 0.375,0 0.5742187,0.2460938 0.5742187,0.7265625 0,0.3515625 -0.1289062,0.8085938 -0.3164062,1.1484375 -0.234375,0.421875 -0.5507813,0.6445313 -0.890625,0.6445313 -0.3867188,0 -0.609375,-0.28125 -0.609375,-0.7617188 0,-0.9375 0.5742187,-1.7578125 1.2421875,-1.7578125 z m 0,0"
       style="fill:#000000;fill-opacity:1;fill-rule:nonzero;stroke:none"
       aria-label="eg"
       transform="matrix(1.3333333,0,0,1.3333333,360.088,834.88133)" />
    <path
       id="path380"
       d="m 2466,1615 h 154 v 154 h -154 z"
       style="fill:#000000;fill-opacity:1;fill-rule:nonzero;stroke:none"
       transform="matrix(0.13333333,0,0,-0.13333333,0,1056)" />
    <path
       id="path381"
       d="m 2474,1623 h 139 v 139 h -139 z"
       style="fill:#cccccc;fill-opacity:1;fill-rule:nonzero;stroke:none"
       transform="matrix(0.13333333,0,0,-0.13333333,0,1056)" />
    <path
       id="path382"
       d="m 4.7240078,-1.1356094 c -0.5507812,0.63281252 -0.65625,0.72656252 -0.8320312,0.72656252 -0.1054688,0 -0.1875,-0.09375 -0.1875,-0.19921875 0,-0.140625 0.328125,-1.39453127 0.6679687,-2.51953127 0.2695313,-0.9375 0.4921875,-1.7460937 1.0078125,-3.796875 l -0.046875,-0.046875 c -0.5390625,0.1171875 -0.9140625,0.1757813 -1.5703125,0.234375 v 0.1757813 c 0.5625,0.023437 0.6328125,0.046875 0.6328125,0.2695312 0,0.1289063 0,0.1875 -0.1523437,0.7148438 l -0.4453125,1.6640625 c -0.082031,-0.421875 -0.2695313,-0.5859375 -0.6679688,-0.5859375 -1.3242187,0 -2.97656249,1.921875 -2.97656249,3.4453125 0,0.72656247 0.41015625,1.17187497 1.07812499,1.17187497 0.6914063,0 1.1367188,-0.328125 1.828125,-1.34765627 -0.1054687,0.51562502 -0.1289062,0.66796877 -0.1289062,0.90234377 0,0.28125 0.1757812,0.45703125 0.4335937,0.45703125 0.421875,0 0.9492188,-0.41015625 1.4882813,-1.16015622 z m -1.546875,-3.1289062 c 0.3046875,0.023437 0.4570313,0.2109375 0.4570313,0.5859375 0,1.546875 -1.0664063,3.30468747 -2.0039063,3.30468747 -0.3398437,0 -0.5859375,-0.28125 -0.5859375,-0.67968747 0,-0.84375 0.5039063,-2.0273438 1.1835938,-2.7421875 0.28125,-0.2929688 0.65625,-0.4921875 0.9492187,-0.46875 z m 6.7441406,0.1289062 H 9.3001797 c -0.035156,0 -0.082031,-0.011719 -0.1640625,-0.082031 -0.2695313,-0.1757813 -0.609375,-0.28125 -0.9960938,-0.28125 -1.1367187,0 -2.0507812,0.7851562 -2.0507812,1.7460937 0,0.5273438 0.2226562,0.8320313 0.796875,1.1015625 -0.5976563,0.4101563 -0.7851563,0.609375 -0.7851563,0.85546877 0,0.12890625 0.082031,0.2578125 0.28125,0.3984375 -1.0078125,0.66796875 -1.1953125,0.8671875 -1.1953125,1.3359375 0,0.70312503 0.6679688,1.16015623 1.6992188,1.16015623 1.2890625,0 2.1445312,-0.5976562 2.1445312,-1.48828123 0,-0.64453125 -0.4804687,-1.08984375 -1.453125,-1.34765625 C 7.1204922,-0.84264063 6.8626797,-1.0067031 6.8626797,-1.1590469 c 0,-0.1523437 0.234375,-0.421875 0.3632812,-0.421875 0.023437,0 0.046875,0 0.070312,0.011719 0.082031,0.023437 0.2226563,0.023437 0.3164063,0.023437 0.9375,0 1.8867187,-0.8203125 1.8867187,-1.6171875 0,-0.1640625 -0.023437,-0.3632813 -0.082031,-0.5742188 h 0.5039062 z m -3.3046875,3.85546877 c 0.011719,0 0.035156,0 0.046875,0.0117188 0.035156,0.0117188 0.140625,0.046875 0.3046875,0.09375 1.078125,0.33984375 1.453125,0.62109375 1.453125,1.08984375 0,0.55078118 -0.5859375,0.96093748 -1.3828125,0.96093748 -0.8085937,0 -1.2890625,-0.3867188 -1.2890625,-1.04296873 0,-0.234375 0.058594,-0.41015625 0.2226563,-0.609375 0.1289062,-0.17578125 0.5625,-0.50390625 0.6445312,-0.5039063 z M 8.1283047,-4.2762344 c 0.375,0 0.5742187,0.2460938 0.5742187,0.7265625 0,0.3515625 -0.1289062,0.8085938 -0.3164062,1.1484375 -0.234375,0.421875 -0.5507813,0.6445313 -0.890625,0.6445313 -0.3867188,0 -0.609375,-0.28125 -0.609375,-0.7617188 0,-0.9375 0.5742187,-1.7578125 1.2421875,-1.7578125 z m 0,0"
       style="fill:#000000;fill-opacity:1;fill-rule:nonzero;stroke:none"
       aria-label="dg"
       transform="matrix(1.3333333,0,0,1.3333333,332.47867,834.88133)" />
    <path
       id="path383"
       d="m 2109,1973 h 154 v 154 h -154 z"
       style="fill:#000000;fill-opacity:1;fill-rule:nonzero;stroke:none"
       transform="matrix(0.13333333,0,0,-0.13333333,0,1056)" />
    <path
       id="path384"
       d="m 2116,1980 h 139 v 139 h -139 z"
       style="fill:#cccccc;fill-opacity:1;fill-rule:nonzero;stroke:none"
       transform="matrix(0.13333333,0,0,-0.13333333,0,1056)" />
    <path
       id="path385"
       d="m 1.1240937,-6.5636484 c 0.5976563,0.023437 0.65625,0.046875 0.65625,0.2695312 0,0.09375 -0.023437,0.2226563 -0.082031,0.4453125 -0.023437,0.070312 -0.046875,0.140625 -0.058594,0.1875 l -0.023437,0.082031 -1.38281245,5.10937496 v 0.0351563 c 0,0.234375 0.78515625,0.55078125 1.35937495,0.55078125 1.5351563,0 3.234375,-1.79296871 3.234375,-3.39843741 0,-0.7148438 -0.5039062,-1.21875 -1.1835937,-1.21875 -0.7148438,0 -1.2421875,0.421875 -1.96875,1.5351562 L 2.729563,-6.9269299 2.682688,-6.9738049 c -0.5039063,0.09375 -0.8789063,0.1523438 -1.5585938,0.234375 z m 2.1210938,2.5664062 c 0.4335937,0 0.7148437,0.328125 0.7148437,0.8671875 0,0.6796875 -0.515625,1.7695313 -1.125,2.40234376 -0.375,0.38671875 -0.8203125,0.609375 -1.2539062,0.609375 -0.3164063,0 -0.46875,-0.1171875 -0.46875,-0.3515625 0,-0.60937496 0.3046875,-1.60546876 0.7382812,-2.35546876 0.4453125,-0.7851562 0.9023438,-1.171875 1.3945313,-1.171875 z m 6.6767578,-0.140625 H 9.3008516 c -0.035156,0 -0.082031,-0.011719 -0.1640625,-0.082031 -0.2695313,-0.1757813 -0.609375,-0.28125 -0.9960938,-0.28125 -1.1367187,0 -2.0507812,0.7851562 -2.0507812,1.7460937 0,0.5273438 0.2226562,0.8320313 0.796875,1.1015625 -0.5976563,0.4101563 -0.7851563,0.609375 -0.7851563,0.85546876 0,0.12890625 0.082031,0.2578125 0.28125,0.3984375 -1.0078125,0.66796875 -1.1953125,0.8671875 -1.1953125,1.3359375 0,0.70312504 0.6679688,1.16015624 1.6992188,1.16015624 1.2890625,0 2.1445312,-0.5976562 2.1445312,-1.48828124 0,-0.64453125 -0.4804687,-1.08984375 -1.453125,-1.34765625 C 7.1211641,-0.84489844 6.8633516,-1.0089609 6.8633516,-1.1613047 c 0,-0.1523437 0.234375,-0.421875 0.3632812,-0.421875 0.023437,0 0.046875,0 0.070312,0.011719 0.082031,0.023437 0.2226563,0.023437 0.3164063,0.023437 0.9375,0 1.8867187,-0.8203125 1.8867187,-1.6171875 0,-0.1640625 -0.023437,-0.3632813 -0.082031,-0.5742188 H 9.921945 Z m -3.3046875,3.85546876 c 0.011719,0 0.035156,0 0.046875,0.0117188 0.035156,0.0117188 0.140625,0.046875 0.3046875,0.09375 1.078125,0.33984375 1.453125,0.62109375 1.453125,1.08984375 0,0.55078119 -0.5859375,0.96093749 -1.3828125,0.96093749 -0.8085937,0 -1.2890625,-0.3867188 -1.2890625,-1.04296874 0,-0.234375 0.058594,-0.41015625 0.2226563,-0.609375 0.1289062,-0.17578125 0.5625,-0.50390625 0.6445312,-0.5039063 z M 8.1289766,-4.2784922 c 0.375,0 0.5742187,0.2460938 0.5742187,0.7265625 0,0.3515625 -0.1289062,0.8085938 -0.3164062,1.1484375 -0.234375,0.421875 -0.5507813,0.6445313 -0.890625,0.6445313 -0.3867188,0 -0.609375,-0.28125 -0.609375,-0.7617188 0,-0.9375 0.5742187,-1.7578125 1.2421875,-1.7578125 z m 0,0"
       style="fill:#000000;fill-opacity:1;fill-rule:nonzero;stroke:none"
       aria-label="bg"
       transform="matrix(1.3333333,0,0,1.3333333,284.82933,787.232)" />
    <path
       id="path386"
       d="m 2262,1615 h 154 v 154 h -154 z"
       style="fill:#000000;fill-opacity:1;fill-rule:nonzero;stroke:none"
       transform="matrix(0.13333333,0,0,-0.13333333,0,1056)" />
    <path
       id="path387"
       d="m 2270,1623 h 138 v 139 h -138 z"
       style="fill:#cccccc;fill-opacity:1;fill-rule:nonzero;stroke:none"
       transform="matrix(0.13333333,0,0,-0.13333333,0,1056)" />
    <path
       id="path388"
       d="m 1.1263672,-6.5613906 c 0.5976562,0.023437 0.65625,0.046875 0.65625,0.2695312 0,0.09375 -0.023437,0.2226563 -0.082031,0.4453125 -0.023437,0.070312 -0.046875,0.140625 -0.058594,0.1875 l -0.023437,0.082031 -1.38281251,5.10937497 v 0.0351563 c 0,0.234375 0.78515621,0.55078125 1.35937501,0.55078125 1.5351562,0 3.234375,-1.79296882 3.234375,-3.39843752 0,-0.7148438 -0.5039063,-1.21875 -1.1835938,-1.21875 -0.7148437,0 -1.2421875,0.421875 -1.96875,1.5351562 l 1.0546875,-3.9609374 -0.046875,-0.046875 c -0.5039062,0.09375 -0.8789062,0.1523437 -1.5585937,0.234375 z m 2.1210937,2.5664062 c 0.4335938,0 0.7148438,0.328125 0.7148438,0.8671875 0,0.6796875 -0.515625,1.7695313 -1.125,2.40234377 -0.375,0.38671875 -0.8203125,0.609375 -1.2539063,0.609375 -0.3164062,0 -0.46875,-0.1171875 -0.46875,-0.3515625 0,-0.60937497 0.3046875,-1.60546877 0.7382813,-2.35546877 0.4453125,-0.7851562 0.9023437,-1.171875 1.3945312,-1.171875 z m 5.4316407,2.9179688 c -0.5625,0.59765622 -0.9609375,0.82031247 -1.4648438,0.82031247 -0.5742187,0 -0.9257812,-0.43359375 -0.9257812,-1.16015627 0,-0.8671875 0.3632812,-1.78125 0.9257812,-2.3789062 0.3046875,-0.3046875 0.703125,-0.4921875 1.1015625,-0.4921875 0.234375,0 0.3867188,0.082031 0.3867188,0.2109375 0,0.046875 -0.011719,0.09375 -0.058594,0.1875 -0.070312,0.1289062 -0.09375,0.2109375 -0.09375,0.2929687 0,0.2460938 0.1523438,0.3984375 0.3984375,0.3984375 0.28125,0 0.4921875,-0.2109375 0.4921875,-0.4804687 0,-0.46875 -0.4570312,-0.8203125 -1.0664062,-0.8203125 -1.5351563,0 -2.9648438,1.4882812 -2.9648438,3.0820312 0,0.97265627 0.5507813,1.53515627 1.5,1.53515627 0.7617188,0 1.3242188,-0.31640625 1.9335938,-1.1015625 z m 0,0"
       style="fill:#000000;fill-opacity:1;fill-rule:nonzero;stroke:none"
       aria-label="bc"
       transform="matrix(1.3333333,0,0,1.3333333,305.53333,834.88133)" />
    <path
       id="path389"
       d="m 2109.26,1692.42 c 0,42.29 -34.28,76.58 -76.58,76.58 -42.29,0 -76.58,-34.29 -76.58,-76.58 0,-42.3 34.29,-76.58 76.58,-76.58 42.3,0 76.58,34.28 76.58,76.58"
       style="fill:#000000;fill-opacity:1;fill-rule:nonzero;stroke:none"
       transform="matrix(0.13333333,0,0,-0.13333333,0,1056)" />
    <path
       id="path390"
       d="m 2101.6,1692.42 c 0,38.06 -30.85,68.92 -68.92,68.92 -38.06,0 -68.92,-30.86 -68.92,-68.92 0,-38.07 30.86,-68.92 68.92,-68.92 38.07,0 68.92,30.85 68.92,68.92"
       style="fill:#cccccc;fill-opacity:1;fill-rule:nonzero;stroke:none"
       transform="matrix(0.13333333,0,0,-0.13333333,0,1056)" />
    <path
       id="path391"
       d="m 3.5740156,-1.0770156 c -0.5625,0.59765622 -0.9609375,0.82031247 -1.4648437,0.82031247 -0.5742188,0 -0.9257813,-0.43359375 -0.9257813,-1.16015627 0,-0.8671875 0.3632813,-1.78125 0.9257813,-2.3789062 0.3046875,-0.3046875 0.703125,-0.4921875 1.1015625,-0.4921875 0.234375,0 0.3867187,0.082031 0.3867187,0.2109375 0,0.046875 -0.011719,0.09375 -0.058594,0.1875 -0.070312,0.1289062 -0.09375,0.2109375 -0.09375,0.2929687 0,0.2460938 0.1523437,0.3984375 0.3984375,0.3984375 0.28125,0 0.4921875,-0.2109375 0.4921875,-0.4804687 0,-0.46875 -0.4570313,-0.8203125 -1.0664063,-0.8203125 -1.5351562,0 -2.96484372,1.4882812 -2.96484372,3.0820312 0,0.97265627 0.55078125,1.53515627 1.50000002,1.53515627 0.7617187,0 1.3242187,-0.31640625 1.9335937,-1.1015625 z M 9.3484297,-4.1356094 H 8.7273359 c -0.035156,0 -0.082031,-0.011719 -0.1640625,-0.082031 -0.2695312,-0.1757813 -0.609375,-0.28125 -0.9960937,-0.28125 -1.1367188,0 -2.0507813,0.7851562 -2.0507813,1.7460937 0,0.5273438 0.2226563,0.8320313 0.796875,1.1015625 -0.5976562,0.4101563 -0.7851562,0.609375 -0.7851562,0.85546877 0,0.12890625 0.082031,0.2578125 0.28125,0.3984375 -1.0078125,0.66796875 -1.1953125,0.8671875 -1.1953125,1.3359375 0,0.70312503 0.6679687,1.16015623 1.6992187,1.16015623 1.2890625,0 2.1445313,-0.5976562 2.1445313,-1.48828123 0,-0.64453125 -0.4804688,-1.08984375 -1.453125,-1.34765625 C 6.5476484,-0.84264063 6.2898359,-1.0067031 6.2898359,-1.1590469 c 0,-0.1523437 0.234375,-0.421875 0.3632813,-0.421875 0.023437,0 0.046875,0 0.070312,0.011719 0.082031,0.023437 0.2226562,0.023437 0.3164062,0.023437 0.9375,0 1.8867188,-0.8203125 1.8867188,-1.6171875 0,-0.1640625 -0.023437,-0.3632813 -0.082031,-0.5742188 h 0.5039063 z m -3.3046875,3.85546877 c 0.011719,0 0.035156,0 0.046875,0.0117188 0.035156,0.0117188 0.140625,0.046875 0.3046875,0.09375 1.078125,0.33984375 1.453125,0.62109375 1.453125,1.08984375 0,0.55078118 -0.5859375,0.96093748 -1.3828125,0.96093748 -0.8085938,0 -1.2890625,-0.3867188 -1.2890625,-1.04296873 0,-0.234375 0.058594,-0.41015625 0.2226562,-0.609375 0.1289063,-0.17578125 0.5625,-0.50390625 0.6445313,-0.5039063 z M 7.5554609,-4.2762344 c 0.375,0 0.5742188,0.2460938 0.5742188,0.7265625 0,0.3515625 -0.1289063,0.8085938 -0.3164063,1.1484375 -0.234375,0.421875 -0.5507812,0.6445313 -0.890625,0.6445313 -0.3867187,0 -0.609375,-0.28125 -0.609375,-0.7617188 0,-0.9375 0.5742188,-1.7578125 1.2421875,-1.7578125 z m 0,0"
       style="fill:#000000;fill-opacity:1;fill-rule:nonzero;stroke:none"
       aria-label="cg"
       transform="matrix(1.3333333,0,0,1.3333333,264.78933,834.88133)" />
    <path
       id="path392"
       d="m 2058,1258 h 154 v 154 h -154 z"
       style="fill:#000000;fill-opacity:1;fill-rule:nonzero;stroke:none"
       transform="matrix(0.13333333,0,0,-0.13333333,0,1056)" />
    <path
       id="path393"
       d="m 2065,1266 h 139 v 138 h -139 z"
       style="fill:#cccccc;fill-opacity:1;fill-rule:nonzero;stroke:none"
       transform="matrix(0.13333333,0,0,-0.13333333,0,1056)" />
    <path
       id="path394"
       d="m 3.5739766,-1.0776875 c -0.5625,0.59765625 -0.9609375,0.8203125 -1.4648438,0.8203125 -0.5742187,0 -0.9257812,-0.43359375 -0.9257812,-1.1601563 0,-0.8671875 0.3632812,-1.78125 0.9257812,-2.3789062 0.3046875,-0.3046875 0.703125,-0.4921875 1.1015625,-0.4921875 0.234375,0 0.3867188,0.082031 0.3867188,0.2109375 0,0.046875 -0.011719,0.09375 -0.058594,0.1875 -0.070312,0.1289062 -0.09375,0.2109375 -0.09375,0.2929687 0,0.2460938 0.1523438,0.3984375 0.3984375,0.3984375 0.28125,0 0.4921875,-0.2109375 0.4921875,-0.4804687 0,-0.46875 -0.4570312,-0.8203125 -1.0664062,-0.8203125 -1.5351563,0 -2.96484379,1.4882812 -2.96484379,3.0820312 0,0.9726563 0.55078125,1.5351563 1.49999999,1.5351563 0.7617188,0 1.3242188,-0.31640625 1.9335938,-1.1015625 z M 9.3513203,-4.1362813 H 8.7302266 c -0.035156,0 -0.082031,-0.011719 -0.1640625,-0.082031 -0.2695313,-0.1757813 -0.609375,-0.28125 -0.9960938,-0.28125 -1.1367187,0 -2.0507812,0.7851562 -2.0507812,1.7460937 0,0.5273438 0.2226562,0.8320313 0.796875,1.1015625 -0.5976563,0.4101563 -0.7851563,0.609375 -0.7851563,0.8554688 0,0.12890625 0.082031,0.2578125 0.28125,0.3984375 -1.0078125,0.66796875 -1.1953125,0.8671875 -1.1953125,1.3359375 0,0.703125 0.6679688,1.1601562 1.6992188,1.1601562 1.2890625,0 2.1445312,-0.5976562 2.1445312,-1.4882812 0,-0.64453125 -0.4804687,-1.08984375 -1.453125,-1.34765625 C 6.5505391,-0.8433125 6.2927266,-1.007375 6.2927266,-1.1597188 c 0,-0.1523437 0.234375,-0.421875 0.3632812,-0.421875 0.023437,0 0.046875,0 0.070312,0.011719 0.082031,0.023437 0.2226563,0.023437 0.3164063,0.023437 0.9375,0 1.8867187,-0.8203125 1.8867187,-1.6171875 0,-0.1640625 -0.023437,-0.3632813 -0.082031,-0.5742188 H 9.35132 Z m -3.3046875,3.8554688 c 0.011719,0 0.035156,0 0.046875,0.0117188 0.035156,0.0117188 0.140625,0.046875 0.3046875,0.09375 C 7.4763203,0.1645 7.8513203,0.44575 7.8513203,0.9145 c 0,0.5507812 -0.5859375,0.9609375 -1.3828125,0.9609375 -0.8085937,0 -1.2890625,-0.3867188 -1.2890625,-1.04296875 0,-0.234375 0.058594,-0.41015625 0.2226563,-0.609375 0.1289062,-0.17578125 0.5625,-0.50390625 0.6445312,-0.50390625 z m 1.5117188,-3.9960938 c 0.375,0 0.5742187,0.2460938 0.5742187,0.7265625 0,0.3515625 -0.1289062,0.8085938 -0.3164062,1.1484375 -0.234375,0.421875 -0.5507813,0.6445313 -0.890625,0.6445313 -0.3867188,0 -0.609375,-0.28125 -0.609375,-0.7617188 0,-0.9375 0.5742187,-1.7578125 1.2421875,-1.7578125 z m 0,0"
       style="fill:#000000;fill-opacity:1;fill-rule:nonzero;stroke:none"
       aria-label="cg"
       transform="matrix(1.3333333,0,0,1.3333333,278.40267,882.53067)" />
    <path
       id="path395"
       d="m 1853,1258 h 155 v 154 h -155 z"
       style="fill:#000000;fill-opacity:1;fill-rule:nonzero;stroke:none"
       transform="matrix(0.13333333,0,0,-0.13333333,0,1056)" />
    <path
       id="path396"
       d="m 1861,1266 h 139 v 138 h -139 z"
       style="fill:#cccccc;fill-opacity:1;fill-rule:nonzero;stroke:none"
       transform="matrix(0.13333333,0,0,-0.13333333,0,1056)" />
    <path
       id="path397"
       d="m 257.39062,881.03125 c -0.20312,0.20313 -0.28125,0.28125 -0.375,0.39063 -0.40625,0.42187 -0.59375,0.54687 -0.71875,0.54687 -0.10937,0 -0.1875,-0.0781 -0.1875,-0.17187 0,-0.26563 0.57813,-2.59375 1.21875,-4.9375 0.0312,-0.14063 0.0469,-0.17188 0.0781,-0.28125 l -0.0937,-0.0469 -0.82813,0.0937 -0.0469,0.0469 -0.14063,0.64062 c -0.10937,-0.5 -0.51562,-0.78125 -1.09375,-0.78125 -1.79687,0 -3.89062,2.48438 -3.89062,4.64063 0,0.95312 0.51562,1.51562 1.39062,1.51562 0.95313,0 1.53125,-0.45312 2.73438,-2.14062 -0.28125,1.0625 -0.3125,1.23437 -0.3125,1.5625 0,0.39062 0.15625,0.5625 0.54687,0.5625 0.53125,0 0.875,-0.26563 1.89063,-1.5 z m -2.10937,-4.20312 c 0.46875,0.0312 0.76562,0.35937 0.76562,0.82812 0,1.14063 -0.6875,2.75 -1.625,3.76563 -0.32812,0.35937 -0.78125,0.59375 -1.1875,0.59375 -0.46875,0 -0.78125,-0.39063 -0.78125,-1.01563 0,-0.73437 0.51563,-2.14062 1.10938,-2.98437 0.53125,-0.79688 1.17187,-1.23438 1.71875,-1.1875 z m 7.36718,4.26562 c -0.75,0.79688 -1.28125,1.09375 -1.95312,1.09375 -0.76563,0 -1.23438,-0.57812 -1.23438,-1.54687 0,-1.15625 0.48438,-2.375 1.23438,-3.17188 0.40625,-0.40625 0.9375,-0.65625 1.46875,-0.65625 0.3125,0 0.51562,0.10938 0.51562,0.28125 0,0.0625 -0.0156,0.125 -0.0781,0.25 -0.0937,0.17188 -0.125,0.28125 -0.125,0.39063 0,0.32812 0.20312,0.53125 0.53125,0.53125 0.375,0 0.65625,-0.28125 0.65625,-0.64063 0,-0.625 -0.60938,-1.09375 -1.42188,-1.09375 -2.04687,0 -3.95312,1.98438 -3.95312,4.10938 0,1.29687 0.73437,2.04687 2,2.04687 1.01562,0 1.76562,-0.42187 2.57812,-1.46875 z m 0,0"
       style="fill:#000000;fill-opacity:1;fill-rule:nonzero;stroke:none;stroke-width:1.33333" />
  </g>
</svg>
