<?xml version="1.0" encoding="UTF-8" standalone="no"?>
<!-- Created with Inkscape (http://www.inkscape.org/) -->

<svg
   version="1.1"
   id="svg1"
   width="230.38657"
   height="162.03053"
   viewBox="0 0 230.38657 162.03053"
   xmlns="http://www.w3.org/2000/svg"
   xmlns:svg="http://www.w3.org/2000/svg">
  <defs
     id="defs1" />
  <g
     id="g1"
     transform="translate(-319.19998,-145.31349)">
    <path
       id="path2"
       d="m 3827.59,6303.23 199.37,-161.39"
       style="fill:none;stroke:#000000;stroke-width:9.49395;stroke-linecap:butt;stroke-linejoin:miter;stroke-miterlimit:10;stroke-dasharray:none;stroke-opacity:1"
       transform="matrix(0.13333333,0,0,-0.13333333,0,1056)" />
    <path
       id="path3"
       d="m 3827.59,6303.23 18.99,-161.39"
       style="fill:none;stroke:#000000;stroke-width:9.49395;stroke-linecap:butt;stroke-linejoin:miter;stroke-miterlimit:10;stroke-dasharray:none;stroke-opacity:1"
       transform="matrix(0.13333333,0,0,-0.13333333,0,1056)" />
    <path
       id="path4"
       d="M 3827.59,6303.23 3618.72,6141.84"
       style="fill:none;stroke:#000000;stroke-width:9.49395;stroke-linecap:butt;stroke-linejoin:miter;stroke-miterlimit:10;stroke-dasharray:none;stroke-opacity:1"
       transform="matrix(0.13333333,0,0,-0.13333333,0,1056)" />
    <path
       id="path5"
       d="M 3827.59,6303.23 3438.33,6141.84"
       style="fill:none;stroke:#000000;stroke-width:9.49395;stroke-linecap:butt;stroke-linejoin:miter;stroke-miterlimit:10;stroke-dasharray:none;stroke-opacity:1"
       transform="matrix(0.13333333,0,0,-0.13333333,0,1056)" />
    <path
       id="path6"
       d="m 2878.19,6303.23 199.37,-161.39"
       style="fill:none;stroke:#000000;stroke-width:9.49395;stroke-linecap:butt;stroke-linejoin:miter;stroke-miterlimit:10;stroke-dasharray:none;stroke-opacity:1"
       transform="matrix(0.13333333,0,0,-0.13333333,0,1056)" />
    <path
       id="path7"
       d="m 2878.19,6303.23 18.99,-161.39"
       style="fill:none;stroke:#000000;stroke-width:9.49395;stroke-linecap:butt;stroke-linejoin:miter;stroke-miterlimit:10;stroke-dasharray:none;stroke-opacity:1"
       transform="matrix(0.13333333,0,0,-0.13333333,0,1056)" />
    <path
       id="path8"
       d="M 2878.19,6303.23 2669.32,6141.84"
       style="fill:none;stroke:#000000;stroke-width:9.49395;stroke-linecap:butt;stroke-linejoin:miter;stroke-miterlimit:10;stroke-dasharray:none;stroke-opacity:1"
       transform="matrix(0.13333333,0,0,-0.13333333,0,1056)" />
    <path
       id="path9"
       d="M 2878.19,6303.23 2488.94,6141.84"
       style="fill:none;stroke:#000000;stroke-width:9.49395;stroke-linecap:butt;stroke-linejoin:miter;stroke-miterlimit:10;stroke-dasharray:none;stroke-opacity:1"
       transform="matrix(0.13333333,0,0,-0.13333333,0,1056)" />
    <path
       id="path10"
       d="m 3295.93,6645.01 531.66,-161.39"
       style="fill:none;stroke:#000000;stroke-width:9.49395;stroke-linecap:butt;stroke-linejoin:miter;stroke-miterlimit:10;stroke-dasharray:none;stroke-opacity:1"
       transform="matrix(0.13333333,0,0,-0.13333333,0,1056)" />
    <path
       id="path11"
       d="M 3295.93,6645.01 3647.2,6483.62"
       style="fill:none;stroke:#000000;stroke-width:9.49395;stroke-linecap:butt;stroke-linejoin:miter;stroke-miterlimit:10;stroke-dasharray:none;stroke-opacity:1"
       transform="matrix(0.13333333,0,0,-0.13333333,0,1056)" />
    <path
       id="path12"
       d="M 3295.93,6645.01 2878.19,6483.62"
       style="fill:none;stroke:#000000;stroke-width:9.49395;stroke-linecap:butt;stroke-linejoin:miter;stroke-miterlimit:10;stroke-dasharray:none;stroke-opacity:1"
       transform="matrix(0.13333333,0,0,-0.13333333,0,1056)" />
    <path
       id="path13"
       d="M 3295.93,6645.01 2697.81,6483.62"
       style="fill:none;stroke:#000000;stroke-width:9.49395;stroke-linecap:butt;stroke-linejoin:miter;stroke-miterlimit:10;stroke-dasharray:none;stroke-opacity:1"
       transform="matrix(0.13333333,0,0,-0.13333333,0,1056)" />
    <path
       id="path14"
       d="m 3618.72,5961.45 199.37,-161.4"
       style="fill:none;stroke:#000000;stroke-width:9.49395;stroke-linecap:butt;stroke-linejoin:miter;stroke-miterlimit:10;stroke-dasharray:none;stroke-opacity:1"
       transform="matrix(0.13333333,0,0,-0.13333333,0,1056)" />
    <path
       id="path15"
       d="m 3618.72,5961.45 18.99,-161.4"
       style="fill:none;stroke:#000000;stroke-width:9.49395;stroke-linecap:butt;stroke-linejoin:miter;stroke-miterlimit:10;stroke-dasharray:none;stroke-opacity:1"
       transform="matrix(0.13333333,0,0,-0.13333333,0,1056)" />
    <path
       id="path16"
       d="m 3618.72,5961.45 -208.87,-161.4"
       style="fill:none;stroke:#000000;stroke-width:9.49395;stroke-linecap:butt;stroke-linejoin:miter;stroke-miterlimit:10;stroke-dasharray:none;stroke-opacity:1"
       transform="matrix(0.13333333,0,0,-0.13333333,0,1056)" />
    <path
       id="path17"
       d="m 3618.72,5961.45 -389.25,-161.4"
       style="fill:none;stroke:#000000;stroke-width:9.49395;stroke-linecap:butt;stroke-linejoin:miter;stroke-miterlimit:10;stroke-dasharray:none;stroke-opacity:1"
       transform="matrix(0.13333333,0,0,-0.13333333,0,1056)" />
    <path
       id="path18"
       d="m 3932.02,5956.7 h 189.879 v 189.879 H 3932.02 Z"
       style="fill:#000000;fill-opacity:1;fill-rule:nonzero;stroke:none"
       transform="matrix(0.13333333,0,0,-0.13333333,0,1056)" />
    <path
       id="path19"
       d="m 3941.51,5966.2 h 170.892 v 170.892 H 3941.51 Z"
       style="fill:#d4d4d4;fill-opacity:1;fill-rule:nonzero;stroke:none"
       transform="matrix(0.13333333,0,0,-0.13333333,0,1056)" />
    <path
       id="path20"
       d="m 0.18782813,-4.9321953 c 0.15234375,-0.035156 0.24609375,-0.046875 0.375,-0.046875 0.70312497,0 0.89062497,0.3046875 1.46484377,2.4257812 0.2109375,0.796875 0.5039062,2.25000004 0.5039062,2.46093754 0,0.1875 -0.070312,0.38671875 -0.2578125,0.609375 C 1.8870469,1.0209297 1.6409531,1.3490547 1.5003281,1.4896797 c -0.2578125,0.28125 -0.3984375,0.375 -0.56249997,0.375 -0.0703125,0 -0.1640625,-0.035156 -0.29296875,-0.140625 -0.1875,-0.140625 -0.328125,-0.1992188 -0.45703125,-0.1992188 -0.26953125,0 -0.48046875,0.1992188 -0.48046875,0.4804688 0,0.3046875 0.26953125,0.5390625 0.62109375,0.5390625 0.79687497,0 2.41406247,-1.85156251 3.73828127,-4.3007813 0.84375,-1.5117187 1.1953125,-2.4023437 1.1953125,-3 0,-0.375 -0.3164063,-0.6796875 -0.6796875,-0.6796875 -0.2929688,0 -0.4804688,0.1757813 -0.4804688,0.4570313 0,0.1757812 0.09375,0.3164062 0.3398438,0.4804687 0.234375,0.1289063 0.3164062,0.2460938 0.3164062,0.4101563 0,0.5039062 -0.4570312,1.4648437 -1.5,3.19921874 L 3.0120469,-2.3189141 c -0.1875,-1.0898437 -0.8789063,-3.1171875 -1.0664063,-3.1171875 h -0.046875 c -0.011719,0.011719 -0.058594,0.011719 -0.1054687,0.011719 -0.1171875,0.011719 -0.5625,0.082031 -1.21875002,0.2109375 -0.0585938,0.011719 -0.2109375,0.046875 -0.38671875,0.070312 z m 6.28710937,1.125 C 6.73275,-4.4282891 6.8968125,-4.5454766 7.48275,-4.5454766 H 9.2757188 L 5.4554063,0.04827344 5.560875,0.16546094 c 0.1992188,-0.1640625 0.3632813,-0.22265625 0.5742188,-0.22265625 0.2929687,0 0.703125,0.15234375 1.2773437,0.515625 0.6210938,0.38671875 1.0429688,0.5390625 1.3828125,0.5390625 0.6210938,0 1.1601563,-0.4453125 1.1601563,-0.9375 0,-0.2578125 -0.1757813,-0.4453125 -0.4335938,-0.4453125 -0.2460937,0 -0.4101562,0.1640625 -0.4101562,0.38671875 0,0.10546875 0.035156,0.234375 0.1054687,0.375 0.035156,0.0703125 0.058594,0.140625 0.058594,0.17578125 0,0.1171875 -0.1289063,0.1875 -0.328125,0.1875 -0.3046875,0 -0.4570313,-0.09375 -0.8671875,-0.609375 -0.5390625,-0.703125 -0.7734375,-0.8671875 -1.4882813,-1.03125 L 10.166344,-5.1431328 v -0.140625 H 6.6624375 l -0.3867187,1.4179687 z m 0,0"
       style="fill:#000000;fill-opacity:1;fill-rule:nonzero;stroke:none"
       aria-label="yz"
       transform="matrix(1.3333333,0,0,1.3333333,530.148,254.64267)" />
    <path
       id="path21"
       d="m 3751.64,5956.7 h 189.879 v 189.879 H 3751.64 Z"
       style="fill:#000000;fill-opacity:1;fill-rule:nonzero;stroke:none"
       transform="matrix(0.13333333,0,0,-0.13333333,0,1056)" />
    <path
       id="path22"
       d="m 3761.13,5966.2 h 170.891 v 170.892 H 3761.13 Z"
       style="fill:#ffffff;fill-opacity:1;fill-rule:nonzero;stroke:none"
       transform="matrix(0.13333333,0,0,-0.13333333,0,1056)" />
    <path
       id="path23"
       d="m 8.7433125,-8.1665703 -0.1875,-0.046875 c -0.2109375,0.2929687 -0.421875,0.421875 -0.7382812,0.421875 -0.1289063,0 -0.28125,-0.046875 -0.5507813,-0.1289063 -0.609375,-0.1992187 -1.1484375,-0.2929687 -1.6523437,-0.2929687 -2.6015625,0 -4.96875005,2.4609375 -4.96875005,5.1796875 0,0.84375 0.3515625,1.6992187 0.93750005,2.29687499 0.6210937,0.6328125 1.5234375,0.9609375 2.6015625,0.9609375 1.0898437,0 1.96875,-0.234375 2.9296875,-0.76171875 L 7.7120625,-2.8462578 C 7.9112813,-3.5376641 8.1105,-3.6900078 8.907375,-3.7368828 v -0.1992188 h -3.28125 v 0.1992188 c 0.1523438,0.011719 0.3046875,0.035156 0.3632813,0.035156 0.3984375,0.035156 0.5976562,0.1640625 0.5976562,0.3867188 0,0.2695312 -0.070312,0.609375 -0.3398437,1.5234375 -0.2695313,0.89062499 -0.3164063,0.99609374 -0.4570313,1.13671874 -0.2695312,0.26953125 -0.7382812,0.421875 -1.3007812,0.421875 -1.59375,0 -2.484375,-0.91406254 -2.484375,-2.53125004 0,-1.5117187 0.5976562,-3.0820312 1.5703125,-4.125 0.5625,-0.5742187 1.3242187,-0.9023437 2.1445312,-0.9023437 0.796875,0 1.4765625,0.328125 1.8398438,0.890625 0.1992187,0.328125 0.2929687,0.5859375 0.3515625,1.125 l 0.2226562,0.035156 z m 0,0"
       style="fill:#000000;fill-opacity:1;fill-rule:nonzero;stroke:none"
       aria-label="G"
       transform="matrix(1.3333333,0,0,1.3333333,506.936,254.64267)" />
    <path
       id="path24"
       d="m 3723.15,5614.92 h 189.879 v 189.879 H 3723.15 Z"
       style="fill:#000000;fill-opacity:1;fill-rule:nonzero;stroke:none"
       transform="matrix(0.13333333,0,0,-0.13333333,0,1056)" />
    <path
       id="path25"
       d="m 3732.65,5624.41 h 170.891 v 170.891 H 3732.65 Z"
       style="fill:#d4d4d4;fill-opacity:1;fill-rule:nonzero;stroke:none"
       transform="matrix(0.13333333,0,0,-0.13333333,0,1056)" />
    <path
       id="path26"
       d="m 4.9572109,-1.3709609 c -0.09375,0.1171875 -0.1523437,0.1875 -0.2695312,0.3398437 -0.28125,0.36328126 -0.4335938,0.49218751 -0.5625,0.49218751 -0.1875,0 -0.3046875,-0.1640625 -0.3867188,-0.51562501 -0.023437,-0.09375 -0.035156,-0.1640625 -0.046875,-0.1992187 -0.3046875,-1.2539063 -0.4453125,-1.8164063 -0.4453125,-2.0039063 0.5390625,-0.9492187 0.984375,-1.4882812 1.2070313,-1.4882812 0.070312,0 0.1757812,0.035156 0.2929687,0.09375 0.1523438,0.082031 0.234375,0.1054687 0.3398438,0.1054687 0.2578125,0 0.4335937,-0.1757812 0.4335937,-0.4335937 0,-0.2695313 -0.2109375,-0.4570313 -0.5039062,-0.4570313 -0.5507813,0 -1.0195313,0.4453125 -1.8632813,1.7578125 l -0.140625,-0.6796875 c -0.1757812,-0.8320312 -0.3046875,-1.078125 -0.6445312,-1.078125 -0.2695313,0 -0.6914063,0.1054688 -1.44140626,0.3515625 l -0.140625,0.046875 0.0585938,0.1875 C 1.3126797,-4.9568984 1.4181484,-4.9803359 1.5353359,-4.9803359 c 0.3046875,0 0.375,0.1054687 0.5507813,0.84375 l 0.3515625,1.5234375 -1.0078125,1.4414062 c -0.2460938,0.37500001 -0.49218751,0.59765626 -0.63281251,0.59765626 -0.0703125,0 -0.1875,-0.046875 -0.31640625,-0.1171875 -0.1640625,-0.0820313 -0.29296875,-0.1171875 -0.3984375,-0.1171875 -0.234375,0 -0.41015625,0.17578125 -0.41015625,0.421875 0,0.328125 0.24609375,0.52734375 0.609375,0.52734375 0.38671875,0 0.52734375,-0.1171875 1.14843751,-0.8671875 C 1.7697109,-1.1248672 2.0275234,-1.4529922 2.5431484,-2.1678359 l 0.375,1.47656246 c 0.1523438,0.6328125 0.3164063,0.83203125 0.7148438,0.83203125 0.46875,0 0.7851562,-0.3046875 1.5,-1.40625001 z m 0.7089844,-3.5625 c 0.1523438,-0.035156 0.2460938,-0.046875 0.375,-0.046875 0.703125,0 0.890625,0.3046875 1.4648438,2.4257812 0.2109375,0.796875 0.5039062,2.25000001 0.5039062,2.46093751 0,0.1875 -0.070312,0.38671875 -0.2578125,0.609375 C 7.3654141,1.0196641 7.1193203,1.3477891 6.9786953,1.4884141 c -0.2578125,0.28125 -0.3984375,0.375 -0.5625,0.375 -0.070312,0 -0.1640625,-0.035156 -0.2929687,-0.140625 -0.1875,-0.140625 -0.328125,-0.1992188 -0.4570313,-0.1992188 -0.2695312,0 -0.4804687,0.1992188 -0.4804687,0.4804688 0,0.3046875 0.2695312,0.5390625 0.6210937,0.5390625 0.796875,0 2.4140625,-1.85156254 3.7382813,-4.3007813 0.8437504,-1.5117187 1.1953124,-2.4023437 1.1953124,-3 0,-0.375 -0.316406,-0.6796875 -0.679687,-0.6796875 -0.2929692,0 -0.4804692,0.1757813 -0.4804692,0.4570313 0,0.1757812 0.09375,0.3164062 0.3398438,0.4804687 0.2343754,0.1289063 0.3164064,0.2460938 0.3164064,0.4101563 0,0.5039062 -0.4570314,1.4648437 -1.5000002,3.19921871 L 8.4904141,-2.3201797 c -0.1875,-1.0898437 -0.8789063,-3.1171875 -1.0664063,-3.1171875 h -0.046875 c -0.011719,0.011719 -0.058594,0.011719 -0.1054687,0.011719 -0.1171875,0.011719 -0.5625,0.082031 -1.21875,0.2109375 -0.058594,0.011719 -0.2109375,0.046875 -0.3867188,0.070312 z m 0,0"
       style="fill:#000000;fill-opacity:1;fill-rule:nonzero;stroke:none"
       aria-label="xy"
       transform="matrix(1.3333333,0,0,1.3333333,501.87867,300.21467)" />
    <path
       id="path27"
       d="m 3542.77,5614.92 h 189.879 v 189.879 H 3542.77 Z"
       style="fill:#000000;fill-opacity:1;fill-rule:nonzero;stroke:none"
       transform="matrix(0.13333333,0,0,-0.13333333,0,1056)" />
    <path
       id="path28"
       d="m 3552.26,5624.41 h 170.892 v 170.891 H 3552.26 Z"
       style="fill:#ffffff;fill-opacity:1;fill-rule:nonzero;stroke:none"
       transform="matrix(0.13333333,0,0,-0.13333333,0,1056)" />
    <path
       id="path29"
       d="M 7.7337656,-8.0623672 H 1.6048594 v 0.1992188 c 0.7617187,0.082031 0.9492187,0.1757812 0.9492187,0.5039062 0,0.140625 -0.070312,0.5742188 -0.140625,0.796875 l -1.51171872,5.4492188 c -0.2109375,0.70312496 -0.3046875,0.79687496 -0.99609375,0.91406246 V 1.328125e-4 H 6.1517344 L 6.9251719,-2.0037734 6.7259531,-2.0975234 c -0.5859375,0.7851562 -0.9023437,1.11328121 -1.4296875,1.35937496 -0.4570312,0.2109375 -1.3007812,0.328125 -2.2265625,0.328125 -0.6914062,0 -0.984375,-0.1171875 -0.984375,-0.421875 0,-0.12890625 0.140625,-0.71484376 0.4453125,-1.79296876 0.1640625,-0.5507812 0.2695313,-0.9492187 0.3984375,-1.4179687 0.421875,0.023437 0.8085938,0.035156 0.9609375,0.035156 0.4804688,-0.011719 0.8203125,0.058594 0.9609375,0.1875 0.058594,0.058594 0.082031,0.1640625 0.082031,0.375 0,0.2109375 -0.023437,0.375 -0.082031,0.6445313 l 0.2460938,0.058594 0.8320312,-2.859375 -0.2109375,-0.046875 c -0.46875,1.0429688 -0.5859375,1.125 -1.7109375,1.171875 -0.140625,0 -0.5390625,0.011719 -0.9726562,0.023437 l 0.8203125,-2.8710937 c 0.070312,-0.28125 0.1992187,-0.328125 0.890625,-0.328125 1.9453125,0 2.3789062,0.1640625 2.3789062,0.9023437 0,0.1640625 -0.011719,0.3398438 -0.035156,0.5507813 l 0.2695312,0.035156 z m 0,0"
       style="fill:#000000;fill-opacity:1;fill-rule:nonzero;stroke:none"
       aria-label="E"
       transform="matrix(1.3333333,0,0,1.3333333,479.868,300.21467)" />
    <path
       id="path30"
       d="m 3314.91,5614.92 h 189.879 v 189.879 H 3314.91 Z"
       style="fill:#000000;fill-opacity:1;fill-rule:nonzero;stroke:none"
       transform="matrix(0.13333333,0,0,-0.13333333,0,1056)" />
    <path
       id="path31"
       d="m 3324.41,5624.41 h 170.892 v 170.891 H 3324.41 Z"
       style="fill:#d4d4d4;fill-opacity:1;fill-rule:nonzero;stroke:none"
       transform="matrix(0.13333333,0,0,-0.13333333,0,1056)" />
    <path
       id="path32"
       d="m 0.19857031,-4.9803359 h 0.24609375 c 0.0117188,0 0.046875,0 0.10546875,-0.011719 0.3515625,-0.035156 0.46874999,0.09375 0.56249999,0.5625 0.140625,0.703125 0.2929688,2.015625 0.328125,2.9882813 l 0.046875,1.07812496 c 0.035156,0.4921875 0.058594,0.5859375 0.1640625,0.5859375 0.140625,0 0.3515625,-0.3046875 0.7851563,-1.16015625 0.070312,-0.14062501 0.3164062,-0.56250001 0.6796875,-1.21875001 l 1.1015625,-1.9335937 0.3632812,3.93749996 c 0.023437,0.33984375 0.046875,0.375 0.1289063,0.375 0.1054687,0 0.2226562,-0.12890625 0.5625,-0.52734375 0.011719,-0.0117188 0.058594,-0.0820313 0.1054687,-0.140625 1.6757813,-2.01562501 2.6132813,-3.56250001 2.6132813,-4.35937501 0,-0.3632812 -0.2695313,-0.6328125 -0.6328125,-0.6328125 -0.3046875,0 -0.4804688,0.1523438 -0.4804688,0.4101563 0,0.1640625 0.058594,0.2695312 0.2578125,0.4453125 0.1875,0.1875 0.2695313,0.3164062 0.2695313,0.4570312 0,0.5390625 -0.421875,1.1953125 -2.0390625,3.21093751 L 4.9681016,-5.2615859 c 0,-0.1289063 -0.023437,-0.1640625 -0.09375,-0.1640625 -0.058594,0 -0.09375,0.023437 -0.1640625,0.1171875 l -2.3671875,3.75 c -0.035156,-0.8554688 -0.1757813,-2.15625 -0.3046875,-3.0234375 -0.140625,-0.7617188 -0.1640625,-0.8554688 -0.3164063,-0.8554688 -0.070312,0 -0.1992187,0.035156 -0.3632812,0.082031 -0.140625,0.046875 -0.43359379,0.09375 -0.84375004,0.1640625 -0.046875,0 -0.17578125,0.023437 -0.31640625,0.046875 z m 12.99023469,3.609375 c -0.09375,0.1171875 -0.152344,0.1875 -0.269532,0.3398437 -0.28125,0.36328126 -0.433593,0.49218751 -0.5625,0.49218751 -0.1875,0 -0.304687,-0.1640625 -0.386718,-0.51562501 -0.02344,-0.09375 -0.03516,-0.1640625 -0.04687,-0.1992187 -0.304688,-1.2539063 -0.445313,-1.8164063 -0.445313,-2.0039063 0.539063,-0.9492187 0.984375,-1.4882812 1.207031,-1.4882812 0.07031,0 0.175782,0.035156 0.292969,0.09375 0.152344,0.082031 0.234375,0.1054687 0.339844,0.1054687 0.257812,0 0.433594,-0.1757812 0.433594,-0.4335937 0,-0.2695313 -0.210938,-0.4570313 -0.503907,-0.4570313 -0.550781,0 -1.019531,0.4453125 -1.863281,1.7578125 l -0.140625,-0.6796875 c -0.175781,-0.8320312 -0.304687,-1.078125 -0.644531,-1.078125 -0.269531,0 -0.6914063,0.1054688 -1.4414063,0.3515625 l -0.140625,0.046875 0.058594,0.1875 c 0.46875,-0.1054687 0.5742188,-0.1289062 0.6914063,-0.1289062 0.304687,0 0.375,0.1054687 0.550781,0.84375 l 0.351562,1.5234375 -1.0078118,1.4414062 c -0.2460937,0.37500001 -0.4921875,0.59765626 -0.6328125,0.59765626 -0.070312,0 -0.1875,-0.046875 -0.3164062,-0.1171875 -0.1640625,-0.0820313 -0.2929688,-0.1171875 -0.3984375,-0.1171875 -0.234375,0 -0.4101563,0.17578125 -0.4101563,0.421875 0,0.328125 0.2460938,0.52734375 0.609375,0.52734375 0.3867188,0 0.5273438,-0.1171875 1.1484375,-0.8671875 C 10.001305,-1.1248672 10.259117,-1.4529922 10.774742,-2.1678359 l 0.375,1.47656246 c 0.152344,0.6328125 0.316406,0.83203125 0.714844,0.83203125 0.46875,0 0.785156,-0.3046875 1.5,-1.40625001 z m 0,0"
       style="fill:#000000;fill-opacity:1;fill-rule:nonzero;stroke:none"
       aria-label="wx"
       transform="matrix(1.3333333,0,0,1.3333333,445.48133,300.21467)" />
    <path
       id="path33"
       d="m 3134.53,5614.92 h 189.879 v 189.879 H 3134.53 Z"
       style="fill:#000000;fill-opacity:1;fill-rule:nonzero;stroke:none"
       transform="matrix(0.13333333,0,0,-0.13333333,0,1056)" />
    <path
       id="path34"
       d="m 3144.02,5624.41 h 170.891 v 170.891 H 3144.02 Z"
       style="fill:#ffffff;fill-opacity:1;fill-rule:nonzero;stroke:none"
       transform="matrix(0.13333333,0,0,-0.13333333,0,1056)" />
    <path
       id="path35"
       d="m 7.7592188,-8.0623672 h -6.140625 v 0.1992188 c 0.796875,0.082031 0.9492187,0.1523437 0.9492187,0.5039062 0,0.1875 -0.046875,0.5039063 -0.140625,0.796875 l -1.51171875,5.4492188 c -0.22265625,0.73828121 -0.3046875,0.82031246 -1.0078125,0.91406246 V 1.328125e-4 H 3.013125 V -0.19908594 c -0.7148437,-0.0351563 -0.9375,-0.17578125 -0.9375,-0.5390625 0,-0.10546875 0.035156,-0.28124996 0.1054688,-0.56249996 l 0.7734375,-2.7421875 c 0.4570312,0.023437 0.7265625,0.035156 0.9960937,0.035156 0.4804688,0 0.5625,0.011719 0.6796875,0.058594 0.1875,0.09375 0.2695313,0.2578125 0.2695313,0.5039062 0,0.1992188 -0.023437,0.3515625 -0.09375,0.7265625 l 0.2109375,0.070312 0.9375,-2.8945312 -0.2226563,-0.058594 c -0.5625,1.1132813 -0.5976562,1.125 -2.671875,1.1484375 l 0.8203125,-2.8710937 c 0.070312,-0.2578125 0.2460938,-0.328125 0.75,-0.328125 2.0742188,0 2.5195313,0.1640625 2.5195313,0.9257812 0,0.070312 0,0.140625 -0.011719,0.2929688 -0.011719,0.082031 -0.011719,0.09375 -0.023437,0.234375 L 7.3725,-6.1639297 Z m 0,0"
       style="fill:#000000;fill-opacity:1;fill-rule:nonzero;stroke:none"
       aria-label="F"
       transform="matrix(1.3333333,0,0,1.3333333,425.42,300.21467)" />
    <path
       id="path36"
       d="m 3523.78,5956.7 h 189.879 v 189.879 H 3523.78 Z"
       style="fill:#000000;fill-opacity:1;fill-rule:nonzero;stroke:none"
       transform="matrix(0.13333333,0,0,-0.13333333,0,1056)" />
    <path
       id="path37"
       d="m 3533.28,5966.2 h 170.891 v 170.892 H 3533.28 Z"
       style="fill:#d4d4d4;fill-opacity:1;fill-rule:nonzero;stroke:none"
       transform="matrix(0.13333333,0,0,-0.13333333,0,1056)" />
    <path
       id="path38"
       d="M 6.2943672,-5.6357578 H 4.5834297 v 0.140625 c 0.4921875,0.035156 0.5976562,0.1289062 0.5976562,0.4335937 0,0.1054688 -0.011719,0.2109375 -0.070312,0.3867188 -0.011719,0.023437 -0.023437,0.058594 -0.023437,0.058594 l -0.8789062,3.2929688 -1.7929688,-4.3125 H 1.0209297 v 0.140625 c 0.4101562,0.023437 0.5859375,0.140625 0.7382812,0.4804687 l -1.01953121,3.5976563 c -0.328125,1.10156249 -0.3984375,1.20703124 -0.890625,1.27734374 V 9.609375e-4 H 1.5599922 V -0.13966406 c -0.4453125,-0.0351563 -0.60937501,-0.12890625 -0.60937501,-0.36328125 0,-0.1171875 0.0234375,-0.29296875 0.0820312,-0.46875 L 2.0170234,-4.6162266 3.9974922,0.12986719 H 4.1498359 L 5.4037422,-4.2177891 c 0.3164062,-1.1132812 0.3515625,-1.1601562 0.890625,-1.2773437 z m 4.7431638,5.75390624 c -0.07031,0.0820313 -0.105469,0.12890625 -0.1875,0.234375 -0.199219,0.2578125 -0.304687,0.3515625 -0.398437,0.3515625 -0.128907,0 -0.210938,-0.1171875 -0.269532,-0.36328125 -0.01172,-0.0703125 -0.02344,-0.1171875 -0.03516,-0.140625 C 9.9359687,-0.67872656 9.8422187,-1.0771641 9.8422187,-1.2060703 c 0.3750003,-0.65625 0.6914063,-1.0429688 0.8437503,-1.0429688 0.04687,0 0.117187,0.023437 0.210937,0.070312 0.105469,0.058594 0.164063,0.082031 0.234375,0.082031 0.175781,0 0.292969,-0.1289063 0.292969,-0.3164063 0,-0.1757812 -0.140625,-0.3164062 -0.351563,-0.3164062 -0.375,0 -0.703125,0.3164062 -1.3007808,1.2304687 l -0.09375,-0.46875 C 9.5609687,-2.5537266 9.4555,-2.7295078 9.2328437,-2.7295078 c -0.1992187,0 -0.4921875,0.082031 -1.0195312,0.2460937 l -0.09375,0.035156 0.035156,0.1289062 c 0.328125,-0.070312 0.4101563,-0.09375 0.4804688,-0.09375 0.2226562,0 0.2695312,0.082031 0.3984375,0.5976563 l 0.2460937,1.06640624 -0.7148437,1.0078125 C 8.4008123,0.51658564 8.225031,0.66892939 8.131281,0.66892939 c -0.058594,0 -0.140625,-0.0234375 -0.2226562,-0.0703125 -0.1171875,-0.0585938 -0.2109375,-0.09375 -0.28125,-0.09375 -0.1640625,0 -0.2929688,0.12890625 -0.2929688,0.3046875 0,0.22265621 0.1757813,0.36328121 0.4335938,0.36328121 0.2695312,0 0.375,-0.082031 0.796875,-0.59765621 0.234375,-0.28125 0.421875,-0.515625 0.7851562,-1.01953125 L 9.6078437,0.59861719 C 9.7250312,1.0322109 9.8305,1.1728359 10.11175,1.1728359 c 0.328125,0 0.550781,-0.21093746 1.054687,-0.98437496 z m 0,0"
       style="fill:#000000;fill-opacity:1;fill-rule:nonzero;stroke:none"
       aria-label="N&#10;x"
       transform="matrix(1.3333333,0,0,1.3333333,473.14267,255.112)" />
    <path
       id="path39"
       d="m 3343.4,5956.7 h 189.879 v 189.879 H 3343.4 Z"
       style="fill:#000000;fill-opacity:1;fill-rule:nonzero;stroke:none"
       transform="matrix(0.13333333,0,0,-0.13333333,0,1056)" />
    <path
       id="path40"
       d="m 3352.89,5966.2 h 170.892 v 170.892 H 3352.89 Z"
       style="fill:#ffffff;fill-opacity:1;fill-rule:nonzero;stroke:none"
       transform="matrix(0.13333333,0,0,-0.13333333,0,1056)" />
    <path
       id="path41"
       d="m 9.4683594,-8.0611016 h -3.046875 v 0.1992188 c 0.7148437,0.09375 0.8554687,0.1875 0.8554687,0.5390625 0,0.1640625 -0.046875,0.4453125 -0.1289062,0.7617187 l -0.5742188,2.015625 h -3.515625 l 0.6679688,-2.4023437 c 0.1875,-0.6328125 0.5039062,-0.8671875 1.2421875,-0.9140625 V -8.0611016 H 1.6050781 v 0.1992188 c 0.7617188,0.082031 0.9492188,0.1757812 0.9492188,0.5390625 0,0.1640625 -0.046875,0.4453125 -0.140625,0.7617187 l -1.51171878,5.4492188 c -0.22265625,0.71484374 -0.3046875,0.79687499 -0.99609375,0.91406249 V 0.00139844 H 2.9410156 v -0.19921875 c -0.75,-0.09375 -0.8789062,-0.1875 -0.8789062,-0.5390625 0,-0.09375 0.011719,-0.1875 0.035156,-0.26953129 l 0.8203125,-3.0117187 h 3.515625 l -0.8085937,2.90625 c -0.1992188,0.64453124 -0.4453125,0.83203124 -1.2421875,0.91406249 v 0.19921875 h 3.3632812 v -0.19921875 c -0.7851562,-0.0703125 -0.9609375,-0.17578125 -0.9609375,-0.515625 0,-0.12890625 0.011719,-0.19921875 0.035156,-0.29296879 l 1.6289062,-5.9414062 c 0.2109375,-0.7148438 0.3164063,-0.7851563 1.0195313,-0.9140625 z m 0,0"
       style="fill:#000000;fill-opacity:1;fill-rule:nonzero;stroke:none"
       aria-label="H"
       transform="matrix(1.3333333,0,0,1.3333333,452.13333,254.64267)" />
    <path
       id="path42"
       d="m 3732.65,6298.49 h 189.879 v 189.879 H 3732.65 Z"
       style="fill:#000000;fill-opacity:1;fill-rule:nonzero;stroke:none"
       transform="matrix(0.13333333,0,0,-0.13333333,0,1056)" />
    <path
       id="path43"
       d="m 3742.14,6307.98 h 170.892 v 170.891 H 3742.14 Z"
       style="fill:#d4d4d4;fill-opacity:1;fill-rule:nonzero;stroke:none"
       transform="matrix(0.13333333,0,0,-0.13333333,0,1056)" />
    <path
       id="path44"
       d="M 6.2941094,-5.6354922 H 4.5831719 v 0.140625 c 0.4921875,0.035156 0.5976562,0.1289063 0.5976562,0.4335938 0,0.1054687 -0.011719,0.2109375 -0.070312,0.3867187 -0.011719,0.023437 -0.023437,0.058594 -0.023437,0.058594 L 4.2081729,-1.322992 2.4152041,-5.635492 H 1.0206719 v 0.140625 c 0.4101562,0.023437 0.5859375,0.140625 0.7382812,0.4804688 L 0.73942188,-1.416742 c -0.328125,1.10156251 -0.3984375,1.20703126 -0.890625,1.27734376 v 0.140625 H 1.5597344 v -0.140625 c -0.4453125,-0.0351563 -0.60937502,-0.12890625 -0.60937502,-0.36328125 0,-0.1171875 0.0234375,-0.29296875 0.0820312,-0.46875 L 2.0167656,-4.6159609 3.9972344,0.13013281 H 4.1495781 L 5.4034844,-4.2175234 c 0.3164062,-1.1132813 0.3515625,-1.1601563 0.890625,-1.2773438 z m 1.4033203,3.2578125 c 0.1171875,-0.023437 0.1757812,-0.035156 0.2695312,-0.035156 0.4921875,0 0.6210938,0.2226562 1.0195313,1.69921871 0.140625,0.5625 0.3515625,1.58203125 0.3515625,1.72265629 0,0.140625 -0.046875,0.28125 -0.1757813,0.4335937 -0.2695312,0.3515625 -0.4453125,0.5742188 -0.5390625,0.6796875 -0.1875,0.1875 -0.28125,0.2578125 -0.3984375,0.2578125 -0.046875,0 -0.1171875,-0.023437 -0.2109375,-0.09375 C 7.8849297,2.1809143 7.7911797,2.145758 7.6974297,2.145758 c -0.1875,0 -0.3398438,0.140625 -0.3398438,0.328125 0,0.2226563 0.1992188,0.3867188 0.4453125,0.3867188 0.5507813,0 1.6875,-1.3007813 2.6132816,-3.01171879 0.585937,-1.05468751 0.832031,-1.67578121 0.832031,-2.09765621 0,-0.2695313 -0.210938,-0.4804688 -0.480469,-0.4804688 -0.199219,0 -0.328125,0.1289063 -0.328125,0.3164063 0,0.1289062 0.07031,0.2226562 0.234375,0.3398437 0.164063,0.09375 0.222656,0.1757813 0.222656,0.2929688 0,0.3515625 -0.316406,1.01953121 -1.0429683,2.23828121 L 9.6778984,-0.54955449 C 9.5489922,-1.2995545 9.0685234,-2.729242 8.9278984,-2.729242 h -0.035156 c 0,0.011719 -0.035156,0.011719 -0.070312,0.011719 -0.082031,0 -0.3867188,0.058594 -0.84375,0.140625 -0.046875,0.011719 -0.1640625,0.035156 -0.28125,0.058594 z m 0,0"
       style="fill:#000000;fill-opacity:1;fill-rule:nonzero;stroke:none"
       aria-label="N&#10;y"
       transform="matrix(1.3333333,0,0,1.3333333,500.99067,209.54133)" />
    <path
       id="path45"
       d="m 3552.26,6298.49 h 189.879 v 189.879 H 3552.26 Z"
       style="fill:#000000;fill-opacity:1;fill-rule:nonzero;stroke:none"
       transform="matrix(0.13333333,0,0,-0.13333333,0,1056)" />
    <path
       id="path46"
       d="m 3561.75,6307.98 h 170.891 v 170.891 H 3561.75 Z"
       style="fill:#ffffff;fill-opacity:1;fill-rule:nonzero;stroke:none"
       transform="matrix(0.13333333,0,0,-0.13333333,0,1056)" />
    <path
       id="path47"
       d="M 8.0515313,-5.7434531 8.5085625,-8.1926719 H 8.2390313 c -0.09375,0.1992188 -0.2226563,0.2695313 -0.46875,0.2695313 -0.09375,0 -0.2460938,-0.023437 -0.5039063,-0.082031 -0.5507812,-0.140625 -1.0429687,-0.2109375 -1.4414062,-0.2109375 -2.625,0 -5.01562505,2.4726563 -5.01562505,5.2148438 0,1.8867187 1.33593755,3.22265622 3.22265625,3.22265622 1.2773438,0 2.2617188,-0.5390625 3.375,-1.83984372 L 7.1960625,-1.7942344 c -1.1132812,1.08984377 -1.828125,1.46484377 -2.8359375,1.46484377 -1.3710937,0 -2.1679687,-0.93749997 -2.1679687,-2.53124997 0,-1.4765625 0.5976562,-2.9648438 1.5585937,-3.9609375 0.5976563,-0.609375 1.3710938,-0.9492188 2.1796875,-0.9492188 1.1367188,0 1.7695313,0.65625 1.8984375,1.9921875 z m 0,0"
       style="fill:#000000;fill-opacity:1;fill-rule:nonzero;stroke:none"
       aria-label="C"
       transform="matrix(1.3333333,0,0,1.3333333,480.624,209.072)" />
    <path
       id="path48"
       d="m 2982.62,5956.7 h 189.879 v 189.879 H 2982.62 Z"
       style="fill:#000000;fill-opacity:1;fill-rule:nonzero;stroke:none"
       transform="matrix(0.13333333,0,0,-0.13333333,0,1056)" />
    <path
       id="path49"
       d="m 2992.12,5966.2 h 170.891 v 170.892 H 2992.12 Z"
       style="fill:#d4d4d4;fill-opacity:1;fill-rule:nonzero;stroke:none"
       transform="matrix(0.13333333,0,0,-0.13333333,0,1056)" />
    <path
       id="path50"
       d="m 0.25669531,-4.9673516 c 0.140625,-0.011719 0.234375,-0.011719 0.375,-0.011719 0.48046879,0 0.59765629,0.1992187 0.77343749,1.3359375 0.1289063,0.8554687 0.2695313,2.71874999 0.2695313,3.43359374 0,0.3515625 0.023437,0.43359375 0.1171875,0.43359375 0.3046875,0 1.453125,-1.31249999 2.7070312,-3.05859379 0.4335938,-0.6210937 0.7617188,-1.4179687 0.7617188,-1.875 0,-0.3984375 -0.328125,-0.7265625 -0.6914063,-0.7265625 -0.28125,0 -0.4570312,0.1523438 -0.4570312,0.4101563 0,0.1992187 0.070312,0.3515625 0.2929687,0.5507812 0.1640625,0.140625 0.2226563,0.2460938 0.2226563,0.3632813 0,0.5742187 -0.8203125,1.9453125 -1.6875,2.859375 L 2.5535703,-0.86578906 C 2.4715391,-2.6001641 2.3895078,-3.2446953 2.2371641,-4.1587578 1.9910703,-5.4126641 1.9910703,-5.4361016 1.8738828,-5.4361016 c -0.058594,0 -0.1523437,0.011719 -0.2460937,0.046875 -0.2226563,0.058594 -0.90234379,0.1875 -1.37109379,0.2578125 z m 5.42285159,-0.011719 h 0.2460937 c 0.011719,0 0.046875,0 0.1054688,-0.011719 0.3515625,-0.035156 0.46875,0.09375 0.5625,0.5625 0.140625,0.703125 0.2929687,2.015625 0.328125,2.9882813 l 0.046875,1.07812499 c 0.035156,0.4921875 0.058594,0.5859375 0.1640625,0.5859375 0.140625,0 0.3515625,-0.3046875 0.7851562,-1.16015625 0.070312,-0.14062504 0.3164063,-0.56250004 0.6796875,-1.21875004 l 1.1015625,-1.9335937 0.3632809,3.93749999 c 0.02344,0.33984375 0.04687,0.375 0.128907,0.375 0.105468,0 0.222656,-0.12890625 0.5625,-0.52734375 0.01172,-0.0117188 0.05859,-0.0820313 0.105468,-0.140625 1.675782,-2.01562504 2.613282,-3.56250004 2.613282,-4.35937504 0,-0.3632812 -0.269532,-0.6328125 -0.632813,-0.6328125 -0.304687,0 -0.480469,0.1523438 -0.480469,0.4101563 0,0.1640625 0.05859,0.2695312 0.257813,0.4453125 0.1875,0.1875 0.269531,0.3164062 0.269531,0.4570312 0,0.5390625 -0.421875,1.1953125 -2.039062,3.21093754 L 10.449078,-5.2603203 c 0,-0.1289063 -0.02344,-0.1640625 -0.09375,-0.1640625 -0.05859,0 -0.09375,0.023437 -0.164062,0.1171875 l -2.3671879,3.75 c -0.035156,-0.8554688 -0.1757812,-2.15625 -0.3046875,-3.0234375 -0.140625,-0.7617188 -0.1640625,-0.8554688 -0.3164062,-0.8554688 -0.070312,0 -0.1992188,0.035156 -0.3632813,0.082031 -0.140625,0.046875 -0.4335937,0.09375 -0.84375,0.1640625 -0.046875,0 -0.1757812,0.023437 -0.3164062,0.046875 z m 0,0"
       style="fill:#000000;fill-opacity:1;fill-rule:nonzero;stroke:none"
       aria-label="vw"
       transform="matrix(1.3333333,0,0,1.3333333,401.34133,254.64267)" />
    <path
       id="path51"
       d="m 2802.24,5956.7 h 189.879 v 189.879 H 2802.24 Z"
       style="fill:#000000;fill-opacity:1;fill-rule:nonzero;stroke:none"
       transform="matrix(0.13333333,0,0,-0.13333333,0,1056)" />
    <path
       id="path52"
       d="m 2811.73,5966.2 h 170.891 v 170.892 H 2811.73 Z"
       style="fill:#ffffff;fill-opacity:1;fill-rule:nonzero;stroke:none"
       transform="matrix(0.13333333,0,0,-0.13333333,0,1056)" />
    <path
       id="path53"
       d="m 6.9602656,-0.19782031 c -0.703125,-0.0585938 -0.7734375,-0.1640625 -0.9375,-1.05468749 L 4.8626094,-8.2368828 H 4.5462031 l -3.58593747,6.1640625 c -0.97265625,1.64062499 -1.1015625,1.78124999 -1.59375,1.87499999 V 0.00139844 H 1.6751094 v -0.19921875 c -0.6210938,-0.0585938 -0.72656252,-0.1171875 -0.72656252,-0.43359375 0,-0.234375 0.0351563,-0.33984375 0.24609372,-0.76171874 l 0.703125,-1.3945313 h 2.71875 l 0.2460938,1.6171875 c 0.011719,0.1054688 0.023437,0.22265629 0.023437,0.31640629 0,0.46875 -0.1757813,0.5859375 -0.9609375,0.65625 V 0.00139844 H 6.9602656 Z M 2.1555781,-3.2329766 4.0071406,-6.4439141 4.5579219,-3.2329766 Z m 0,0"
       style="fill:#000000;fill-opacity:1;fill-rule:nonzero;stroke:none"
       aria-label="A"
       transform="matrix(1.3333333,0,0,1.3333333,381.64933,254.64267)" />
    <path
       id="path54"
       d="m 2574.38,5956.7 h 189.879 v 189.879 H 2574.38 Z"
       style="fill:#000000;fill-opacity:1;fill-rule:nonzero;stroke:none"
       transform="matrix(0.13333333,0,0,-0.13333333,0,1056)" />
    <path
       id="path55"
       d="m 2583.88,5966.2 h 170.891 v 170.892 H 2583.88 Z"
       style="fill:#d4d4d4;fill-opacity:1;fill-rule:nonzero;stroke:none"
       transform="matrix(0.13333333,0,0,-0.13333333,0,1056)" />
    <path
       id="path56"
       d="m 5.6830391,-1.4400078 c -0.6328125,0.79687499 -0.8203125,0.97265624 -1.0195313,0.97265624 -0.082031,0 -0.140625,-0.0703125 -0.140625,-0.2109375 0,-0.0703125 0,-0.0703125 0.234375,-0.96093754 l 0.984375,-3.6914062 H 4.8275703 c -0.703125,1.9101562 -0.796875,2.109375 -1.359375,3.0117187 -0.7382812,1.171875 -1.3476562,1.80468754 -1.7460937,1.80468754 -0.140625,0 -0.2578125,-0.12890625 -0.2578125,-0.31640625 0,-0.046875 0,-0.0703125 0.011719,-0.10546875 l 1.125,-4.47656254 -0.035156,-0.023437 c -0.703125,0.1523438 -1.1484375,0.2460938 -1.85156254,0.328125 v 0.1757813 c 0.46875004,0 0.49218754,0.011719 0.60937504,0.070312 0.070312,0.023437 0.1289062,0.140625 0.1289062,0.2226562 0,0.09375 -0.058594,0.4101563 -0.1640625,0.8320313 l -0.45703124,1.7460937 c -0.22265625,0.8789063 -0.31640625,1.30078129 -0.31640625,1.52343754 0,0.4453125 0.22265625,0.6796875 0.65624999,0.6796875 0.8789063,0 1.5351563,-0.66796875 2.953125,-3.05859374 -0.3632812,1.3242187 -0.5625,2.17968749 -0.5625,2.43749999 0,0.375 0.2226563,0.5859375 0.5976563,0.5859375 0.5742187,0 0.8671875,-0.24609375 1.6992187,-1.44140629 z m 0.7470703,-3.5273438 c 0.140625,-0.011719 0.234375,-0.011719 0.375,-0.011719 0.4804687,0 0.5976562,0.1992187 0.7734375,1.3359375 0.1289062,0.8554687 0.2695312,2.71874999 0.2695312,3.43359374 0,0.3515625 0.023437,0.43359375 0.1171875,0.43359375 0.3046875,0 1.453125,-1.31249999 2.7070314,-3.05859379 0.433594,-0.6210937 0.761719,-1.4179687 0.761719,-1.875 0,-0.3984375 -0.328125,-0.7265625 -0.691407,-0.7265625 -0.28125,0 -0.457031,0.1523438 -0.457031,0.4101563 0,0.1992187 0.07031,0.3515625 0.292969,0.5507812 0.164062,0.140625 0.222656,0.2460938 0.222656,0.3632813 0,0.5742187 -0.8203124,1.9453125 -1.6874999,2.859375 L 8.7269844,-0.86578906 C 8.6449531,-2.6001641 8.5629219,-3.2446953 8.4105781,-4.1587578 8.1644844,-5.4126641 8.1644844,-5.4361016 8.0472969,-5.4361016 c -0.058594,0 -0.1523438,0.011719 -0.2460938,0.046875 -0.2226562,0.058594 -0.9023437,0.1875 -1.3710937,0.2578125 z m 0,0"
       style="fill:#000000;fill-opacity:1;fill-rule:nonzero;stroke:none"
       aria-label="uv"
       transform="matrix(1.3333333,0,0,1.3333333,348.30933,254.64267)" />
    <path
       id="path57"
       d="m 2394,5956.7 h 189.879 v 189.879 H 2394 Z"
       style="fill:#000000;fill-opacity:1;fill-rule:nonzero;stroke:none"
       transform="matrix(0.13333333,0,0,-0.13333333,0,1056)" />
    <path
       id="path58"
       d="m 2403.49,5966.2 h 170.891 v 170.892 H 2403.49 Z"
       style="fill:#ffffff;fill-opacity:1;fill-rule:nonzero;stroke:none"
       transform="matrix(0.13333333,0,0,-0.13333333,0,1056)" />
    <path
       id="path59"
       d="M -0.09380469,0.00139844 H 3.3866641 c 1.9335937,0 3.2695312,-1.00781254 3.2695312,-2.47265624 0,-0.4570313 -0.1523437,-0.8789063 -0.421875,-1.1601563 -0.2460937,-0.28125 -0.4921875,-0.421875 -1.1367187,-0.703125 0.8789062,-0.2109375 1.2304687,-0.3515625 1.6289062,-0.703125 0.3398438,-0.2929687 0.5273438,-0.7148437 0.5273438,-1.2070312 0,-1.171875 -0.8789063,-1.8164063 -2.4609375,-1.8164063 h -3.1875 v 0.1992188 c 0.7617187,0.070312 0.9492187,0.1640625 0.9492187,0.5039062 0,0.1875 -0.046875,0.5039063 -0.140625,0.796875 l -1.51171874,5.4492188 c -0.22265625,0.71484374 -0.3046875,0.79687499 -0.99609375,0.91406249 z M 2.9413516,-4.0884453 c 0.796875,0 1.3125,0.058594 1.5585937,0.1523437 0.515625,0.2109375 0.8203125,0.75 0.8203125,1.4179688 0,1.3359375 -0.9140625,2.14453124 -2.4257812,2.14453124 -0.515625,0 -0.7851563,-0.17578125 -0.7851563,-0.515625 0,-0.14062504 0.1523438,-0.73828124 0.4335938,-1.72265624 0.1640625,-0.5625 0.234375,-0.84375 0.3984375,-1.4765625 z m 0.9257812,-3.2578125 c 0.070312,-0.2695313 0.2226563,-0.3398438 0.703125,-0.3398438 0.984375,0 1.4414063,0.421875 1.4414063,1.3359375 0,0.703125 -0.2929688,1.2421875 -0.8320313,1.5351563 -0.421875,0.2460937 -1.0078125,0.3398437 -2.1210937,0.3398437 z m 0,0"
       style="fill:#000000;fill-opacity:1;fill-rule:nonzero;stroke:none"
       aria-label="B"
       transform="matrix(1.3333333,0,0,1.3333333,327.05867,254.64267)" />
    <path
       id="path60"
       d="m 2783.25,6298.49 h 189.879 v 189.879 H 2783.25 Z"
       style="fill:#000000;fill-opacity:1;fill-rule:nonzero;stroke:none"
       transform="matrix(0.13333333,0,0,-0.13333333,0,1056)" />
    <path
       id="path61"
       d="m 2792.75,6307.98 h 170.891 v 170.891 H 2792.75 Z"
       style="fill:#d4d4d4;fill-opacity:1;fill-rule:nonzero;stroke:none"
       transform="matrix(0.13333333,0,0,-0.13333333,0,1056)" />
    <path
       id="path62"
       d="M 6.2936562,-5.6354922 H 4.5827187 v 0.140625 c 0.4921875,0.035156 0.5976563,0.1289063 0.5976563,0.4335938 0,0.1054687 -0.011719,0.2109375 -0.070312,0.3867187 -0.011719,0.023437 -0.023437,0.058594 -0.023437,0.058594 L 4.2077187,-1.3229922 2.41475,-5.6354922 H 1.0202187 v 0.140625 c 0.4101563,0.023437 0.5859375,0.140625 0.7382813,0.4804688 l -1.01953125,3.5976562 c -0.328125,1.10156251 -0.3984375,1.20703126 -0.890625,1.27734376 v 0.140625 H 1.5592812 v -0.140625 c -0.4453125,-0.0351563 -0.60937495,-0.12890625 -0.60937495,-0.36328125 0,-0.1171875 0.0234375,-0.29296875 0.0820315,-0.46875 L 2.0163125,-4.6159609 3.9967812,0.13013281 H 4.149125 L 5.4030312,-4.2175234 c 0.3164063,-1.1132813 0.3515625,-1.1601563 0.890625,-1.2773438 z m 1.4501954,3.234375 c 0.1054687,-0.011719 0.1640625,-0.011719 0.2695312,-0.011719 0.328125,0 0.421875,0.1523437 0.5390625,0.9492187 0.082031,0.58593751 0.1875,1.89843751 0.1875,2.39062501 0,0.24609379 0.023437,0.30468749 0.082031,0.30468749 0.2109375,0 1.0195312,-0.91406249 1.8984377,-2.14453124 0.304688,-0.42187496 0.527344,-0.98437496 0.527344,-1.31249996 0,-0.2695313 -0.222656,-0.5039063 -0.480469,-0.5039063 -0.199219,0 -0.328125,0.1171875 -0.328125,0.2929688 0,0.140625 0.05859,0.2460937 0.210938,0.375 0.117187,0.1054687 0.152343,0.1757812 0.152343,0.2695312 0,0.3867188 -0.5625,1.34765626 -1.1835937,1.99218751 L 9.3610391,0.46997656 c -0.070312,-1.21875 -0.1171875,-1.66406246 -0.234375,-2.29687496 -0.1640625,-0.890625 -0.1640625,-0.9023438 -0.2460938,-0.9023438 -0.046875,0 -0.1054687,0.011719 -0.1757812,0.035156 -0.1523438,0.046875 -0.6328125,0.1289062 -0.9609375,0.1757812 z m 0,0"
       style="fill:#000000;fill-opacity:1;fill-rule:nonzero;stroke:none"
       aria-label="N&#10;v"
       transform="matrix(1.3333333,0,0,1.3333333,374.40533,209.54133)" />
    <path
       id="path63"
       d="m 2602.87,6298.49 h 189.879 v 189.879 H 2602.87 Z"
       style="fill:#000000;fill-opacity:1;fill-rule:nonzero;stroke:none"
       transform="matrix(0.13333333,0,0,-0.13333333,0,1056)" />
    <path
       id="path64"
       d="m 2612.36,6307.98 h 170.891 v 170.891 H 2612.36 Z"
       style="fill:#ffffff;fill-opacity:1;fill-rule:nonzero;stroke:none"
       transform="matrix(0.13333333,0,0,-0.13333333,0,1056)" />
    <path
       id="path65"
       d="m 1.6041563,-7.8645469 c 0.7617187,0.082031 0.9492187,0.1757813 0.9492187,0.5039063 0,0.1875 -0.046875,0.4804687 -0.140625,0.796875 L 0.90103125,-1.1145469 C 0.678375,-0.39970313 0.59634375,-0.31767188 -0.0950625,-0.20048438 v 0.19921875 H 3.022125 c 1.4414063,0 2.765625,-0.38671875 3.7148438,-1.07812497 1.1953125,-0.8671875 1.8984375,-2.2265625 1.8984375,-3.65625 0,-2.0273438 -1.40625,-3.328125 -3.5976563,-3.328125 H 1.6041563 Z m 2.2617187,0.5390625 c 0.070312,-0.28125 0.2578125,-0.3632812 0.75,-0.3632812 0.703125,0 1.3125,0.1640625 1.7109375,0.4570312 0.609375,0.4453125 0.9375,1.21875 0.9375,2.1914063 0,1.3359375 -0.515625,2.71875 -1.359375,3.5625 -0.7265625,0.73828122 -1.7226562,1.10156247 -3.0117187,1.10156247 -0.5625,0 -0.796875,-0.12890625 -0.796875,-0.45703125 0,-0.15234375 0.058594,-0.42187502 0.2695312,-1.17187502 z m 0,0"
       style="fill:#000000;fill-opacity:1;fill-rule:nonzero;stroke:none"
       aria-label="D"
       transform="matrix(1.3333333,0,0,1.3333333,353.908,209.072)" />
    <path
       id="path66"
       d="m 3200.99,6640.27 h 189.879 v 189.879 H 3200.99 Z"
       style="fill:#000000;fill-opacity:1;fill-rule:nonzero;stroke:none"
       transform="matrix(0.13333333,0,0,-0.13333333,0,1056)" />
    <path
       id="path67"
       d="m 3210.48,6649.76 h 170.891 v 170.891 H 3210.48 Z"
       style="fill:#d4d4d4;fill-opacity:1;fill-rule:nonzero;stroke:none"
       transform="matrix(0.13333333,0,0,-0.13333333,0,1056)" />
    <g
       id="g67"
       aria-label="N&#10;w&#10;Figure4.2:AnaugmentedtoptreerepresentingthetreeinFigure4.1.Fosterchildrenare&#10;representedinwhite;allothernodesbelongtothecompresstree.&#10;Figure4.2isapossiblerepresentationoftheunittreeinFigure4.1.Shadednodes&#10;belongtothecompresstree.Internalnodesarelabeledbytheverticescompressed(e.g.,&#10;N&#10;y&#10;representscompress(y)).Eachinternalnodehasuptofourchildrenandrepresents&#10;atmostthreeclusters:tworakes(oneforeachfosterchild)andonecompress(ofthe&#10;clustersgeneratedbytherakes).Eachfosterchildisshowninwhiteandisadjacentto&#10;thecorrespondingproperchild(theoneontowhichitisraked).Recallthatafosterchild&#10;isactuallytherootofabinary(rake)treewhoseleavesrepresentunittrees.Wecallthe&#10;representationinFigure4.2anaugmentedtoptree,sinceitscompressnodeshaveupto&#10;fourchildren.&#10;1&#10;Summingup,werepresentaunittreeasfollows:&#10;1.RecursivelycomputeclusterstorepresenteachunittreeincidenttotherootpathP.&#10;2.CreateraketreestorepresenteachcontiguoussequenceofunittreesincidenttoP.&#10;3.Createabinarytreeofcompressnodestorepresenttherootpath,withtheraketrees&#10;appearingasfosterchildren.&#10;Thismethodworksfortheentiretree,whichisitselfaunittree.Theendresultisa&#10;hierarchyofalternatingrakeandcompresstrees."
       transform="matrix(1.3333333,0,0,1.3333333,430.10267,163.97067)">
      <path
         id="path68"
         d="M 6.2921406,-5.6381563 H 4.5812031 v 0.140625 c 0.4921875,0.035156 0.5976563,0.1289063 0.5976563,0.4335938 0,0.1054687 -0.011719,0.2109375 -0.070312,0.3867187 -0.011719,0.023437 -0.023437,0.058594 -0.023437,0.058594 l -0.8789063,3.2929687 -1.7929687,-4.3125 H 1.0187031 v 0.140625 c 0.4101563,0.023437 0.5859375,0.140625 0.7382813,0.4804688 l -1.01953127,3.5976562 c -0.328125,1.10156255 -0.3984375,1.2070313 -0.890625,1.2773438 v 0.140625 H 1.5577656 v -0.140625 C 1.1124531,-0.1772186 0.94839063,-0.27096855 0.94839063,-0.50534355 c 0,-0.1171875 0.0234375,-0.29296875 0.0820313,-0.46875 L 2.0147969,-4.618625 3.9952656,0.12746875 H 4.1476094 L 5.4015156,-4.2201875 c 0.3164063,-1.1132813 0.3515625,-1.1601563 0.890625,-1.2773438 z m 1.4179688,3.225586 h 0.1757812 c 0,0 0.023437,0 0.070312,0 0.2460938,-0.023437 0.328125,0.058594 0.3867188,0.3867187 0.1054687,0.4921875 0.2109375,1.41796879 0.234375,2.09765629 l 0.035156,0.76171875 c 0.023437,0.32812496 0.035156,0.39843746 0.1171875,0.39843746 0.09375,0 0.234375,-0.2109375 0.5507813,-0.80859371 0.046875,-0.09375 0.2109375,-0.3984375 0.46875,-0.85546875 l 0.7734368,-1.34765624 0.246094,2.75390624 c 0.02344,0.23437496 0.03516,0.25781246 0.105469,0.25781246 0.05859,0 0.152344,-0.082031 0.386719,-0.36328121 0,-0.0117188 0.03516,-0.0585938 0.07031,-0.10546875 1.183594,-1.40625 1.839844,-2.49609374 1.839844,-3.04687504 0,-0.2578125 -0.199219,-0.4453125 -0.457031,-0.4453125 -0.199219,0 -0.328125,0.1171875 -0.328125,0.2929688 0,0.1171875 0.03516,0.1875 0.175781,0.3164062 0.140625,0.1289063 0.1875,0.2109375 0.1875,0.3164063 0,0.375 -0.292969,0.83203124 -1.417969,2.23828124 L 11.04995,-2.6000703 c 0,-0.09375 -0.01172,-0.1171875 -0.07031,-0.1171875 -0.04687,0 -0.07031,0.011719 -0.105469,0.082031 L 9.2101094,-0.01022656 C 9.1866719,-0.60788281 9.0929219,-1.5219453 8.9991719,-2.1196016 8.8937031,-2.6586641 8.8819844,-2.7289766 8.7765156,-2.7289766 c -0.046875,0 -0.140625,0.023437 -0.2578125,0.058594 -0.09375,0.035156 -0.3046875,0.070312 -0.5859375,0.1171875 -0.035156,0 -0.1171875,0.011719 -0.2226562,0.035156 z m 0,0"
         style="fill:#000000;fill-opacity:1;fill-rule:nonzero;stroke:none" />
    </g>
  </g>
</svg>
