<?xml version="1.0" encoding="UTF-8" standalone="no"?>
<!-- Created with Inkscape (http://www.inkscape.org/) -->

<svg
   width="256.02591"
   height="256.28082"
   viewBox="0 0 256.02591 256.28082"
   version="1.1"
   id="svg1"
   xmlns="http://www.w3.org/2000/svg"
   xmlns:svg="http://www.w3.org/2000/svg">
  <defs
     id="defs1" />
  <g
     id="layer1"
     transform="translate(-127.14385,-99.671303)">
    <path
       d="m 127.41954,100.20188 v 255.75025 m 24.97561,-255.75025 v 255.75025 m 24.97561,-255.75025 v 255.75025 m 24.97561,-255.75025 v 255.75025 m 24.97561,-255.75025 v 255.75025 m 24.9756,-255.75025 V 355.95213 M 277.27319,100.20188 V 355.95213 M 302.2488,100.20188 V 355.95213 M 327.22441,100.20188 V 355.95213 M 352.20002,100.20188 V 355.95213 M 377.17564,100.20188 V 355.95213 M 127.41954,100.20188 H 383.16978 M 127.41954,125.17749 H 383.16978 M 127.41954,150.1531 h 255.75024 m -255.75024,24.97561 h 255.75024 m -255.75024,24.97561 h 255.75024 m -255.75024,24.97561 h 255.75024 m -255.75024,24.97561 h 255.75024 m -255.75024,24.97561 h 255.75024 m -255.75024,24.97561 h 255.75024 m -255.75024,24.97561 h 255.75024 m -255.75024,24.97562 h 255.75024"
       style="fill:none;stroke:#adadad;stroke-width:0.499512px;stroke-opacity:1"
       id="path1" />
    <path
       style="fill:#000000;fill-opacity:1;stroke:#ff2727;stroke-opacity:1"
       d="m 252.67315,99.90122 c 0,83.48232 0,166.96463 0,250.44695"
       id="path5" />
    <path
       style="fill:#000000;fill-opacity:1;stroke:#ff2727;stroke-opacity:1"
       d="m 252.90304,100.8083 c -41.89359,0 -83.78718,0 -125.68076,0"
       id="path6" />
    <path
       style="fill:#000000;fill-opacity:1;stroke:#ff2727;stroke-opacity:1"
       d="m 127.64385,100.21113 c 0,83.26975 0,166.53951 0,249.80927"
       id="path7" />
    <path
       style="fill:#000000;fill-opacity:1;stroke:#ff2727;stroke-opacity:1"
       d="m 128.11204,349.26731 c 8.15505,0 16.3101,0 24.46515,0"
       id="path8" />
    <path
       style="fill:#000000;fill-opacity:1;stroke:#ff2727;stroke-opacity:1"
       d="m 152.93751,349.45153 c 0,-74.39142 0,-148.78283 0,-223.17425"
       id="path9" />
    <path
       style="fill:#000000;fill-opacity:1;stroke:#ff2727;stroke-opacity:1"
       d="m 152.88941,125.36772 c 8.53676,0 17.07352,0 25.61028,0"
       id="path10" />
    <path
       style="fill:#000000;fill-opacity:1;stroke:#ff2727;stroke-opacity:1"
       d="m 178.20895,125.87551 c 0,74.93998 0,149.87996 0,224.81994"
       id="path11" />
    <path
       style="fill:#000000;fill-opacity:1;stroke:#ff2727;stroke-opacity:1"
       d="m 178.13522,350.75392 c 8.05295,0 16.10589,0 24.15884,0"
       id="path12" />
    <path
       style="fill:#000000;fill-opacity:1;stroke:#ff2727;stroke-opacity:1"
       d="m 203.19166,350.24154 c 0,-74.96737 0,-149.93473 0,-224.9021"
       id="path13" />
    <path
       style="fill:#000000;fill-opacity:1;stroke:#ff2727;stroke-opacity:1"
       d="m 253.56349,351.02189 c 41.45271,0 82.90542,0 124.35814,0"
       id="path14"
       transform="translate(0,-2)" />
    <path
       style="fill:#000000;fill-opacity:1;stroke:#ff2727;stroke-opacity:1"
       d="m 377.00944,349.65542 c 0,-83.14265 0,-166.2853 0,-249.42795"
       id="path15" />
    <path
       style="fill:#000000;fill-opacity:1;stroke:#ff2727;stroke-opacity:1"
       d="m 376.94554,100.1713 c -8.10292,0 -16.20584,0 -24.30876,0"
       id="path16" />
    <path
       style="fill:#000000;fill-opacity:1;stroke:#ff2727;stroke-opacity:1"
       d="m 352.62485,100.64251 c 0,58.24005 0,116.4801 0,174.72015"
       id="path17" />
    <path
       style="fill:#000000;fill-opacity:1;stroke:#000000;stroke-opacity:1"
       d="m 227.18543,125.08167 c 8.31341,0 16.62683,0 24.94024,0"
       id="path18"
       transform="matrix(3.9957989,0,0,1,-680.60187,0)" />
    <path
       style="fill:#000000;fill-opacity:1;stroke:#000000;stroke-opacity:1"
       d="m 227.18543,125.08167 c 8.31341,0 16.62683,0 24.94024,0"
       id="path18-3"
       transform="matrix(3.9676187,0,0,1,-673.78038,25.259429)" />
    <path
       style="fill:#000000;fill-opacity:1;stroke:#000000;stroke-opacity:1"
       d="m 227.18543,125.08167 c 8.31341,0 16.62683,0 24.94024,0"
       id="path18-3-1"
       transform="matrix(3.9596791,0,0,1,-671.58141,49.418329)" />
    <path
       style="fill:#000000;fill-opacity:1;stroke:#000000;stroke-opacity:1"
       d="m 227.18543,125.08167 c 8.31341,0 16.62683,0 24.94024,0"
       id="path18-3-3"
       transform="matrix(3.9592853,0,0,1,-671.49193,75.418329)" />
    <path
       style="fill:#000000;fill-opacity:1;stroke:#000000;stroke-opacity:1"
       d="m 227.18543,125.08167 c 8.31341,0 16.62683,0 24.94024,0"
       id="path18-3-6"
       transform="matrix(4.0177799,0,0,1,-685.78106,99.418329)" />
    <path
       style="fill:#000000;fill-opacity:1;stroke:#000000;stroke-opacity:1"
       d="m 227.18543,125.08167 c 8.31341,0 16.62683,0 24.94024,0"
       id="path18-3-2"
       transform="matrix(4.0434051,0,0,1,-691.60272,125.41833)" />
    <path
       style="fill:#000000;fill-opacity:1;stroke:#000000;stroke-opacity:1"
       d="m 227.18543,125.08167 c 8.31341,0 16.62683,0 24.94024,0"
       id="path18-3-5"
       transform="matrix(3.9789432,0,0,1,-676.95793,149.41833)" />
    <path
       style="fill:#000000;fill-opacity:1;stroke:#000000;stroke-opacity:1"
       d="m 227.18543,125.08167 c 8.31341,0 16.62683,0 24.94024,0"
       id="path18-3-7"
       transform="matrix(5.0277831,0,0,1,-915.23908,175.41833)" />
    <path
       style="fill:#000000;fill-opacity:1;stroke:#000000;stroke-opacity:1"
       d="m 227.18543,125.08167 c 8.31341,0 16.62683,0 24.94024,0"
       id="path18-3-9"
       transform="matrix(4.9955869,0,0,1,-907.92456,199.41833)" />
    <path
       style="fill:#000000;fill-opacity:1;stroke:#000000;stroke-opacity:1"
       d="m 227.18543,125.08167 c 8.31341,0 16.62683,0 24.94024,0"
       id="path18-3-78"
       transform="translate(-0.18543451,225.41833)" />
    <path
       style="fill:#000000;fill-opacity:1;stroke:#000000;stroke-opacity:1"
       d="m 252.91489,100.69318 c 24.9873,0 49.9746,0 74.9619,0"
       id="path19" />
    <path
       style="fill:#000000;fill-opacity:1;stroke:#000000;stroke-opacity:1"
       d="m 252.91489,100.69318 c 24.9873,0 49.9746,0 74.9619,0"
       id="path19-7"
       transform="translate(-0.91489,-0.19318)" />
  </g>
</svg>
